SplineFontDB: 1.0
FontName: DBThaiText-BoldOblique
FullName: DBThaiText Bold Oblique
FamilyName: DBThaiText
Weight: Bold
Copyright: Typeface (c) The Monotype Corporation plc. Data (c) The Monotype Corporation plc/Type Solutions Inc. 1990-1992. All Rights Reserved\n\nModified by TLWG
Version: 1.1 : May 12, 2003
ItalicAngle: -17.9
UnderlinePosition: -477
UnderlineWidth: 205
Ascent: 1638
Descent: 410
NeedsXUIDChange: 1
FSType: 0
PfmFamily: 33
TTFWeight: 700
TTFWidth: 5
Panose: 2 0 8 3 0 0 0 0 0 0
LineGap: 184
VLineGap: 0
LangName: 1033 "" "" "" "PfaEdit : DBThaiTextBoldItalic : 13-0-2003" 
Encoding: compacted
OldEncoding: iso8859_1
DisplaySize: -36
AntiAlias: 1
WinInfo: 192 16 4
BeginChars: 258 258
StartChar: .notdef
Encoding: 0 -1
OldEncoding: 0
Width: 1090
Flags: HW
Fore
76.9502 -57.7998 m 1
 76.9502 1885.8 l 1
 947.05 1885.8 l 1
 947.05 -57.7998 l 1
 76.9502 -57.7998 l 1
222.72 85.71 m 1
 801.28 85.71 l 1
 801.28 1742.29 l 1
 222.72 1742.29 l 1
 222.72 85.71 l 1
EndSplineSet
EndChar
StartChar: exclam
Encoding: 3 33
OldEncoding: 33
Width: 408
Flags: HW
Fore
103.87 272.21 m 1
 186.36 681.27 l 1
 276.76 959.25 l 1
 471.12 959.25 l 1
 380.72 681.27 l 1
 194.27 272.21 l 1
 103.87 272.21 l 1
27.0303 190.85 m 1
 221.39 190.85 l 1
 161.5 -1.25 l 1
 -35.1201 -1.25 l 1
 27.0303 190.85 l 1
EndSplineSet
EndChar
StartChar: quotedbl
Encoding: 4 34
OldEncoding: 34
Width: 587
Flags: HW
Fore
537.965 803.045 m 1
 516.119 739.765 477.698 688.161 422.705 648.235 c 0
 363.191 606.801 311.965 583.825 269.025 579.305 c 1
 264.505 610.945 l 1
 312.719 634.299 341.345 648.988 350.385 655.015 c 0
 372.231 670.835 390.688 693.435 405.755 722.815 c 1
 380.895 722.815 359.425 729.595 341.345 743.155 c 1
 328.539 750.688 322.135 763.871 322.135 782.705 c 0
 322.135 796.265 324.771 809.448 330.045 822.255 c 0
 339.085 850.129 355.281 873.858 378.635 893.445 c 0
 400.481 912.278 425.719 921.695 454.345 921.695 c 0
 495.778 921.695 522.145 910.771 533.445 888.925 c 0
 540.979 876.119 544.745 861.429 544.745 844.855 c 0
 544.745 834.309 542.485 820.371 537.965 803.045 c 1
283.715 803.045 m 1
 261.869 740.519 223.071 688.915 167.325 648.235 c 0
 108.565 606.801 57.7148 583.825 14.7754 579.305 c 1
 10.2549 610.945 l 1
 56.208 632.791 84.835 647.481 96.1348 655.015 c 0
 117.981 670.835 136.438 693.435 151.505 722.815 c 1
 126.645 722.815 105.175 729.595 87.0947 743.155 c 1
 74.2881 749.935 67.8848 763.119 67.8848 782.705 c 0
 67.8848 795.512 70.1445 808.695 74.665 822.255 c 0
 83.7051 848.621 99.9014 872.352 123.255 893.445 c 1
 146.608 912.278 172.222 921.695 200.095 921.695 c 0
 240.021 921.695 266.389 910.771 279.195 888.925 c 0
 286.729 876.119 290.495 861.429 290.495 844.855 c 0
 290.495 834.309 288.235 820.371 283.715 803.045 c 1
EndSplineSet
EndChar
StartChar: numbersign
Encoding: 5 35
OldEncoding: 35
Width: 688
Flags: HW
Fore
374.005 919.99 m 1
 512.995 919.99 l 1
 374.005 651.05 l 1
 507.345 653.31 l 1
 644.075 919.99 l 1
 783.065 919.99 l 1
 644.075 651.05 l 1
 748.035 651.05 l 1
 701.705 503.02 l 1
 575.145 503.02 l 1
 489.265 341.43 l 1
 614.695 341.43 l 1
 566.105 191.14 l 1
 407.905 191.14 l 1
 294.905 -35.9902 l 1
 151.395 -35.9902 l 1
 268.915 191.14 l 1
 137.835 191.14 l 1
 21.4453 -35.9902 l 1
 -119.805 -35.9902 l 1
 -3.41504 191.14 l 1
 -122.065 191.14 l 1
 -73.4746 341.43 l 1
 74.5547 341.43 l 1
 160.435 503.02 l 1
 33.875 503.02 l 1
 80.2051 651.05 l 1
 235.015 651.05 l 1
 374.005 919.99 l 1
299.425 503.02 m 1
 213.545 341.43 l 1
 348.015 341.43 l 1
 436.155 503.02 l 1
 299.425 503.02 l 1
EndSplineSet
EndChar
StartChar: dollar
Encoding: 6 36
OldEncoding: 36
Width: 688
Flags: HW
Fore
717.045 663.17 m 1
 545.285 663.17 l 1
 552.818 685.77 556.585 704.227 556.585 718.54 c 0
 556.585 734.36 552.818 749.05 545.285 762.61 c 0
 530.219 784.456 511.762 798.394 489.915 804.42 c 1
 404.035 542.26 l 1
 485.395 519.66 544.909 487.267 582.575 445.08 c 0
 604.421 418.714 615.345 388.58 615.345 354.68 c 0
 615.345 331.326 610.448 305.336 600.655 276.71 c 0
 580.315 215.69 554.325 167.1 522.685 130.94 c 0
 491.045 93.2734 457.145 64.6465 420.985 45.0596 c 0
 383.318 22.46 346.781 7.76953 311.375 0.990234 c 1
 220.975 -20.4805 l 1
 178.035 -158.34 l 1
 89.8945 -158.34 l 1
 133.965 -22.7402 l 1
 89.8945 -14.8301 l 1
 40.1748 0.990234 l 1
 39.0449 0.990234 l 2
 16.4453 7.76953 -0.504883 16.0566 -11.8047 25.8496 c 0
 -28.3779 40.1631 -42.3154 55.6064 -53.6152 72.1797 c 0
 -70.9414 98.5469 -79.6055 130.187 -79.6055 167.1 c 0
 -79.6055 203.26 -72.4482 240.55 -58.1348 278.97 c 1
 112.495 278.97 l 1
 106.469 255.616 103.455 233.017 103.455 211.17 c 2
 103.455 195.35 l 1
 105.715 175.764 110.988 160.32 119.275 149.02 c 0
 126.809 140.733 136.979 133.954 149.785 128.68 c 1
 157.318 123.406 167.488 119.264 180.295 116.25 c 1
 275.215 410.05 l 1
 205.155 425.116 151.669 452.99 114.755 493.67 c 0
 89.8945 522.296 77.4648 556.196 77.4648 595.37 c 0
 77.4648 611.943 81.6084 636.05 89.8945 667.69 c 1
 115.509 747.544 159.201 811.576 220.975 859.79 c 0
 281.241 906.496 356.198 933.24 445.845 940.02 c 1
 469.575 1012.34 l 1
 556.585 1012.34 l 1
 533.985 940.02 l 1
 665.065 928.72 730.605 868.83 730.605 760.35 c 0
 730.605 729.464 726.085 697.07 717.045 663.17 c 1
326.065 570.51 m 1
 404.035 808.94 l 1
 333.222 796.887 284.631 754.324 258.265 681.25 c 1
 253.745 648.48 l 1
 253.745 632.66 l 1
 256.005 619.1 263.915 607.424 277.475 597.63 c 1
 288.775 586.33 304.972 577.29 326.065 570.51 c 1
350.925 378.41 m 1
 267.305 120.77 l 1
 300.075 133.2 l 1
 344.145 151.28 l 1
 361.472 161.826 374.655 171.996 383.695 181.79 c 0
 398.009 199.116 407.802 216.066 413.075 232.64 c 0
 419.855 249.966 423.245 269.177 423.245 290.27 c 0
 423.245 332.456 399.139 361.836 350.925 378.41 c 1
EndSplineSet
EndChar
StartChar: percent
Encoding: 7 37
OldEncoding: 37
Width: 1103
Flags: HW
Fore
153.53 -20.9248 m 1
 48.4404 -20.9248 l 1
 886.9 933.925 l 1
 988.6 933.925 l 1
 153.53 -20.9248 l 1
511.74 226.545 m 0
 531.326 288.318 573.89 344.441 639.43 394.915 c 0
 701.204 443.129 765.99 467.235 833.79 467.235 c 0
 898.576 467.235 947.166 443.129 979.56 394.915 c 0
 997.64 367.795 1006.68 336.155 1006.68 299.995 c 0
 1006.68 275.889 1002.16 251.405 993.12 226.545 c 1
 972.78 157.991 930.97 100.738 867.69 54.7852 c 0
 805.916 8.83203 741.884 -14.1445 675.59 -14.1445 c 0
 607.036 -14.1445 557.693 8.83203 527.56 54.7852 c 1
 509.48 85.6719 500.44 117.312 500.44 149.705 c 0
 500.44 179.085 504.206 204.698 511.74 226.545 c 0
34.8799 686.455 m 0
 58.2334 753.501 100.796 810.755 162.57 858.215 c 0
 223.59 905.675 289.13 929.405 359.19 929.405 c 0
 424.73 929.405 473.32 905.675 504.96 858.215 c 0
 523.04 829.589 532.08 797.949 532.08 763.295 c 0
 532.08 737.682 527.56 712.068 518.52 686.455 c 0
 498.18 619.408 456.746 562.531 394.22 515.825 c 0
 330.187 469.119 266.153 445.765 202.12 445.765 c 0
 134.32 445.765 83.8467 469.119 50.7002 515.825 c 0
 31.1133 542.191 21.3203 573.831 21.3203 610.745 c 0
 21.3203 634.099 25.8398 659.335 34.8799 686.455 c 0
643.95 226.545 m 1
 639.43 191.515 l 1
 639.43 175.695 643.95 161.005 652.99 147.445 c 0
 665.044 125.599 686.514 114.675 717.4 114.675 c 0
 746.78 114.675 776.16 125.599 805.54 147.445 c 0
 835.674 170.799 854.13 197.165 860.91 226.545 c 1
 865.43 237.845 867.69 249.145 867.69 260.445 c 0
 867.69 275.512 863.924 289.448 856.39 302.255 c 0
 842.83 324.102 820.606 335.025 789.72 335.025 c 0
 761.094 335.025 732.466 324.102 703.84 302.255 c 1
 675.966 284.175 656.004 258.938 643.95 226.545 c 1
167.09 686.455 m 0
 162.57 675.155 160.31 664.608 160.31 654.815 c 0
 160.31 638.995 164.83 624.305 173.87 610.745 c 0
 189.69 588.898 212.666 577.975 242.8 577.975 c 0
 273.687 577.975 303.066 588.898 330.94 610.745 c 0
 358.06 630.331 376.517 655.568 386.31 686.455 c 0
 391.584 699.262 394.22 712.445 394.22 726.005 c 0
 394.22 740.318 390.076 754.255 381.79 767.815 c 0
 368.23 788.155 346.006 798.325 315.12 798.325 c 0
 284.986 798.325 254.854 788.155 224.72 767.815 c 1
 198.354 745.215 179.144 718.095 167.09 686.455 c 0
EndSplineSet
EndChar
StartChar: ampersand
Encoding: 8 38
OldEncoding: 38
Width: 899
Flags: HW
Fore
650.11 492.934 m 1
 803.79 492.934 l 1
 784.204 436.434 759.344 386.337 729.21 342.644 c 0
 693.804 287.649 656.137 244.333 616.21 212.693 c 1
 715.65 0.25293 l 1
 502.08 0.25293 l 1
 463.66 81.6133 l 1
 401.134 40.1797 356.31 13.8135 329.19 2.51367 c 0
 284.744 -16.3203 236.153 -25.7363 183.42 -25.7363 c 0
 97.54 -27.9971 30.4932 -3.88965 -17.7197 46.583 c 0
 -47.0996 75.9629 -61.79 113.63 -61.79 159.583 c 0
 -61.79 189.717 -56.5166 220.604 -45.9697 252.243 c 1
 -19.9805 309.873 l 1
 0.360352 351.307 27.1035 387.09 60.25 417.224 c 1
 97.916 448.109 131.063 470.333 159.69 483.894 c 0
 180.784 493.688 210.916 509.13 250.09 530.224 c 1
 220.71 587.854 l 1
 210.164 605.934 203.76 626.649 201.5 650.003 c 1
 199.24 669.213 l 1
 199.24 686.54 203.006 706.503 210.54 729.104 c 0
 221.84 763.003 238.79 793.89 261.39 821.764 c 0
 296.796 866.21 338.606 900.863 386.82 925.724 c 0
 434.28 949.077 484.376 960.753 537.11 960.753 c 0
 593.61 960.753 639.187 946.817 673.84 918.943 c 0
 700.206 896.344 713.39 865.457 713.39 826.283 c 1
 711.13 801.424 l 1
 702.09 750.573 l 1
 686.27 699.347 658.396 656.029 618.47 620.623 c 0
 583.063 588.983 534.474 555.083 472.7 518.924 c 1
 556.32 340.384 l 1
 571.387 351.684 589.09 370.14 609.43 395.753 c 1
 628.264 422.873 641.07 446.979 647.85 468.073 c 1
 650.11 492.934 l 1
398.12 673.733 m 1
 424.11 622.884 l 1
 470.44 645.483 l 1
 502.08 671.474 l 2
 515.64 683.527 526.563 699.724 534.85 720.063 c 0
 540.876 738.144 543.89 755.847 543.89 773.174 c 2
 543.89 786.733 l 1
 541.63 804.06 523.174 812.724 488.52 812.724 c 0
 446.334 812.724 415.446 797.279 395.86 766.394 c 1
 391.34 750.573 389.08 735.884 389.08 722.323 c 0
 389.08 704.243 392.094 688.047 398.12 673.733 c 1
404.9 201.394 m 1
 300.94 419.483 l 1
 192.46 360.724 l 1
 163.834 341.89 143.87 314.394 132.57 278.233 c 0
 128.05 261.659 125.79 246.97 125.79 234.163 c 0
 125.79 206.29 134.83 180.677 152.91 157.323 c 0
 170.236 136.229 195.097 125.684 227.49 125.684 c 0
 270.43 125.684 329.566 150.92 404.9 201.394 c 1
EndSplineSet
EndChar
StartChar: quotesingle
Encoding: 9 39
OldEncoding: 39
Width: 295
Flags: HW
Fore
277.34 803.045 m 0
 257 740.519 218.58 688.915 162.08 648.235 c 0
 103.32 606.801 52.4697 583.825 9.53027 579.305 c 1
 3.87988 610.945 l 1
 52.0938 634.299 80.7197 648.988 89.7598 655.015 c 0
 110.854 669.329 129.31 691.929 145.13 722.815 c 1
 120.27 722.815 98.7998 729.595 80.7197 743.155 c 0
 68.667 750.688 62.6396 763.871 62.6396 782.705 c 0
 62.6396 795.512 64.9004 808.695 69.4199 822.255 c 0
 78.46 850.129 94.6562 873.858 118.01 893.445 c 0
 139.856 912.278 165.094 921.695 193.72 921.695 c 0
 235.153 921.695 261.52 910.771 272.82 888.925 c 0
 280.354 876.119 284.12 861.429 284.12 844.855 c 0
 284.12 834.309 281.86 820.371 277.34 803.045 c 0
EndSplineSet
EndChar
StartChar: parenleft
Encoding: 10 40
OldEncoding: 40
Width: 402
Flags: HW
Fore
430.46 974.59 m 1
 561.54 974.59 l 1
 470.387 869.876 397.313 776.464 342.32 694.35 c 0
 278.286 600.937 231.956 509.03 203.33 418.63 c 0
 197.304 401.304 192.03 382.094 187.51 361 c 1
 158.13 259.3 141.18 149.69 136.66 32.1699 c 1
 134.4 -20.9404 l 1
 134.4 -114.354 144.193 -191.57 163.78 -252.59 c 1
 31.5703 -252.59 l 1
 -4.58984 -87.6104 l 1
 -13.6299 -51.4502 -19.2803 -11.5234 -21.54 32.1699 c 1
 -21.54 80.7598 l 2
 -21.54 125.96 -20.0332 160.236 -17.0195 183.59 c 0
 -12.5 231.804 -0.823242 290.94 18.0098 361 c 0
 33.0762 412.98 60.1963 474.754 99.3701 546.32 c 0
 130.256 604.326 164.91 659.696 203.33 712.43 c 0
 241.75 765.916 276.403 809.233 307.29 842.38 c 2
 430.46 974.59 l 1
EndSplineSet
EndChar
StartChar: parenright
Encoding: 11 41
OldEncoding: 41
Width: 422
Flags: HW
Fore
214.765 974.59 m 1
 343.585 974.59 l 1
 376.731 869.124 397.825 771.943 406.865 683.05 c 1
 409.125 629.94 l 1
 409.125 545.566 392.929 455.92 360.535 361 c 0
 322.115 248.754 269.759 146.3 203.465 53.6396 c 0
 140.938 -32.2402 54.3047 -134.316 -56.4346 -252.59 c 1
 -184.125 -252.59 l 1
 -108.792 -174.996 -36.8486 -80.0762 31.7051 32.1699 c 0
 105.531 156.47 159.395 266.08 193.295 361 c 2
 212.505 414.11 l 1
 226.065 455.544 236.611 503.38 244.145 557.62 c 0
 250.925 593.78 254.315 637.097 254.315 687.57 c 2
 254.315 703.39 l 1
 252.055 762.15 247.911 808.48 241.885 842.38 c 0
 235.105 882.307 226.065 926.376 214.765 974.59 c 1
EndSplineSet
EndChar
StartChar: asterisk
Encoding: 12 42
OldEncoding: 42
Width: 482
Flags: HW
Fore
54.8896 476.935 m 1
 -8.38965 548.125 l 1
 135.12 675.815 l 1
 10.8203 726.665 l 1
 72.9697 819.325 l 1
 191.62 768.475 l 1
 244.73 930.065 l 1
 346.43 930.065 l 1
 295.58 768.475 l 1
 443.61 819.325 l 1
 450.39 726.665 l 1
 291.06 675.815 l 1
 350.95 548.125 l 1
 242.47 476.935 l 1
 183.71 603.495 l 1
 54.8896 476.935 l 1
EndSplineSet
EndChar
StartChar: plus
Encoding: 13 43
OldEncoding: 43
Width: 723
Flags: HW
Fore
364.86 643.725 m 1
 523.06 643.725 l 1
 443.96 403.035 l 1
 684.65 403.035 l 1
 633.8 245.965 l 1
 393.11 245.965 l 1
 314.01 5.27539 l 1
 156.94 5.27539 l 1
 236.04 245.965 l 1
 -4.65039 245.965 l 1
 46.2002 403.035 l 1
 286.89 403.035 l 1
 364.86 643.725 l 1
EndSplineSet
EndChar
StartChar: comma
Encoding: 14 44
OldEncoding: 44
Width: 424
Flags: HW
Fore
339.34 148.11 m 0
 317.494 85.583 278.696 33.9805 222.95 -6.7002 c 0
 164.943 -48.1338 114.094 -71.4863 70.4004 -76.7598 c 1
 65.8799 -43.9902 l 1
 103.546 -26.6631 132.174 -11.9736 151.76 0.0800781 c 0
 172.1 13.6396 190.557 35.8633 207.13 66.75 c 1
 183.023 66.75 161.554 73.9062 142.72 88.2197 c 1
 129.914 95 123.51 108.184 123.51 127.77 c 0
 123.51 139.823 125.77 152.63 130.29 166.19 c 0
 138.576 193.31 154.773 217.416 178.88 238.51 c 1
 203.74 257.344 229.354 266.76 255.72 266.76 c 0
 295.646 266.76 321.637 255.836 333.69 233.99 c 0
 341.977 221.937 346.12 207.246 346.12 189.92 c 0
 346.12 177.866 343.86 163.93 339.34 148.11 c 0
EndSplineSet
EndChar
StartChar: hyphen
Encoding: 15 45
OldEncoding: 45
Width: 412
Flags: HW
Fore
39.7754 465.335 m 1
 396.855 465.335 l 1
 341.485 285.665 l 1
 -17.8555 285.665 l 1
 39.7754 465.335 l 1
EndSplineSet
EndChar
StartChar: period
Encoding: 16 46
OldEncoding: 46
Width: 309
Flags: HW
Fore
109.62 42.9502 m 0
 79.4863 42.9502 58.3936 52.3662 46.3398 71.2002 c 0
 40.3135 80.9932 37.2998 92.293 37.2998 105.1 c 1
 41.8203 140.13 l 1
 50.8604 165.744 67.0566 187.966 90.4102 206.8 c 0
 113.764 225.634 140.884 235.05 171.77 235.05 c 0
 200.396 235.05 220.36 225.634 231.66 206.8 c 0
 237.687 198.514 240.7 187.966 240.7 175.16 c 0
 240.7 163.106 238.44 151.43 233.92 140.13 c 1
 227.14 113.01 211.696 90.0332 187.59 71.2002 c 0
 165.744 52.3662 139.754 42.9502 109.62 42.9502 c 0
EndSplineSet
EndChar
StartChar: slash
Encoding: 17 47
OldEncoding: 47
Width: 344
Flags: HW
Fore
414.12 943.25 m 1
 495.48 943.25 l 1
 -89.8604 -17.25 l 1
 -173.48 -17.25 l 1
 414.12 943.25 l 1
EndSplineSet
EndChar
StartChar: zero
Encoding: 18 48
OldEncoding: 48
Width: 689
Flags: HW
Fore
155.085 -29.6152 m 0
 110.639 -29.6152 71.4648 -21.7051 37.5654 -5.88477 c 0
 0.651367 10.6885 -24.208 32.9121 -37.0146 60.7852 c 0
 -50.5752 91.6719 -57.3555 129.715 -57.3555 174.915 c 0
 -57.3555 252.509 -38.1445 348.935 0.275391 464.195 c 0
 61.2949 651.775 135.121 785.115 221.755 864.215 c 0
 253.395 892.089 293.698 914.312 342.665 930.885 c 0
 384.099 946.705 428.921 954.615 477.135 954.615 c 0
 577.329 954.615 642.869 924.481 673.755 864.215 c 0
 688.821 834.835 696.355 797.169 696.355 751.215 c 0
 696.355 674.375 677.145 578.701 638.725 464.195 c 0
 576.198 272.849 500.488 138.379 411.595 60.7852 c 1
 340.028 0.518555 254.525 -29.6152 155.085 -29.6152 c 0
210.455 139.885 m 0
 269.969 139.885 314.791 160.602 344.925 202.035 c 1
 375.059 247.988 411.219 335.375 453.405 464.195 c 0
 494.085 590.001 514.425 676.259 514.425 722.965 c 2
 514.425 725.225 l 2
 514.425 766.658 483.539 787.375 421.765 787.375 c 0
 396.151 787.375 371.291 782.102 347.185 771.555 c 0
 321.571 758.749 303.869 743.305 294.075 725.225 c 1
 264.695 686.805 227.781 599.795 183.335 464.195 c 0
 144.161 339.895 124.575 256.275 124.575 213.335 c 2
 124.575 202.035 l 1
 124.575 199.775 l 2
 124.575 159.849 153.201 139.885 210.455 139.885 c 0
EndSplineSet
EndChar
StartChar: one
Encoding: 19 49
OldEncoding: 49
Width: 685
Flags: HW
Fore
603.73 932.625 m 1
 300.89 0.375 l 1
 115.57 0.375 l 1
 326.88 645.605 l 1
 104.27 645.605 l 1
 143.82 768.775 l 1
 178.474 768.775 217.646 773.295 261.34 782.335 c 0
 302.773 789.115 336.674 800.791 363.04 817.365 c 1
 426.32 852.771 465.87 891.191 481.69 932.625 c 1
 603.73 932.625 l 1
EndSplineSet
EndChar
StartChar: two
Encoding: 20 50
OldEncoding: 50
Width: 694
Flags: HW
Fore
537.64 165.094 m 1
 482.27 -1.01562 l 1
 -151.66 -1.01562 l 1
 -130.566 54.7305 -101.563 111.23 -64.6504 168.484 c 0
 -29.2432 221.218 23.4902 268.678 93.5498 310.864 c 2
 275.48 422.734 l 1
 341.02 461.154 386.597 491.288 412.21 513.134 c 0
 461.93 558.334 494.323 602.78 509.39 646.474 c 1
 516.17 673.594 520.313 692.428 521.82 702.974 c 1
 524.08 723.314 l 1
 524.08 747.42 516.17 765.124 500.35 776.424 c 1
 480.764 793.75 457.034 802.414 429.16 802.414 c 1
 396.39 797.894 l 1
 327.836 782.828 275.48 720.301 239.32 610.314 c 1
 60.7803 610.314 l 1
 95.4336 721.054 150.05 806.558 224.63 866.824 c 0
 303.73 930.104 394.884 959.484 498.09 954.964 c 0
 615.61 951.197 684.916 905.62 706.01 818.234 c 0
 709.023 804.674 710.906 786.218 711.66 762.864 c 0
 711.66 727.458 702.996 678.114 685.67 614.834 c 1
 645.744 524.434 539.146 429.514 365.88 330.074 c 0
 245.347 259.261 171.52 204.268 144.4 165.094 c 1
 537.64 165.094 l 1
EndSplineSet
EndChar
StartChar: three
Encoding: 21 51
OldEncoding: 51
Width: 690
Flags: HW
Fore
-60.7695 274.467 m 1
 114.38 274.467 l 1
 103.08 204.407 l 1
 103.08 199.888 l 2
 103.08 184.821 106.094 171.638 112.12 160.337 c 0
 119.653 147.531 132.836 137.737 151.67 130.957 c 0
 173.517 121.163 201.39 116.268 235.29 116.268 c 1
 266.177 129.827 286.14 139.997 295.18 146.777 c 0
 342.64 180.678 374.28 222.487 390.1 272.207 c 0
 394.62 285.768 396.88 299.327 396.88 312.888 c 0
 396.88 338.501 389.347 360.348 374.28 378.428 c 1
 346.406 404.794 299.323 417.978 233.03 417.978 c 1
 274.84 542.277 l 1
 323.054 542.277 367.5 550.941 408.18 568.268 c 0
 445.847 584.087 472.966 610.831 489.54 648.497 c 2
 507.62 688.047 l 1
 512.894 707.634 515.53 723.077 515.53 734.377 c 2
 515.53 749.067 l 1
 512.517 766.394 503.1 780.707 487.28 792.007 c 0
 469.954 803.308 447.73 808.957 420.61 808.957 c 0
 370.89 811.217 331.34 795.773 301.96 762.627 c 1
 276.347 730.987 255.63 689.931 239.81 639.457 c 1
 70.3096 639.457 l 1
 91.4033 706.504 118.523 762.251 151.67 806.697 c 0
 184.063 850.391 235.666 889.563 306.48 924.217 c 0
 352.434 946.817 419.48 956.987 507.62 954.728 c 0
 576.927 954.728 628.153 936.271 661.3 899.357 c 1
 686.16 869.224 699.72 836.077 701.98 799.917 c 1
 698.966 750.951 690.68 707.634 677.12 669.967 c 0
 665.82 636.821 646.61 606.688 619.49 579.567 c 0
 600.656 561.487 566.756 535.121 517.79 500.467 c 1
 559.224 468.827 582.954 435.681 588.98 401.027 c 1
 591.24 367.127 l 1
 591.24 330.967 583.706 289.911 568.64 243.957 c 1
 542.273 176.157 495.19 112.877 427.39 54.1172 c 1
 358.084 -3.13574 266.177 -31.7627 151.67 -31.7627 c 0
 112.496 -31.7627 70.6865 -24.6064 26.2402 -10.293 c 0
 -12.9336 4.02051 -41.9365 31.5176 -60.7695 72.1973 c 0
 -73.5762 99.3174 -79.9805 126.438 -79.9805 153.558 c 2
 -79.9805 167.117 l 1
 -76.9668 206.291 -70.5635 242.073 -60.7695 274.467 c 1
EndSplineSet
EndChar
StartChar: four
Encoding: 22 52
OldEncoding: 52
Width: 691
Flags: HW
Fore
487.93 932.625 m 1
 702.63 932.625 l 1
 516.18 356.325 l 1
 613.36 356.325 l 1
 564.77 206.035 l 1
 467.59 206.035 l 1
 399.79 0.375 l 1
 214.47 0.375 l 1
 282.27 206.035 l 1
 -90.6299 206.035 l 1
 -39.7803 364.235 l 1
 487.93 932.625 l 1
455.16 745.045 m 1
 90.1699 356.325 l 1
 330.86 356.325 l 1
 455.16 745.045 l 1
EndSplineSet
EndChar
StartChar: five
Encoding: 23 53
OldEncoding: 53
Width: 687
Flags: HW
Fore
-76.0596 245.08 m 1
 107 245.08 l 1
 102.48 196.49 l 1
 102.48 187.45 l 2
 102.48 170.876 111.144 156.94 128.47 145.64 c 0
 145.044 133.586 171.034 127.56 206.44 127.56 c 0
 253.9 129.82 294.956 148.276 329.61 182.93 c 0
 364.264 217.584 387.994 258.264 400.8 304.97 c 0
 412.1 339.624 417.75 368.25 417.75 390.85 c 0
 417.75 405.164 415.113 417.594 409.84 428.14 c 0
 393.267 467.313 357.106 485.77 301.36 483.51 c 0
 250.887 483.51 209.454 461.286 177.06 416.84 c 1
 7.55957 416.84 l 1
 261.81 934.38 l 1
 757.88 934.38 l 1
 704.77 770.53 l 1
 320.57 770.53 l 1
 227.91 578.43 l 1
 278.384 601.783 311.53 615.72 327.35 620.24 c 0
 357.483 627.773 383.474 631.54 405.32 631.54 c 0
 441.48 631.54 473.12 626.267 500.24 615.72 c 0
 558.246 593.874 592.9 555.076 604.2 499.33 c 0
 609.474 480.496 612.11 459.78 612.11 437.18 c 0
 612.11 401.773 604.954 360.717 590.64 314.01 c 0
 570.3 245.456 531.88 179.916 475.38 117.39 c 1
 427.166 70.6836 383.097 37.5371 343.17 17.9502 c 0
 297.216 -4.65039 235.443 -20.0938 157.85 -28.3799 c 1
 100.597 -28.3799 57.2803 -21.9766 27.9004 -9.16992 c 0
 0.0263672 3.63672 -23.7031 21.3398 -43.29 43.9404 c 0
 -65.8896 68.7998 -80.5801 93.2832 -87.3604 117.39 c 1
 -91.8799 161.46 l 1
 -89.6201 185.19 l 1
 -87.3604 205.53 -82.8398 225.494 -76.0596 245.08 c 1
EndSplineSet
EndChar
StartChar: six
Encoding: 24 54
OldEncoding: 54
Width: 688
Flags: HW
Fore
709.81 725.104 m 1
 535.79 725.104 l 1
 535.79 780.098 509.424 808.725 456.69 810.984 c 0
 417.517 810.984 382.863 801.568 352.73 782.734 c 1
 322.597 766.161 300.374 746.198 286.06 722.845 c 1
 260.446 688.944 239.73 647.135 223.91 597.414 c 0
 215.624 574.061 211.48 557.11 211.48 546.564 c 1
 244.626 569.918 277.02 586.868 308.66 597.414 c 0
 344.82 610.221 387.384 616.624 436.35 616.624 c 0
 520.724 616.624 575.34 579.334 600.2 504.754 c 0
 608.486 476.881 612.63 451.645 612.63 429.044 c 0
 612.63 396.65 605.474 358.984 591.16 316.044 c 0
 570.066 251.258 542.946 197.771 509.8 155.584 c 0
 460.08 92.3047 409.23 46.7275 357.25 18.8545 c 0
 299.996 -11.2793 236.716 -27.4756 167.41 -29.7354 c 0
 97.3496 -31.9951 41.2266 -10.9023 -0.959961 33.5439 c 0
 -39.3799 74.2246 -58.5898 125.828 -58.5898 188.354 c 2
 -58.5898 195.135 l 1
 -51.0566 278.001 -31.0938 368.4 1.2998 466.334 c 0
 36.707 574.061 72.1133 655.044 107.52 709.284 c 0
 151.966 779.345 209.22 838.48 279.28 886.694 c 0
 344.066 933.4 417.14 956.754 498.5 956.754 c 1
 549.35 954.494 l 1
 634.477 943.194 685.326 913.814 701.9 866.354 c 0
 711.693 841.494 716.59 815.128 716.59 787.254 c 0
 716.59 766.161 714.33 745.444 709.81 725.104 c 1
175.32 391.754 m 0
 153.474 363.881 136.146 332.24 123.34 296.834 c 0
 114.3 271.975 109.78 248.244 109.78 225.645 c 0
 109.78 205.305 112.794 189.108 118.82 177.055 c 0
 130.874 149.935 157.24 132.984 197.92 126.204 c 1
 245.38 126.204 286.437 139.765 321.09 166.885 c 1
 367.796 207.564 400.19 255.4 418.27 310.395 c 0
 427.31 336.008 431.83 360.114 431.83 382.715 c 0
 431.83 394.769 429.57 407.198 425.05 420.004 c 0
 407.724 456.918 373.07 475.374 321.09 475.374 c 1
 295.477 473.114 270.616 465.204 246.51 451.645 c 1
 219.39 439.591 195.66 419.628 175.32 391.754 c 0
EndSplineSet
EndChar
StartChar: seven
Encoding: 25 55
OldEncoding: 55
Width: 681
Flags: HW
Fore
142.18 932.625 m 1
 795.32 932.625 l 1
 748.99 789.115 l 1
 687.216 736.381 624.69 677.245 561.41 611.705 c 0
 495.87 543.905 441.63 481.379 398.69 424.125 c 0
 341.437 347.285 296.99 280.238 265.35 222.985 c 0
 220.15 143.131 184.366 68.9287 158 0.375 c 1
 -27.3203 0.375 l 1
 14.1133 92.2812 55.1699 172.512 95.8496 241.065 c 0
 137.284 311.125 179.094 373.651 221.28 428.645 c 0
 267.986 487.405 316.576 542.021 367.05 592.495 c 0
 420.536 648.241 480.427 707.001 546.72 768.775 c 1
 89.0703 768.775 l 1
 142.18 932.625 l 1
EndSplineSet
EndChar
StartChar: eight
Encoding: 26 56
OldEncoding: 56
Width: 690
Flags: HW
Fore
493.995 132.988 m 1
 451.055 81.0088 397.945 40.7051 334.665 12.0781 c 0
 264.605 -18.0547 202.079 -31.9912 147.085 -29.7314 c 1
 89.8311 -29.7314 38.2285 -14.2881 -7.72461 16.5986 c 0
 -53.6787 45.9785 -80.0449 85.5283 -86.8252 135.248 c 1
 -89.085 172.538 l 1
 -89.085 198.905 -83.0586 232.052 -71.0049 271.979 c 0
 -36.3516 379.705 37.8516 459.183 151.605 510.408 c 1
 128.251 534.515 110.549 560.129 98.4951 587.248 c 2
 96.2354 592.898 l 1
 91.7148 607.965 89.4551 622.654 89.4551 636.969 c 0
 89.4551 658.814 92.4688 678.778 98.4951 696.858 c 0
 111.302 735.278 133.525 774.828 165.165 815.509 c 1
 205.845 860.709 250.669 895.362 299.635 919.469 c 0
 350.108 944.328 403.219 956.759 458.965 956.759 c 0
 590.045 956.759 668.015 922.104 692.875 852.799 c 0
 705.682 821.158 712.085 792.532 712.085 766.919 c 0
 712.085 743.564 707.941 719.459 699.655 694.599 c 0
 687.602 654.672 663.119 616.252 626.205 579.339 c 1
 589.291 544.685 551.249 521.709 512.075 510.408 c 1
 558.781 494.589 587.409 466.715 597.955 426.788 c 0
 603.981 409.462 606.995 389.498 606.995 366.898 c 0
 606.995 342.792 602.475 315.672 593.435 285.538 c 0
 575.355 227.532 542.209 176.683 493.995 132.988 c 1
445.405 590.639 m 1
 468.759 601.938 488.722 618.135 505.295 639.229 c 0
 524.881 663.335 537.312 684.429 542.585 702.509 c 1
 547.105 736.408 l 1
 547.105 751.475 544.091 763.904 538.065 773.698 c 0
 524.505 799.312 494.371 813.248 447.665 815.509 c 1
 399.451 815.509 358.771 803.832 325.625 780.479 c 1
 293.985 760.893 272.139 732.265 260.085 694.599 c 0
 255.565 681.038 253.305 667.479 253.305 653.919 c 0
 253.305 632.825 257.825 613.992 266.865 597.419 c 0
 281.932 573.312 307.545 561.259 343.705 561.259 c 0
 385.139 558.998 419.039 568.792 445.405 590.639 c 1
317.715 166.889 m 1
 332.028 176.683 345.965 192.879 359.525 215.479 c 1
 376.099 238.832 387.775 262.185 394.555 285.538 c 0
 402.089 308.139 405.855 326.595 405.855 340.908 c 0
 405.855 352.962 403.595 364.639 399.075 375.938 c 0
 387.775 413.604 358.395 433.568 310.935 435.828 c 0
 267.241 435.828 227.315 421.139 191.155 391.759 c 0
 161.775 367.652 138.421 330.738 121.095 281.019 c 0
 112.055 252.393 107.535 228.285 107.535 208.698 c 1
 112.055 177.059 l 1
 130.135 141.652 158.762 123.948 197.935 123.948 c 1
 240.875 120.935 280.802 135.248 317.715 166.889 c 1
EndSplineSet
EndChar
StartChar: nine
Encoding: 27 57
OldEncoding: 57
Width: 691
Flags: HW
Fore
-70.4199 220.855 m 1
 110.38 220.855 l 1
 105.86 192.605 l 1
 105.86 180.552 109.626 165.861 117.16 148.535 c 1
 130.72 126.688 149.93 115.765 174.79 115.765 c 0
 246.356 115.765 303.61 145.145 346.55 203.905 c 0
 380.45 251.365 404.557 294.682 418.87 333.855 c 0
 423.39 349.675 425.65 363.611 425.65 375.665 c 2
 425.65 384.705 l 1
 390.996 354.571 351.446 331.595 307 315.775 c 0
 285.906 307.488 264.437 303.345 242.59 303.345 c 0
 219.99 303.345 195.884 304.852 170.27 307.865 c 1
 85.8965 326.698 38.8135 378.679 29.0195 463.805 c 1
 29.0195 495.445 l 2
 29.0195 527.839 36.9297 571.155 52.75 625.395 c 0
 76.1035 698.469 108.496 757.981 149.93 803.935 c 0
 189.856 848.381 237.693 886.049 293.44 916.935 c 0
 346.927 946.315 403.05 961.005 461.81 961.005 c 1
 505.88 956.485 l 1
 529.233 956.485 555.6 949.329 584.98 935.015 c 0
 615.866 919.195 641.48 897.725 661.82 870.605 c 0
 681.406 846.499 691.2 817.871 691.2 784.725 c 2
 691.2 775.685 l 1
 693.46 727.095 l 1
 693.46 658.541 679.523 582.079 651.65 497.705 c 0
 627.544 426.139 597.41 356.079 561.25 287.525 c 0
 526.597 218.972 491.943 165.861 457.29 128.195 c 0
 400.036 62.6553 343.914 20.0918 288.92 0.504883 c 0
 230.914 -19.835 177.804 -30.0049 129.59 -30.0049 c 0
 36.1768 -30.0049 -24.0898 -2.13184 -51.21 53.6152 c 1
 -70.043 88.2686 -79.46 122.921 -79.46 157.575 c 0
 -79.46 180.929 -76.4463 202.021 -70.4199 220.855 c 1
510.4 762.125 m 1
 493.826 789.999 462.187 803.935 415.48 803.935 c 0
 376.307 803.935 334.12 785.479 288.92 748.565 c 1
 256.526 718.432 231.666 677.375 214.34 625.395 c 0
 206.807 599.028 203.04 578.312 203.04 563.245 c 0
 203.04 539.892 208.313 520.305 218.86 504.485 c 0
 237.693 475.858 267.826 461.545 309.26 461.545 c 0
 350.693 461.545 390.244 476.988 427.91 507.875 c 0
 465.576 538.762 492.32 577.935 508.14 625.395 c 0
 517.934 654.775 522.83 683.401 522.83 711.275 c 0
 522.83 735.381 518.687 752.331 510.4 762.125 c 1
EndSplineSet
EndChar
StartChar: colon
Encoding: 28 58
OldEncoding: 58
Width: 375
Flags: HW
Fore
67.8945 11.2949 m 0
 38.5146 11.2949 19.3047 20.7119 10.2646 39.5449 c 1
 4.23828 47.832 1.22461 58.3779 1.22461 71.1846 c 0
 1.22461 81.7314 3.48535 92.6553 8.00488 103.955 c 0
 14.7852 129.568 29.4746 151.039 52.0752 168.365 c 1
 71.6621 187.198 96.8984 196.615 127.785 196.615 c 0
 156.411 196.615 176.375 187.198 187.675 168.365 c 1
 195.961 158.571 200.105 147.271 200.105 134.465 c 0
 200.105 125.425 197.845 115.255 193.325 103.955 c 0
 185.791 79.8486 170.349 58.3779 146.995 39.5449 c 0
 125.901 20.7119 99.5352 11.2949 67.8945 11.2949 c 0
250.955 571.775 m 0
 222.329 571.775 201.988 580.815 189.935 598.895 c 0
 185.415 607.935 183.155 619.611 183.155 633.925 c 1
 187.675 664.435 l 1
 194.455 684.775 209.145 705.491 231.745 726.585 c 1
 253.591 744.665 279.205 753.705 308.585 753.705 c 0
 337.965 753.705 358.682 745.419 370.735 728.845 c 0
 376.762 719.051 379.775 706.621 379.775 691.555 c 1
 375.255 664.435 l 1
 366.969 641.081 351.525 619.235 328.925 598.895 c 1
 306.325 580.815 280.335 571.775 250.955 571.775 c 0
EndSplineSet
EndChar
StartChar: semicolon
Encoding: 29 59
OldEncoding: 59
Width: 424
Flags: HW
Fore
272.385 518.05 m 0
 239.991 518.05 219.275 528.22 210.235 548.56 c 1
 204.209 558.354 201.195 570.783 201.195 585.85 c 1
 205.715 619.75 l 1
 214.755 646.87 231.705 670.977 256.565 692.07 c 0
 279.165 712.41 307.039 722.58 340.185 722.58 c 0
 371.825 722.58 393.295 712.41 404.595 692.07 c 0
 410.621 682.276 413.635 669.847 413.635 654.78 c 0
 413.635 643.48 411.375 631.804 406.855 619.75 c 0
 397.815 593.384 381.619 569.653 358.265 548.56 c 1
 332.651 528.22 304.025 518.05 272.385 518.05 c 0
258.825 120.29 m 0
 236.979 57.0098 198.559 5.40625 143.565 -34.5195 c 0
 84.0518 -75.9531 32.8252 -99.3066 -10.1152 -104.58 c 1
 -14.6348 -71.8096 l 1
 18.5117 -56.7432 47.1387 -42.0537 71.2451 -27.7402 c 0
 93.0908 -13.4268 110.795 8.79688 124.355 38.9297 c 1
 101.755 38.9297 81.0381 46.0869 62.2051 60.4004 c 1
 49.3984 67.9336 42.9951 81.1162 42.9951 99.9502 c 0
 42.9951 112.757 45.6318 125.563 50.9053 138.37 c 0
 59.9453 166.244 76.1416 190.35 99.4951 210.69 c 0
 122.849 229.523 148.085 238.94 175.205 238.94 c 0
 215.885 238.94 242.251 228.017 254.305 206.17 c 0
 261.839 193.363 265.605 178.674 265.605 162.1 c 0
 265.605 150.046 263.345 136.11 258.825 120.29 c 0
EndSplineSet
EndChar
StartChar: less
Encoding: 30 60
OldEncoding: 60
Width: 719
Flags: HW
Fore
-19.46 245.965 m 1
 31.3896 403.035 l 1
 753.46 643.725 l 1
 696.96 471.965 l 1
 237.05 323.935 l 1
 599.78 175.905 l 1
 544.41 5.27539 l 1
 -19.46 245.965 l 1
EndSplineSet
EndChar
StartChar: equal
Encoding: 31 61
OldEncoding: 61
Width: 722
Flags: HW
Fore
99.1797 560.43 m 1
 737.63 560.43 l 1
 686.78 403.36 l 1
 48.3301 403.36 l 1
 99.1797 560.43 l 1
-2.51953 246.29 m 1
 633.67 246.29 l 1
 582.82 83.5703 l 1
 -55.6299 83.5703 l 1
 -2.51953 246.29 l 1
EndSplineSet
EndChar
StartChar: greater
Encoding: 32 62
OldEncoding: 62
Width: 728
Flags: HW
Fore
118.59 643.725 m 1
 681.33 403.035 l 1
 630.48 245.965 l 1
 -89.3301 5.27539 l 1
 -36.2197 175.905 l 1
 427.08 323.935 l 1
 60.96 471.965 l 1
 118.59 643.725 l 1
EndSplineSet
EndChar
StartChar: question
Encoding: 33 63
OldEncoding: 63
Width: 750
Flags: HW
Fore
354.85 260.87 m 1
 195.52 260.87 l 1
 221.134 334.696 251.267 389.69 285.92 425.85 c 1
 320.573 465.023 372.177 504.95 440.73 545.63 c 0
 493.464 575.764 528.87 621.34 546.95 682.36 c 1
 552.224 695.166 554.86 707.597 554.86 719.65 c 0
 554.86 739.99 548.456 757.693 535.65 772.76 c 0
 517.57 794.606 490.826 805.53 455.42 805.53 c 0
 417 805.53 378.956 790.84 341.29 761.46 c 0
 302.87 732.08 274.244 688.764 255.41 631.51 c 1
 78 631.51 l 1
 114.914 745.264 178.193 837.924 267.84 909.49 c 1
 338.653 955.443 416.624 978.42 501.75 978.42 c 0
 552.977 978.42 597.424 970.887 635.09 955.82 c 0
 674.264 940 702.137 919.283 718.71 893.67 c 1
 743.57 860.523 756 820.974 756 775.02 c 0
 756 743.38 750.35 712.494 739.05 682.36 c 1
 723.23 628.874 697.24 581.79 661.08 541.11 c 1
 655.807 533.576 644.13 522.276 626.05 507.21 c 0
 614.75 496.664 600.813 486.494 584.24 476.7 c 1
 571.434 466.153 557.496 457.49 542.43 450.71 c 1
 496.1 421.33 l 2
 445.626 388.184 415.87 367.09 406.83 358.05 c 0
 404.57 355.79 402.687 353.53 401.18 351.27 c 0
 382.347 327.916 366.903 297.784 354.85 260.87 c 1
100.6 -2.41992 m 1
 163.88 189.68 l 1
 360.5 189.68 l 1
 297.22 -2.41992 l 1
 100.6 -2.41992 l 1
EndSplineSet
EndChar
StartChar: at
Encoding: 34 64
OldEncoding: 64
Width: 1207
Flags: HW
Fore
860.215 679.2 m 1
 978.865 679.2 l 1
 740.435 281.44 l 1
 726.875 228.33 l 1
 726.875 222.68 l 2
 726.875 209.874 731.395 200.08 740.435 193.3 c 0
 746.461 190.286 755.501 188.78 767.555 188.78 c 0
 790.909 188.78 812.755 194.054 833.095 204.6 c 1
 864.735 217.406 894.869 235.863 923.495 259.97 c 0
 958.901 291.61 981.125 315.717 990.165 332.29 c 1
 1032.35 378.244 1063.24 432.86 1082.83 496.14 c 0
 1093.37 527.026 1098.64 557.914 1098.64 588.8 c 1
 1100.91 606.88 l 1
 1100.91 637.767 1091.87 670.16 1073.79 704.06 c 0
 1054.2 744.74 1027.83 779.017 994.685 806.89 c 0
 934.419 855.856 849.669 880.34 740.435 880.34 c 0
 709.549 880.34 670.751 876.574 624.045 869.04 c 0
 574.325 860 517.448 835.14 453.415 794.46 c 1
 394.655 759.807 335.895 715.36 277.135 661.12 c 0
 178.448 571.474 109.895 466.384 71.4746 345.85 c 0
 59.4209 308.184 53.3945 275.036 53.3945 246.41 c 2
 53.3945 237.37 l 2
 53.3945 204.977 56.4092 177.104 62.4346 153.75 c 0
 66.9551 137.93 74.4883 117.213 85.0352 91.5996 c 1
 128.729 26.8135 198.411 -18.0098 294.085 -42.8701 c 0
 327.985 -51.9102 367.159 -56.4297 411.605 -56.4297 c 0
 502.759 -56.4297 598.432 -40.2334 698.625 -7.83984 c 1
 703.145 -111.8 l 1
 607.472 -152.48 495.602 -172.82 367.535 -172.82 c 0
 326.102 -172.82 291.448 -170.56 263.575 -166.04 c 0
 209.335 -155.494 171.669 -146.83 150.575 -140.05 c 0
 115.921 -128.75 82.0215 -108.786 48.875 -80.1602 c 0
 9.70117 -48.5195 -21.1846 -10.4766 -43.7852 33.9697 c 0
 -64.8779 73.8965 -76.5547 121.733 -78.8154 177.48 c 1
 -81.0752 213.64 l 1
 -81.0752 255.826 -75.8018 293.116 -65.2549 325.51 c 0
 -49.4346 375.23 -29.4717 422.313 -5.36523 466.76 c 0
 16.4814 508.946 43.6016 550.38 75.9951 591.06 c 1
 109.895 637.767 144.549 676.187 179.955 706.32 c 1
 234.948 760.56 301.995 813.294 381.095 864.52 c 0
 450.401 908.214 528.371 942.113 615.005 966.22 c 0
 670.751 981.286 730.265 988.82 793.545 988.82 c 0
 905.039 988.82 995.438 963.584 1064.75 913.11 c 0
 1170.96 836.27 1224.08 741.35 1224.08 628.35 c 1
 1221.82 591.06 l 1
 1217.29 555.653 1208.63 519.494 1195.83 482.58 c 1
 1176.24 416.286 1143.84 356.02 1098.64 301.78 c 1
 1027.08 211.38 950.991 148.1 870.385 111.94 c 0
 826.691 93.8604 784.129 84.8203 742.695 84.8203 c 0
 716.329 84.8203 689.961 88.5869 663.595 96.1201 c 0
 631.955 105.16 610.485 130.396 599.185 171.83 c 1
 535.151 131.903 490.329 107.42 464.715 98.3799 c 0
 428.555 85.5732 398.421 79.1699 374.315 79.1699 c 0
 353.222 79.1699 326.479 87.833 294.085 105.16 c 0
 262.445 120.227 241.352 143.204 230.805 174.09 c 0
 223.271 198.196 219.505 220.044 219.505 239.63 c 0
 219.505 260.724 223.271 283.7 230.805 308.56 c 1
 252.275 354.89 l 1
 303.501 460.356 376.575 543.6 471.495 604.62 c 0
 558.881 661.874 633.085 690.5 694.105 690.5 c 0
 712.185 690.5 726.875 688.24 738.175 683.72 c 0
 786.389 670.16 811.625 642.286 813.885 600.1 c 1
 860.215 679.2 l 1
416.125 186.52 m 1
 460.571 186.52 501.629 198.573 539.295 222.68 c 0
 585.249 253.566 623.669 291.61 654.555 336.81 c 0
 687.701 385.023 713.315 431.354 731.395 475.8 c 1
 735.915 515.35 l 1
 735.915 553.77 717.459 579.76 680.545 593.32 c 1
 659.075 597.84 l 1
 637.981 597.84 614.251 591.813 587.885 579.76 c 0
 565.285 570.72 538.165 553.77 506.525 528.91 c 1
 474.885 501.79 448.519 473.916 427.425 445.29 c 0
 404.825 412.896 385.615 378.244 369.795 341.33 c 1
 363.769 320.236 360.755 298.767 360.755 276.92 c 1
 365.275 239.63 l 1
 372.055 211.004 389.005 193.3 416.125 186.52 c 1
EndSplineSet
EndChar
StartChar: A
Encoding: 35 65
OldEncoding: 65
Width: 910
Flags: HW
Fore
717.4 959.25 m 1
 733.22 -1.25 l 1
 532.08 -1.25 l 1
 527.56 190.85 l 1
 172.74 190.85 l 1
 43.9199 -1.25 l 1
 -157.22 -1.25 l 1
 488.01 959.25 l 1
 717.4 959.25 l 1
529.82 727.6 m 1
 289.13 354.7 l 1
 534.34 354.7 l 1
 529.82 727.6 l 1
EndSplineSet
EndChar
StartChar: B
Encoding: 36 66
OldEncoding: 66
Width: 896
Flags: HW
Fore
-97.5498 -1.25 m 1
 215.46 959.25 l 1
 640.34 959.25 l 2
 672.733 959.25 712.284 953.224 758.99 941.17 c 1
 798.916 928.363 828.296 909.53 847.13 884.67 c 1
 862.95 867.344 875.004 845.874 883.29 820.26 c 1
 885.55 802.18 l 1
 883.29 767.15 l 1
 876.51 707.26 l 1
 865.21 671.854 846 637.954 818.88 605.56 c 1
 794.02 570.906 760.874 539.267 719.44 510.64 c 1
 742.794 488.794 758.99 460.166 768.03 424.76 c 0
 772.55 402.914 774.81 382.196 774.81 362.61 c 0
 774.81 346.036 772.55 327.956 768.03 308.37 c 0
 753.716 257.144 731.494 210.437 701.36 168.25 c 0
 672.733 129.076 635.443 94.0469 589.49 63.1602 c 0
 524.704 20.2197 439.954 -1.25 335.24 -1.25 c 2
 -97.5498 -1.25 l 1
357.84 795.4 m 1
 286.65 575.05 l 1
 511.52 575.05 l 2
 555.214 575.05 591.374 585.22 620 605.56 c 0
 649.38 625.146 668.59 651.137 677.63 683.53 c 0
 682.15 700.104 684.41 713.286 684.41 723.08 c 0
 684.41 771.294 653.523 795.4 591.75 795.4 c 2
 357.84 795.4 l 1
233.54 411.2 m 1
 152.18 162.6 l 1
 383.83 162.6 l 2
 423.756 162.6 460.67 170.51 494.57 186.33 c 0
 530.73 202.903 557.85 239.816 575.93 297.07 c 0
 581.956 314.396 584.97 330.594 584.97 345.66 c 0
 584.97 366 578.943 379.937 566.89 387.47 c 0
 545.044 403.29 512.65 411.2 469.71 411.2 c 2
 233.54 411.2 l 1
EndSplineSet
EndChar
StartChar: C
Encoding: 37 67
OldEncoding: 67
Width: 891
Flags: HW
Fore
609.76 328.562 m 1
 799.6 328.562 l 1
 783.026 281.855 754.4 233.266 713.72 182.792 c 0
 676.054 134.578 632.736 94.2754 583.77 61.8818 c 0
 540.076 34.7617 492.24 14.0449 440.26 -0.267578 c 0
 375.474 -20.6084 319.35 -30.7783 271.89 -30.7783 c 0
 166.424 -33.0381 86.9463 -3.6582 33.46 57.3623 c 0
 -13.2471 110.849 -36.5996 180.532 -36.5996 266.412 c 2
 -36.5996 302.572 l 1
 -35.0938 338.732 -22.6631 395.232 0.69043 472.072 c 1
 25.5498 545.898 53.4238 606.918 84.3096 655.132 c 0
 216.144 867.572 389.786 973.792 605.24 973.792 c 0
 709.2 973.792 787.924 949.309 841.41 900.342 c 0
 888.87 857.402 912.6 801.655 912.6 733.102 c 0
 912.6 702.216 908.08 669.068 899.04 633.662 c 1
 709.2 633.662 l 1
 713.72 670.952 l 1
 709.2 708.242 l 1
 704.68 735.362 687.73 759.092 658.35 779.432 c 1
 628.97 802.032 584.9 812.202 526.14 809.942 c 0
 488.474 809.942 444.403 794.498 393.93 763.612 c 1
 350.99 733.479 314.076 698.072 283.19 657.392 c 0
 258.33 622.738 229.704 566.992 197.31 490.152 c 1
 186.01 450.979 176.97 414.818 170.19 381.672 c 0
 165.67 356.059 163.41 332.706 163.41 311.612 c 2
 163.41 289.012 l 1
 174.71 224.979 202.206 180.155 245.9 154.542 c 1
 267.746 143.996 291.854 138.722 318.22 138.722 c 0
 336.3 138.722 364.927 142.488 404.1 150.021 c 1
 466.626 165.088 512.58 189.195 541.96 222.342 c 0
 566.066 249.462 588.666 284.868 609.76 328.562 c 1
EndSplineSet
EndChar
StartChar: D
Encoding: 38 68
OldEncoding: 68
Width: 896
Flags: HW
Fore
-104.265 -1.25 m 1
 207.615 959.25 l 1
 655.095 959.25 l 2
 691.255 959.25 725.155 952.094 756.795 937.78 c 0
 788.435 923.467 815.932 899.736 839.285 866.59 c 0
 862.639 834.196 878.835 790.126 887.875 734.38 c 0
 890.135 725.34 891.265 710.65 891.265 690.31 c 0
 891.265 642.097 881.095 585.974 860.755 521.94 c 0
 835.895 446.606 805.009 377.3 768.095 314.02 c 0
 731.182 253.754 694.269 205.164 657.355 168.25 c 1
 612.909 120.79 557.915 79.7334 492.375 45.0801 c 0
 434.369 14.1934 379.751 -1.25 328.525 -1.25 c 2
 -104.265 -1.25 l 1
351.125 795.4 m 1
 145.465 162.6 l 1
 302.535 162.6 l 2
 401.222 162.6 484.841 205.916 553.395 292.55 c 1
 589.555 341.517 622.701 409.316 652.835 495.95 c 1
 670.915 556.97 679.955 607.066 679.955 646.24 c 0
 679.955 669.594 677.695 689.934 673.175 707.26 c 0
 661.875 740.406 644.925 763.384 622.325 776.19 c 1
 592.945 788.996 562.059 795.4 529.665 795.4 c 2
 351.125 795.4 l 1
EndSplineSet
EndChar
StartChar: E
Encoding: 39 69
OldEncoding: 69
Width: 824
Flags: HW
Fore
208.965 959.25 m 1
 903.915 959.25 l 1
 850.805 795.4 l 1
 352.475 795.4 l 1
 281.285 575.05 l 1
 741.195 575.05 l 1
 688.085 411.2 l 1
 228.175 411.2 l 1
 146.815 162.6 l 1
 667.745 162.6 l 1
 614.635 -1.25 l 1
 -102.915 -1.25 l 1
 208.965 959.25 l 1
EndSplineSet
EndChar
StartChar: F
Encoding: 40 70
OldEncoding: 70
Width: 754
Flags: HW
Fore
204.2 959.25 m 1
 877.68 959.25 l 1
 824.57 795.4 l 1
 347.71 795.4 l 1
 276.52 575.05 l 1
 698.01 575.05 l 1
 643.77 411.2 l 1
 223.41 411.2 l 1
 88.9404 -1.25 l 1
 -107.68 -1.25 l 1
 204.2 959.25 l 1
EndSplineSet
EndChar
StartChar: G
Encoding: 41 71
OldEncoding: 71
Width: 963
Flags: HW
Fore
455 351.177 m 1
 505.85 516.156 l 1
 890.05 516.156 l 1
 720.55 -4.77344 l 1
 605.29 -4.77344 l 1
 618.85 115.007 l 1
 572.896 76.5869 542.01 52.8564 526.19 43.8164 c 1
 502.084 24.9834 465.924 8.0332 417.71 -7.0332 c 0
 362.716 -25.1133 309.606 -33.0234 258.38 -30.7637 c 0
 225.233 -30.7637 190.204 -24.3604 153.29 -11.5537 c 1
 124.664 -4.01953 103.193 5.01953 88.8799 15.5664 c 0
 72.3066 29.127 57.6162 43.0635 44.8096 57.377 c 1
 34.2637 73.1963 25.2236 84.873 17.6904 92.4062 c 1
 -13.9502 140.62 -30.9004 196.743 -33.1602 260.776 c 1
 -33.1602 284.507 l 2
 -33.1602 341.761 -22.6133 404.287 -1.51953 472.087 c 0
 32.3799 576.801 86.6201 670.967 161.2 754.587 c 1
 238.04 843.48 325.05 906.007 422.23 942.167 c 0
 477.977 963.261 542.764 973.807 616.59 973.807 c 0
 676.856 973.807 731.474 967.026 780.44 953.467 c 0
 827.9 939.153 866.696 911.28 896.83 869.847 c 1
 927.716 823.141 943.16 773.797 943.16 721.816 c 0
 943.16 699.971 940.9 677.747 936.38 655.146 c 1
 755.58 655.146 l 1
 755.58 668.707 l 2
 755.58 715.413 740.137 750.066 709.25 772.667 c 0
 673.844 799.033 628.267 812.217 572.52 812.217 c 0
 516.02 812.217 453.494 794.513 384.94 759.106 c 1
 340.494 728.221 301.32 686.41 267.42 633.677 c 0
 238.04 590.736 210.92 536.12 186.06 469.826 c 1
 170.994 421.613 163.46 378.297 163.46 339.877 c 1
 165.72 302.587 l 1
 183.8 198.627 237.664 140.997 327.31 129.696 c 1
 426.75 129.696 509.24 159.83 574.78 220.097 c 1
 619.227 256.257 651.62 299.95 671.96 351.177 c 1
 455 351.177 l 1
EndSplineSet
EndChar
StartChar: H
Encoding: 42 72
OldEncoding: 72
Width: 892
Flags: HW
Fore
-117.4 -1.25 m 1
 192.22 959.25 l 1
 388.84 959.25 l 1
 273.58 597.65 l 1
 653.26 597.65 l 1
 768.52 959.25 l 1
 967.4 959.25 l 1
 655.52 -1.25 l 1
 458.9 -1.25 l 1
 600.15 433.8 l 1
 220.47 433.8 l 1
 76.96 -1.25 l 1
 -117.4 -1.25 l 1
EndSplineSet
EndChar
StartChar: I
Encoding: 43 73
OldEncoding: 73
Width: 343
Flags: HW
Fore
416.12 959.25 m 1
 104.24 -1.25 l 1
 -90.1201 -1.25 l 1
 219.5 959.25 l 1
 416.12 959.25 l 1
EndSplineSet
EndChar
StartChar: J
Encoding: 44 74
OldEncoding: 74
Width: 688
Flags: HW
Fore
561.52 961.021 m 1
 758.14 961.021 l 1
 519.71 229.911 l 2
 499.37 166.631 458.313 110.131 396.54 60.4111 c 0
 326.48 2.4043 245.496 -27.7295 153.59 -29.9893 c 0
 74.4902 -32.249 12.7168 -20.5723 -31.7305 5.04102 c 0
 -56.5898 20.8604 -73.54 41.5771 -82.5801 67.1904 c 0
 -91.6201 89.0371 -96.1396 113.145 -96.1396 139.511 c 2
 -96.1396 150.811 l 1
 -93.127 190.737 -87.8535 222.377 -80.3203 245.73 c 2
 -45.29 354.211 l 1
 151.33 354.211 l 1
 120.82 257.031 l 2
 114.794 238.951 111.78 220.494 111.78 201.661 c 1
 114.04 174.541 l 1
 118.56 147.421 144.174 134.991 190.88 137.251 c 0
 227.794 137.251 257.927 148.927 281.28 172.281 c 0
 303.126 194.127 318.57 217.857 327.61 243.471 c 1
 561.52 961.021 l 1
EndSplineSet
EndChar
StartChar: K
Encoding: 45 75
OldEncoding: 75
Width: 890
Flags: HW
Fore
-115.415 -1.25 m 1
 196.465 959.25 l 1
 393.085 959.25 l 1
 257.485 537.76 l 1
 770.505 959.25 l 1
 1004.42 959.25 l 1
 488.005 542.28 l 1
 730.955 -1.25 l 1
 492.525 -1.25 l 1
 319.635 415.72 l 1
 180.645 306.11 l 1
 81.2051 -1.25 l 1
 -115.415 -1.25 l 1
EndSplineSet
EndChar
StartChar: L
Encoding: 46 76
OldEncoding: 76
Width: 769
Flags: HW
Fore
225.995 959.25 m 1
 426.005 959.25 l 1
 166.105 162.6 l 1
 624.885 162.6 l 1
 571.775 -1.25 l 1
 -85.8848 -1.25 l 1
 225.995 959.25 l 1
EndSplineSet
EndChar
StartChar: M
Encoding: 47 77
OldEncoding: 77
Width: 1032
Flags: HW
Fore
433.435 -1.25 m 1
 234.555 -1.25 l 1
 318.175 776.19 l 1
 66.1846 -1.25 l 1
 -132.695 -1.25 l 1
 179.185 959.25 l 1
 466.205 959.25 l 1
 408.575 221.36 l 1
 826.675 959.25 l 1
 1113.7 959.25 l 1
 804.075 -1.25 l 1
 605.195 -1.25 l 1
 854.925 776.19 l 1
 433.435 -1.25 l 1
EndSplineSet
EndChar
StartChar: N
Encoding: 48 78
OldEncoding: 78
Width: 892
Flags: HW
Fore
191.96 959.25 m 1
 386.32 959.25 l 1
 560.34 299.33 l 1
 775.04 959.25 l 1
 971.66 959.25 l 1
 659.78 -1.25 l 1
 465.42 -1.25 l 1
 293.66 667.71 l 1
 76.7002 -1.25 l 1
 -117.66 -1.25 l 1
 191.96 959.25 l 1
EndSplineSet
EndChar
StartChar: O
Encoding: 49 79
OldEncoding: 79
Width: 963
Flags: HW
Fore
919.04 471.935 m 0
 897.946 406.395 861.786 336.711 810.56 262.885 c 0
 760.086 189.059 707.73 131.429 653.49 89.9951 c 0
 550.284 9.38867 430.504 -30.915 294.15 -30.915 c 0
 157.044 -30.915 62.876 9.38867 11.6504 89.9951 c 0
 -16.2236 135.195 -31.29 192.825 -33.5498 262.885 c 1
 -33.5498 288.875 l 2
 -33.5498 349.895 -23.7568 410.915 -4.16992 471.935 c 0
 22.1963 551.035 57.6035 621.095 102.05 682.115 c 0
 152.523 754.435 205.256 812.441 260.25 856.135 c 1
 365.716 935.988 485.874 975.915 620.72 975.915 c 0
 656.126 975.915 693.794 972.148 733.72 964.615 c 0
 772.14 955.575 804.534 941.639 830.9 922.805 c 1
 858.02 907.738 881.374 885.515 900.96 856.135 c 0
 931.094 810.182 947.29 752.175 949.55 682.115 c 1
 949.55 659.515 l 2
 949.55 595.481 939.38 532.955 919.04 471.935 c 0
349.52 140.845 m 0
 419.58 140.845 485.496 162.315 547.27 205.255 c 1
 588.704 236.142 624.863 274.185 655.75 319.385 c 1
 688.896 373.625 713.38 424.475 729.2 471.935 c 0
 746.526 526.175 755.19 577.025 755.19 624.485 c 0
 752.93 674.205 740.5 711.871 717.9 737.485 c 1
 683.246 781.179 632.396 803.025 565.35 803.025 c 0
 494.536 803.025 428.244 781.179 366.47 737.485 c 0
 328.05 711.119 292.644 674.205 260.25 626.745 c 0
 226.35 576.271 201.49 524.669 185.67 471.935 c 0
 170.604 425.981 163.07 379.651 163.07 332.945 c 2
 163.07 321.645 l 2
 163.07 271.171 172.863 232.375 192.45 205.255 c 0
 226.35 162.315 278.706 140.845 349.52 140.845 c 0
EndSplineSet
EndChar
StartChar: P
Encoding: 50 80
OldEncoding: 80
Width: 827
Flags: HW
Fore
-104.9 -1.25 m 1
 206.98 959.25 l 1
 635.25 959.25 l 2
 694.01 959.25 744.86 949.834 787.8 931 c 1
 833.754 914.426 860.12 872.24 866.9 804.44 c 1
 866.9 785.23 l 2
 866.9 748.316 859.366 706.884 844.3 660.93 c 0
 820.946 590.87 796.086 541.526 769.72 512.9 c 1
 679.32 398.394 568.956 341.14 438.63 341.14 c 2
 204.72 341.14 l 1
 93.9805 -1.25 l 1
 -104.9 -1.25 l 1
352.75 795.4 m 1
 257.83 506.12 l 1
 480.44 506.12 l 2
 525.64 506.12 570.464 532.863 614.91 586.35 c 1
 632.99 621.38 l 1
 640.523 634.187 647.68 650.384 654.46 669.97 c 0
 658.98 681.27 662.746 698.22 665.76 720.82 c 1
 663.5 770.54 629.6 795.4 564.06 795.4 c 2
 352.75 795.4 l 1
EndSplineSet
EndChar
StartChar: Q
Encoding: 51 81
OldEncoding: 81
Width: 961
Flags: HW
Fore
714.47 136.405 m 1
 786.79 36.9648 l 1
 650.06 -69.2549 l 1
 573.22 36.9648 l 1
 485.834 -6.72852 395.81 -28.5752 303.15 -28.5752 c 0
 166.796 -28.5752 73.3838 11.7285 22.9102 92.335 c 1
 -7.22363 136.028 -23.4199 192.905 -25.6797 262.965 c 1
 -25.6797 286.695 l 2
 -25.6797 350.729 -15.8867 413.255 3.7002 474.275 c 1
 32.3262 554.881 68.8633 625.695 113.31 686.715 c 1
 159.264 753.762 211.62 811.015 270.38 858.475 c 1
 373.586 938.329 492.99 978.255 628.59 978.255 c 0
 696.39 978.255 753.644 968.461 800.35 948.875 c 0
 850.823 926.275 886.983 896.142 908.83 858.475 c 0
 938.21 811.769 955.16 753.762 959.68 684.455 c 1
 959.68 668.635 l 2
 959.68 606.861 948.756 542.075 926.91 474.275 c 0
 904.31 403.461 876.06 342.441 842.16 291.215 c 0
 804.494 233.209 761.93 181.605 714.47 136.405 c 1
476.04 168.045 m 1
 407.11 260.705 l 1
 546.1 370.315 l 1
 619.55 265.225 l 1
 672.284 323.985 711.834 393.669 738.2 474.275 c 0
 753.267 518.722 760.8 568.065 760.8 622.305 c 2
 760.8 629.085 l 1
 758.54 676.545 746.863 713.459 725.77 739.825 c 1
 696.39 783.519 645.54 805.365 573.22 805.365 c 0
 502.406 805.365 436.113 783.519 374.34 739.825 c 0
 338.18 713.459 303.526 675.791 270.38 626.825 c 0
 241 583.885 214.634 533.035 191.28 474.275 c 1
 177.72 426.062 170.94 380.485 170.94 337.545 c 2
 170.94 323.985 l 1
 173.2 272.005 183.746 233.209 202.58 207.595 c 0
 236.48 164.655 288.46 143.185 358.52 143.185 c 0
 397.693 143.185 436.866 151.472 476.04 168.045 c 1
EndSplineSet
EndChar
StartChar: R
Encoding: 52 82
OldEncoding: 82
Width: 895
Flags: HW
Fore
-103.435 -1.25 m 1
 208.445 959.25 l 1
 744.065 959.25 l 2
 771.938 959.25 800.188 953.224 828.815 941.17 c 0
 853.675 929.87 875.521 912.544 894.355 889.19 c 1
 906.409 867.344 912.435 843.613 912.435 818 c 2
 912.435 806.7 l 1
 910.175 769.41 l 1
 905.655 729.86 l 1
 896.615 692.57 l 1
 879.289 651.89 866.858 625.146 859.325 612.34 c 0
 836.725 574.674 811.865 545.294 784.745 524.2 c 0
 762.898 505.366 727.491 484.65 678.525 462.05 c 1
 704.515 442.84 l 2
 716.568 433.8 724.855 426.267 729.375 420.24 c 0
 739.169 407.434 744.818 395.004 746.325 382.95 c 1
 748.585 359.22 l 1
 744.065 327.58 l 1
 715.815 223.62 l 1
 683.045 114.01 l 1
 677.019 99.6963 674.005 86.1367 674.005 73.3301 c 1
 676.265 63.1602 l 2
 678.525 51.8604 683.799 42.0664 692.085 33.7803 c 1
 683.045 -1.25 l 1
 470.605 -1.25 l 1
 468.345 33.7803 l 1
 468.345 54.873 470.605 73.3301 475.125 89.1504 c 1
 535.015 281.25 l 1
 539.535 314.02 l 1
 537.275 336.62 l 1
 528.988 352.44 519.195 363.363 507.895 369.39 c 0
 492.829 375.416 473.241 378.43 449.135 378.43 c 2
 218.615 378.43 l 1
 95.4453 -1.25 l 1
 -103.435 -1.25 l 1
354.215 795.4 m 1
 271.725 542.28 l 1
 539.535 542.28 l 2
 566.655 542.28 597.541 554.71 632.195 579.57 c 1
 663.835 604.43 687.941 639.836 704.515 685.79 c 0
 710.541 700.856 713.555 715.546 713.555 729.86 c 0
 713.555 773.554 682.669 795.4 620.895 795.4 c 2
 354.215 795.4 l 1
EndSplineSet
EndChar
StartChar: S
Encoding: 53 83
OldEncoding: 83
Width: 827
Flags: HW
Fore
818.505 666.555 m 1
 628.665 666.555 l 1
 633.185 680.115 635.445 694.051 635.445 708.365 c 1
 630.925 740.005 l 1
 626.405 762.605 611.715 782.191 586.855 798.765 c 1
 561.995 812.325 527.341 819.105 482.895 819.105 c 0
 373.661 819.105 304.355 782.191 274.975 708.365 c 1
 266.688 681.999 262.545 665.801 262.545 659.775 c 0
 262.545 651.488 263.675 646.592 265.935 645.085 c 1
 271.209 632.278 283.262 621.731 302.095 613.445 c 1
 304.355 605.911 319.799 598.755 348.425 591.975 c 1
 361.231 585.949 394.379 578.415 447.865 569.375 c 1
 524.705 552.425 l 1
 624.898 534.345 689.685 503.081 719.065 458.635 c 0
 734.131 436.035 741.665 408.915 741.665 377.275 c 0
 741.665 349.401 736.392 320.021 725.845 289.135 c 0
 709.271 238.661 682.905 190.825 646.745 145.625 c 1
 612.845 100.425 572.165 64.2646 524.705 37.1445 c 0
 444.852 -7.30176 336.749 -30.6553 200.395 -32.915 c 0
 171.769 -32.915 134.855 -26.5117 89.6553 -13.7051 c 0
 42.9482 -1.65137 9.04883 15.2988 -12.0449 37.1445 c 1
 -45.1914 66.5254 -65.1553 103.438 -71.9346 147.885 c 0
 -75.7012 171.991 -77.585 191.201 -77.585 205.515 c 0
 -77.585 234.142 -74.1953 260.509 -67.415 284.615 c 1
 124.685 284.615 l 1
 119.411 268.795 116.775 254.858 116.775 242.805 c 0
 116.775 222.465 122.425 203.255 133.725 185.175 c 0
 158.585 148.262 212.448 129.805 295.315 129.805 c 0
 324.695 129.805 355.581 134.325 387.975 143.365 c 1
 417.355 149.392 442.969 159.562 464.815 173.875 c 0
 493.441 193.461 513.405 221.711 524.705 258.625 c 1
 529.225 295.915 l 1
 529.225 312.488 526.211 325.671 520.185 335.465 c 0
 511.145 350.531 494.948 362.961 471.595 372.755 c 0
 433.175 386.315 399.275 395.355 369.895 399.875 c 2
 258.025 421.345 l 2
 220.358 429.631 193.615 437.165 177.795 443.945 c 0
 150.675 453.738 126.568 469.935 105.475 492.535 c 0
 85.8887 513.629 74.2109 542.255 70.4453 578.415 c 1
 70.4453 601.015 l 2
 70.4453 636.421 77.6016 672.959 91.915 710.625 c 0
 124.309 788.972 178.925 853.759 255.765 904.985 c 1
 329.591 950.938 423.759 973.915 538.265 973.915 c 0
 601.545 973.915 657.291 967.135 705.505 953.575 c 0
 761.251 938.509 800.425 905.361 823.025 854.135 c 0
 832.065 835.301 836.585 809.688 836.585 777.295 c 0
 836.585 745.655 830.559 708.741 818.505 666.555 c 1
EndSplineSet
EndChar
StartChar: T
Encoding: 54 84
OldEncoding: 84
Width: 743
Flags: HW
Fore
114.855 959.25 m 1
 883.255 959.25 l 1
 829.015 795.4 l 1
 552.165 795.4 l 1
 290.005 -1.25 l 1
 93.3848 -1.25 l 1
 353.285 795.4 l 1
 61.7451 795.4 l 1
 114.855 959.25 l 1
EndSplineSet
EndChar
StartChar: U
Encoding: 55 85
OldEncoding: 85
Width: 887
Flags: HW
Fore
765.45 961.005 m 1
 962.07 961.005 l 1
 747.37 298.825 l 2
 702.17 160.211 610.264 63.7852 471.65 9.54492 c 0
 402.344 -16.8213 333.036 -30.0049 263.73 -30.0049 c 0
 201.204 -30.0049 142.443 -19.082 87.4502 2.76465 c 1
 9.10352 55.498 -30.0703 121.791 -30.0703 201.645 c 0
 -30.0703 228.765 -24.043 261.159 -11.9902 298.825 c 2
 200.45 961.005 l 1
 400.46 961.005 l 1
 184.63 296.565 l 1
 180.11 284.512 177.85 266.809 177.85 243.455 c 0
 177.85 220.855 180.863 202.398 186.89 188.085 c 0
 202.71 157.198 245.273 141.755 314.58 141.755 c 0
 385.394 141.755 438.504 157.198 473.91 188.085 c 0
 510.07 217.465 535.684 253.625 550.75 296.565 c 1
 765.45 961.005 l 1
EndSplineSet
EndChar
StartChar: V
Encoding: 56 86
OldEncoding: 86
Width: 807
Flags: HW
Fore
741.245 959.25 m 1
 940.125 959.25 l 1
 301.675 -1.25 l 1
 132.175 -1.25 l 1
 120.875 959.25 l 1
 317.495 959.25 l 1
 294.895 234.92 l 1
 741.245 959.25 l 1
EndSplineSet
EndChar
StartChar: W
Encoding: 57 87
OldEncoding: 87
Width: 1154
Flags: HW
Fore
87.0498 959.25 m 1
 297.23 959.25 l 1
 211.35 239.44 l 1
 588.77 959.25 l 1
 794.43 959.25 l 1
 701.77 230.4 l 1
 1088.23 959.25 l 1
 1295.02 959.25 l 1
 716.46 -1.25 l 1
 537.92 -1.25 l 1
 617.02 729.86 l 1
 220.39 -1.25 l 1
 42.9805 -1.25 l 1
 87.0498 959.25 l 1
EndSplineSet
EndChar
StartChar: X
Encoding: 58 88
OldEncoding: 88
Width: 826
Flags: HW
Fore
148.05 959.25 m 1
 381.96 959.25 l 1
 448.63 648.5 l 1
 726.61 959.25 l 1
 958.26 959.25 l 1
 509.65 489.17 l 1
 653.16 -1.25 l 1
 421.51 -1.25 l 1
 344.67 325.32 l 1
 55.3896 -1.25 l 1
 -176.26 -1.25 l 1
 284.78 482.39 l 1
 148.05 959.25 l 1
EndSplineSet
EndChar
StartChar: Y
Encoding: 59 89
OldEncoding: 89
Width: 807
Flags: HW
Fore
721.645 959.25 m 1
 944.255 959.25 l 1
 440.275 354.7 l 1
 323.885 -1.25 l 1
 127.265 -1.25 l 1
 242.525 354.7 l 1
 122.745 959.25 l 1
 343.095 959.25 l 1
 405.245 544.54 l 1
 721.645 959.25 l 1
EndSplineSet
EndChar
StartChar: Z
Encoding: 60 90
OldEncoding: 90
Width: 758
Flags: HW
Fore
150.405 959.25 m 1
 872.475 959.25 l 1
 819.365 795.4 l 1
 123.285 162.6 l 1
 613.705 162.6 l 1
 560.595 -1.25 l 1
 -161.475 -1.25 l 1
 -108.365 162.6 l 1
 585.455 792.01 l 1
 97.2949 795.4 l 1
 150.405 959.25 l 1
EndSplineSet
EndChar
StartChar: bracketleft
Encoding: 61 91
OldEncoding: 91
Width: 408
Flags: HW
Fore
534.335 842.38 m 1
 388.565 842.38 l 1
 75.5547 -115.86 l 1
 221.325 -115.86 l 1
 174.995 -252.59 l 1
 -139.145 -252.59 l 1
 258.615 974.59 l 1
 576.145 974.59 l 1
 534.335 842.38 l 1
EndSplineSet
EndChar
StartChar: backslash
Encoding: 62 92
OldEncoding: 92
Width: 343
Flags: HW
Fore
120.06 934.25 m 1
 219.5 934.25 l 1
 203.68 -26.25 l 1
 106.5 -26.25 l 1
 120.06 934.25 l 1
EndSplineSet
EndChar
StartChar: bracketright
Encoding: 63 93
OldEncoding: 93
Width: 416
Flags: HW
Fore
159.805 842.38 m 1
 201.615 974.59 l 1
 520.275 974.59 l 1
 122.515 -252.59 l 1
 -197.275 -252.59 l 1
 -153.205 -115.86 l 1
 -5.1748 -115.86 l 1
 305.575 842.38 l 1
 159.805 842.38 l 1
EndSplineSet
EndChar
StartChar: asciicircum
Encoding: 64 94
OldEncoding: 94
Width: 733
Flags: HW
Fore
-42.71 336.76 m 1
 357.31 897.24 l 1
 522.29 897.24 l 1
 560.71 336.76 l 1
 412.68 336.76 l 1
 390.08 731.13 l 1
 105.32 336.76 l 1
 -42.71 336.76 l 1
EndSplineSet
EndChar
StartChar: underscore
Encoding: 65 95
OldEncoding: 95
Width: 689
Flags: HW
Fore
733.255 -92.7354 m 1
 702.745 -184.265 l 1
 -88.2549 -184.265 l 1
 -57.7451 -92.7354 l 1
 733.255 -92.7354 l 1
EndSplineSet
EndChar
StartChar: grave
Encoding: 66 96
OldEncoding: 96
Width: 291
Flags: HW
Fore
7.79004 696.825 m 0
 28.1299 760.105 66.5498 811.709 123.05 851.635 c 0
 182.563 894.575 233.414 917.929 275.6 921.695 c 1
 280.12 888.925 l 1
 237.934 870.092 209.307 855.401 194.24 844.855 c 0
 174.653 832.049 156.196 809.825 138.87 778.185 c 1
 163.73 778.185 185.576 771.028 204.41 756.715 c 0
 216.464 749.182 222.49 736.375 222.49 718.295 c 0
 222.49 705.488 220.23 692.305 215.71 678.745 c 0
 207.424 653.885 191.227 629.778 167.12 606.425 c 1
 143.014 588.345 117.4 579.305 90.2803 579.305 c 0
 50.3535 579.305 24.3633 589.852 12.3096 610.945 c 0
 4.02344 623.751 -0.120117 638.441 -0.120117 655.015 c 0
 -0.120117 667.821 2.5166 681.759 7.79004 696.825 c 0
EndSplineSet
EndChar
StartChar: a
Encoding: 67 97
OldEncoding: 97
Width: 692
Flags: HW
Fore
537.43 14.0898 m 1
 343.07 14.0898 l 1
 338.55 20.8701 336.29 30.2871 336.29 42.3398 c 0
 336.29 56.6533 339.304 70.9668 345.33 85.2803 c 1
 311.43 59.667 273.01 36.6904 230.07 16.3496 c 0
 180.35 -5.49707 123.097 -16.4199 58.3096 -16.4199 c 1
 -29.8301 -6.62695 -73.9004 35.1836 -73.9004 109.01 c 0
 -73.9004 136.13 -67.4971 167.77 -54.6904 203.93 c 0
 -33.5967 263.443 -1.20312 312.786 42.4902 351.96 c 0
 85.4297 390.38 146.073 415.994 224.42 428.8 c 1
 283.934 431.06 349.097 441.606 419.91 460.44 c 1
 455.316 476.26 479.8 503.38 493.36 541.8 c 1
 495.62 555.36 l 1
 495.62 570.426 490.347 582.104 479.8 590.39 c 0
 463.98 600.937 434.6 606.21 391.66 606.21 c 0
 342.693 603.95 308.04 592.65 287.7 572.31 c 0
 263.594 550.464 245.89 523.344 234.59 490.95 c 1
 58.3096 490.95 l 1
 116.316 655.93 242.124 738.42 435.73 738.42 c 0
 505.79 738.42 558.9 729.756 595.06 712.43 c 0
 646.286 689.83 671.9 650.656 671.9 594.91 c 0
 671.9 570.05 667.004 542.93 657.21 513.55 c 2
 530.65 122.57 l 1
 526.13 93.1904 l 1
 526.13 74.3564 532.156 56.6533 544.21 40.0801 c 1
 537.43 14.0898 l 1
416.52 310.15 m 1
 431.21 349.7 l 1
 407.856 339.906 372.45 330.49 324.99 321.45 c 1
 248.15 312.41 l 2
 223.29 310.15 199.184 300.356 175.83 283.03 c 0
 153.23 264.196 138.916 243.856 132.89 222.01 c 1
 130.63 197.15 l 1
 130.63 192.63 l 2
 130.63 180.576 132.89 171.16 137.41 164.38 c 0
 141.93 155.34 151.724 148.56 166.79 144.04 c 0
 181.856 139.52 203.704 137.26 232.33 137.26 c 1
 285.816 144.04 326.496 163.25 354.37 194.89 c 1
 379.23 220.504 399.946 258.924 416.52 310.15 c 1
EndSplineSet
EndChar
StartChar: b
Encoding: 68 98
OldEncoding: 98
Width: 765
Flags: HW
Fore
-109.93 0.504883 m 1
 201.95 961.005 l 1
 382.75 961.005 l 1
 270.88 616.355 l 1
 330.394 688.675 410.624 724.835 511.57 724.835 c 0
 628.336 722.575 692.37 669.465 703.67 565.505 c 1
 705.93 512.395 l 1
 705.93 454.389 698.396 402.408 683.33 356.455 c 0
 656.21 280.369 614.4 206.541 557.9 134.975 c 0
 530.78 98.8154 499.14 67.1748 462.98 40.0547 c 1
 435.86 17.4551 401.96 -0.248047 361.28 -13.0547 c 0
 328.134 -24.3555 289.714 -30.0049 246.02 -30.0049 c 0
 173.7 -27.7451 123.604 6.15527 95.7305 71.6953 c 1
 72 0.504883 l 1
 -109.93 0.504883 l 1
409.87 565.505 m 0
 358.644 565.505 309.3 538.385 261.84 484.145 c 0
 226.434 441.959 200.443 395.629 183.87 345.155 c 0
 172.57 315.021 166.92 282.629 166.92 247.975 c 1
 171.44 206.165 l 1
 183.494 154.185 215.887 128.195 268.62 128.195 c 0
 325.12 128.195 374.464 154.185 416.65 206.165 c 0
 450.55 246.845 476.164 293.175 493.49 345.155 c 1
 504.036 383.575 509.31 415.215 509.31 440.075 c 1
 504.79 484.145 l 1
 502.53 512.771 492.736 533.488 475.41 546.295 c 1
 453.563 559.102 431.716 565.505 409.87 565.505 c 0
EndSplineSet
EndChar
StartChar: c
Encoding: 69 99
OldEncoding: 99
Width: 688
Flags: HW
Fore
677.235 460.438 m 1
 500.955 460.438 l 1
 500.955 490.949 l 2
 500.955 523.343 495.682 544.812 485.135 555.358 c 0
 467.809 571.179 439.935 579.089 401.515 579.089 c 0
 341.249 581.349 288.139 546.695 242.185 475.129 c 1
 230.885 451.398 l 1
 209.415 409.589 l 1
 189.075 354.219 l 1
 177.021 318.812 169.865 289.433 167.605 266.079 c 1
 167.605 243.479 l 2
 167.605 205.059 174.762 178.692 189.075 164.379 c 0
 204.895 148.559 228.625 139.519 260.265 137.259 c 1
 294.919 137.259 325.052 144.792 350.665 159.858 c 0
 378.539 175.679 407.919 210.332 438.805 263.818 c 1
 612.825 263.818 l 1
 597.005 217.865 570.639 177.185 533.725 141.778 c 0
 488.525 97.332 453.871 66.4453 429.765 49.1191 c 0
 397.371 27.2725 364.225 11.0752 330.325 0.52832 c 0
 291.905 -10.7715 248.589 -16.4209 200.375 -16.4209 c 0
 131.821 -18.6816 79.4648 -3.99121 43.3047 27.6484 c 0
 8.65137 57.7822 -13.9482 95.0723 -24.4951 139.519 c 0
 -29.0146 159.858 -31.2754 181.329 -31.2754 203.929 c 0
 -31.2754 224.269 -29.0146 243.479 -24.4951 261.559 c 1
 -22.9883 280.393 -14.3252 312.785 1.49512 358.738 c 1
 22.5879 428.799 52.7217 488.312 91.8945 537.278 c 0
 141.615 599.053 183.049 643.122 216.195 669.488 c 0
 256.875 699.622 294.165 718.079 328.065 724.858 c 0
 370.251 733.898 412.438 738.419 454.625 738.419 c 0
 538.245 740.679 597.005 727.495 630.905 698.869 c 1
 660.285 679.282 677.235 643.122 681.755 590.389 c 1
 686.275 535.019 l 1
 686.275 504.133 683.262 479.272 677.235 460.438 c 1
EndSplineSet
EndChar
StartChar: d
Encoding: 70 100
OldEncoding: 100
Width: 755
Flags: HW
Fore
829.61 961.033 m 1
 517.73 -3.9873 l 1
 332.41 -3.9873 l 1
 355.01 71.7227 l 1
 324.876 40.083 288.716 15.5996 246.53 -1.72754 c 0
 202.084 -20.5605 166.677 -29.9775 140.31 -29.9775 c 0
 102.644 -32.2373 67.9902 -26.5869 36.3496 -13.0273 c 0
 6.96973 -2.48047 -15.6299 15.2227 -31.4502 40.083 c 0
 -48.7764 64.9424 -58.5703 96.583 -60.8301 135.003 c 1
 -65.3496 159.863 -67.6104 185.1 -67.6104 210.713 c 0
 -67.6104 250.639 -61.583 291.696 -49.5303 333.883 c 0
 -22.4102 421.27 16.0098 497.732 65.7305 563.272 c 0
 146.336 668.739 246.153 722.603 365.18 724.863 c 0
 469.14 724.863 524.51 688.703 531.29 616.383 c 1
 644.29 961.033 l 1
 829.61 961.033 l 1
365.18 567.793 m 0
 312.446 567.793 261.22 540.673 211.5 486.433 c 1
 177.6 439.727 153.87 393.396 140.31 347.443 c 0
 128.256 307.517 122.23 270.603 122.23 236.703 c 2
 122.23 206.192 l 1
 133.53 154.213 166.677 128.223 221.67 128.223 c 0
 278.924 128.223 328.267 154.213 369.7 206.192 c 0
 402.847 246.119 428.084 293.203 445.41 347.443 c 0
 456.71 379.083 462.36 412.982 462.36 449.143 c 1
 460.1 486.433 l 1
 447.294 540.673 415.653 567.793 365.18 567.793 c 0
EndSplineSet
EndChar
StartChar: e
Encoding: 71 101
OldEncoding: 101
Width: 690
Flags: HW
Fore
634.725 312.41 m 1
 157.865 312.41 l 1
 147.318 280.017 142.045 251.39 142.045 226.53 c 0
 142.045 217.49 143.552 208.45 146.565 199.41 c 0
 154.852 175.304 170.295 158.354 192.895 148.56 c 0
 214.741 138.767 243.369 133.87 278.775 133.87 c 1
 314.182 143.664 340.925 153.834 359.005 164.38 c 0
 380.852 178.693 397.802 195.644 409.855 215.23 c 1
 595.175 215.23 l 1
 568.809 168.523 531.895 128.597 484.435 95.4502 c 1
 434.715 57.7832 385.371 30.6631 336.405 14.0898 c 1
 283.671 -6.25 235.835 -16.4199 192.895 -16.4199 c 0
 133.381 -16.4199 76.8809 1.2832 23.3945 36.6904 c 1
 -2.21875 60.7969 -19.9219 86.4102 -29.7148 113.53 c 0
 -40.2617 142.156 -45.5352 171.536 -45.5352 201.67 c 2
 -45.5352 208.45 l 1
 -43.2754 239.336 -38.7549 267.964 -31.9746 294.33 c 1
 -9.375 362.884 9.08203 413.733 23.3945 446.88 c 1
 64.0752 530.5 111.159 594.533 164.645 638.98 c 1
 213.611 681.92 261.448 709.794 308.155 722.6 c 0
 349.589 733.146 393.659 738.42 440.365 738.42 c 0
 504.398 738.42 555.249 725.236 592.915 698.87 c 0
 630.581 671.75 655.441 638.604 667.495 599.43 c 0
 673.521 577.584 676.535 550.464 676.535 518.07 c 2
 676.535 504.51 l 1
 673.521 463.076 669.755 432.19 665.235 411.85 c 1
 634.725 312.41 l 1
199.675 437.84 m 1
 484.435 437.84 l 1
 490.461 455.92 493.475 475.884 493.475 497.73 c 1
 488.955 537.28 l 1
 479.161 569.674 449.781 585.87 400.815 585.87 c 0
 350.341 588.13 307.025 573.44 270.865 541.8 c 0
 233.951 508.653 210.222 474 199.675 437.84 c 1
EndSplineSet
EndChar
StartChar: f
Encoding: 72 102
OldEncoding: 102
Width: 406
Flags: HW
Fore
20.4951 575.05 m 1
 60.0449 697.09 l 1
 159.485 697.09 l 1
 187.735 780.71 l 2
 206.568 837.21 234.818 881.28 272.485 912.92 c 1
 312.411 943.807 361.001 959.25 418.255 959.25 c 2
 534.645 959.25 l 1
 490.575 820.26 l 1
 425.035 820.26 l 2
 397.161 820.26 378.705 804.063 369.665 771.67 c 1
 347.065 697.09 l 1
 455.545 697.09 l 1
 415.995 575.05 l 1
 307.515 575.05 l 1
 117.675 -1.25 l 1
 -67.6445 -1.25 l 1
 119.935 575.05 l 1
 20.4951 575.05 l 1
EndSplineSet
EndChar
StartChar: g
Encoding: 73 103
OldEncoding: 103
Width: 756
Flags: HW
Fore
654.085 742.016 m 1
 826.975 742.016 l 1
 590.805 10.9053 l 1
 577.245 -32.7881 553.515 -74.5977 519.615 -114.524 c 1
 484.961 -151.438 446.919 -181.57 405.485 -204.925 c 0
 335.425 -244.098 233.725 -262.555 100.385 -260.294 c 0
 33.3379 -258.034 -19.0186 -235.058 -56.6846 -191.364 c 0
 -81.5449 -164.244 -93.9746 -134.11 -93.9746 -100.965 c 0
 -93.9746 -85.8984 -91.7148 -70.4541 -87.1953 -54.6348 c 1
 104.905 -54.6348 l 1
 102.645 -72.7148 l 1
 102.645 -101.341 132.025 -121.305 190.785 -132.604 c 1
 242.765 -132.604 290.602 -118.668 334.295 -90.7939 c 0
 373.469 -65.1807 399.835 -33.918 413.395 2.99609 c 1
 445.035 103.565 l 1
 423.188 83.9795 399.459 65.1455 373.845 47.0654 c 0
 351.999 31.2461 328.645 19.9453 303.785 13.166 c 1
 279.679 3.37207 252.182 -1.52441 221.295 -1.52441 c 0
 171.575 -1.52441 135.039 4.12598 111.685 15.4258 c 0
 85.3184 27.4785 62.3418 48.1953 42.7549 77.5752 c 1
 26.9346 97.1621 16.7646 123.529 12.2451 156.676 c 1
 9.98535 207.525 l 1
 12.2451 253.855 l 1
 13.752 281.729 21.6621 317.89 35.9746 362.336 c 0
 56.3154 421.096 83.8115 477.972 118.465 532.966 c 0
 153.871 586.452 194.929 631.275 241.635 667.436 c 0
 312.448 724.689 388.159 753.315 468.765 753.315 c 0
 497.392 753.315 518.861 750.302 533.175 744.275 c 0
 542.969 739.756 556.151 731.092 572.725 718.285 c 1
 595.325 686.646 l 1
 619.055 635.796 l 1
 654.085 742.016 l 1
440.515 587.206 m 0
 381.755 587.206 330.151 560.839 285.705 508.105 c 1
 251.805 470.439 223.932 423.355 202.085 366.855 c 1
 194.552 332.956 190.785 302.822 190.785 276.456 c 1
 193.045 227.865 l 1
 206.605 173.626 242.012 146.506 299.265 146.506 c 0
 359.531 146.506 411.889 173.626 456.335 227.865 c 1
 489.481 264.779 515.095 311.109 533.175 366.855 c 0
 545.229 404.521 551.255 438.422 551.255 468.556 c 1
 546.735 508.105 l 1
 533.175 560.839 497.769 587.206 440.515 587.206 c 0
EndSplineSet
EndChar
StartChar: h
Encoding: 74 104
OldEncoding: 104
Width: 765
Flags: HW
Fore
375.97 959.25 m 1
 266.36 619.12 l 1
 337.174 688.426 422.3 723.08 521.74 723.08 c 0
 583.514 723.08 632.856 706.884 669.77 674.49 c 1
 690.863 653.396 701.41 625.523 701.41 590.87 c 0
 701.41 570.53 696.89 546.8 687.85 519.68 c 2
 519.48 -1.25 l 1
 334.16 -1.25 l 1
 479.93 449.62 l 2
 485.956 468.454 488.97 487.286 488.97 506.12 c 1
 486.71 524.2 l 2
 484.45 542.28 464.486 554.71 426.82 561.49 c 1
 382.374 561.49 339.81 549.813 299.13 526.46 c 1
 259.956 500.847 232.084 463.934 215.51 415.72 c 1
 78.7803 -1.25 l 1
 -105.41 -1.25 l 1
 206.47 959.25 l 1
 375.97 959.25 l 1
EndSplineSet
EndChar
StartChar: i
Encoding: 75 105
OldEncoding: 105
Width: 344
Flags: HW
Fore
171.17 795.4 m 1
 224.28 959.25 l 1
 409.6 959.25 l 1
 356.49 795.4 l 1
 171.17 795.4 l 1
-87.5996 -1.25 m 1
 142.92 711.78 l 1
 328.24 711.78 l 1
 96.5898 -1.25 l 1
 -87.5996 -1.25 l 1
EndSplineSet
EndChar
StartChar: j
Encoding: 76 106
OldEncoding: 106
Width: 348
Flags: HW
Fore
226.7 812.04 m 1
 279.81 975.89 l 1
 462.87 975.89 l 1
 409.76 812.04 l 1
 226.7 812.04 l 1
-60.3203 -70.4902 m 2
 198.45 728.42 l 1
 381.51 728.42 l 1
 109.18 -116.82 l 1
 100.894 -140.174 89.2168 -161.644 74.1504 -181.23 c 0
 56.8232 -204.584 39.1201 -222.286 21.04 -234.34 c 1
 -0.0537109 -250.914 -21.9004 -260.33 -44.5 -262.59 c 0
 -95.7266 -270.124 -151.85 -273.89 -212.87 -273.89 c 1
 -162.02 -121.34 l 1
 -128.12 -121.34 -105.144 -118.326 -93.0898 -112.3 c 0
 -78.0234 -105.52 -67.0996 -91.583 -60.3203 -70.4902 c 2
EndSplineSet
EndChar
StartChar: k
Encoding: 77 107
OldEncoding: 107
Width: 690
Flags: HW
Fore
195.61 959.25 m 1
 376.41 959.25 l 1
 204.65 433.8 l 1
 531.22 711.78 l 1
 741.4 711.78 l 1
 412.57 440.58 l 1
 526.7 -1.25 l 1
 306.35 -1.25 l 1
 241.94 303.85 l 1
 137.98 221.36 l 1
 65.6602 -1.25 l 1
 -117.4 -1.25 l 1
 195.61 959.25 l 1
EndSplineSet
EndChar
StartChar: l
Encoding: 78 108
OldEncoding: 108
Width: 344
Flags: HW
Fore
224.28 959.25 m 1
 409.6 959.25 l 1
 96.5898 -1.25 l 1
 -87.5996 -1.25 l 1
 224.28 959.25 l 1
EndSplineSet
EndChar
StartChar: m
Encoding: 79 109
OldEncoding: 109
Width: 1106
Flags: HW
Fore
81.875 12.0752 m 1
 -101.185 12.0752 l 1
 128.205 725.105 l 1
 315.785 725.105 l 1
 278.495 618.885 l 1
 322.941 661.825 363.245 691.581 399.405 708.155 c 1
 434.812 726.988 480.765 736.405 537.265 736.405 c 1
 580.205 731.885 608.079 722.469 620.885 708.155 c 1
 635.951 696.102 652.901 670.865 671.735 632.445 c 1
 704.129 664.839 739.535 691.959 777.955 713.805 c 1
 814.869 731.885 857.432 740.925 905.645 740.925 c 1
 956.495 736.405 l 1
 1041.62 725.105 1084.18 681.035 1084.18 604.195 c 0
 1084.18 577.829 1077.78 545.435 1064.97 507.015 c 2
 903.385 12.0752 l 1
 720.325 12.0752 l 1
 880.785 502.495 l 1
 883.045 523.965 l 1
 883.045 556.358 858.938 574.815 810.725 579.335 c 1
 767.785 579.335 730.119 565.398 697.725 537.525 c 1
 664.579 506.639 643.485 477.259 634.445 449.385 c 2
 492.065 12.0752 l 1
 311.265 12.0752 l 1
 468.335 502.495 l 1
 470.595 513.795 l 1
 470.595 555.229 444.229 577.075 391.495 579.335 c 0
 360.608 579.335 327.461 567.658 292.055 544.305 c 1
 261.169 521.705 238.945 490.065 225.385 449.385 c 2
 81.875 12.0752 l 1
EndSplineSet
EndChar
StartChar: n
Encoding: 80 110
OldEncoding: 110
Width: 761
Flags: HW
Fore
-77.6055 12.335 m 1
 154.045 725.365 l 1
 337.105 725.365 l 1
 302.075 619.145 l 1
 333.715 656.059 369.121 685.062 408.295 706.155 c 0
 445.961 726.495 483.251 736.665 520.165 736.665 c 0
 661.791 736.665 732.605 687.321 732.605 588.635 c 0
 732.605 561.515 726.579 529.121 714.525 491.455 c 2
 558.585 12.335 l 1
 374.395 12.335 l 1
 515.645 449.645 l 1
 524.685 480.531 529.205 505.392 529.205 524.225 c 1
 526.945 551.345 l 1
 520.165 576.205 487.019 588.635 427.505 588.635 c 1
 374.019 581.855 335.222 567.165 311.115 544.565 c 1
 286.255 524.225 267.045 498.611 253.485 467.725 c 1
 105.455 12.335 l 1
 -77.6055 12.335 l 1
EndSplineSet
EndChar
StartChar: o
Encoding: 81 111
OldEncoding: 111
Width: 758
Flags: HW
Fore
229.96 -18.5498 m 0
 129.767 -18.5498 56.3164 11.583 9.61035 71.8496 c 0
 -12.9902 102.736 -25.4199 144.546 -27.6797 197.28 c 1
 -27.6797 204.06 l 2
 -27.6797 250.767 -18.2637 303.124 0.570312 361.13 c 0
 17.8965 416.876 45.0166 472.624 81.9297 528.37 c 0
 115.83 581.856 155.004 623.29 199.45 652.67 c 1
 280.057 709.924 371.964 738.55 475.17 738.55 c 0
 576.116 738.55 648.437 709.924 692.13 652.67 c 0
 716.236 623.29 729.42 581.856 731.68 528.37 c 1
 731.68 521.59 l 2
 731.68 472.624 722.64 419.137 704.56 361.13 c 1
 680.454 296.344 654.086 241.727 625.46 197.28 c 0
 592.313 146.807 551.256 104.243 502.29 69.5898 c 0
 420.177 10.8301 329.4 -18.5498 229.96 -18.5498 c 0
424.32 581.48 m 0
 367.066 581.48 314.334 555.113 266.12 502.38 c 1
 226.946 454.92 200.204 407.836 185.89 361.13 c 1
 174.59 331.75 168.94 301.616 168.94 270.73 c 1
 174.59 222.14 l 1
 188.15 168.653 223.557 141.91 280.81 141.91 c 0
 341.076 141.91 393.434 168.653 437.88 222.14 c 1
 474.794 262.82 501.914 309.15 519.24 361.13 c 0
 528.28 392.017 532.8 422.15 532.8 451.53 c 1
 528.28 502.38 l 1
 514.72 555.113 480.066 581.48 424.32 581.48 c 0
EndSplineSet
EndChar
StartChar: p
Encoding: 82 112
OldEncoding: 112
Width: 762
Flags: HW
Fore
198.375 742.005 m 1
 381.435 742.005 l 1
 344.145 635.785 l 1
 394.995 678.725 l 1
 448.105 718.275 l 1
 475.979 733.342 493.682 742.005 501.215 744.265 c 0
 520.049 750.291 544.155 753.305 573.535 753.305 c 0
 654.895 753.305 712.525 724.679 746.425 667.425 c 0
 766.012 636.539 776.935 592.845 779.195 536.345 c 1
 779.195 528.435 l 2
 779.195 474.195 769.778 418.825 750.945 362.325 c 0
 732.865 303.565 707.629 250.455 675.235 202.995 c 0
 642.089 151.769 604.421 109.958 562.235 77.5654 c 0
 521.555 47.4316 484.265 26.7148 450.365 15.415 c 0
 421.738 4.11523 382.565 -1.53516 332.845 -1.53516 c 0
 300.451 -1.53516 274.839 3.36133 256.005 13.1553 c 0
 240.938 19.1816 226.249 29.7285 211.935 44.7949 c 0
 208.921 47.8086 195.738 67.3945 172.385 103.555 c 1
 54.8652 -260.305 l 1
 -128.195 -260.305 l 1
 198.375 742.005 l 1
487.655 591.715 m 0
 430.401 591.715 380.305 564.595 337.365 510.355 c 0
 304.219 469.675 278.605 423.345 260.525 371.365 c 0
 249.979 338.972 244.705 302.059 244.705 260.625 c 1
 246.965 232.375 l 1
 258.265 178.889 290.659 152.145 344.145 152.145 c 0
 402.151 152.145 451.495 178.889 492.175 232.375 c 1
 525.321 273.055 550.935 319.385 569.015 371.365 c 0
 579.562 402.251 584.835 437.658 584.835 477.585 c 1
 582.575 510.355 l 1
 573.535 564.595 541.895 591.715 487.655 591.715 c 0
EndSplineSet
EndChar
StartChar: q
Encoding: 83 113
OldEncoding: 113
Width: 751
Flags: HW
Fore
823.515 739.745 m 1
 499.205 -260.305 l 1
 317.275 -260.305 l 1
 432.535 103.555 l 1
 410.688 83.9688 386.959 65.1348 361.345 47.0547 c 0
 339.499 31.2354 316.145 19.9346 291.285 13.1553 c 1
 267.179 3.36133 239.305 -1.53516 207.665 -1.53516 c 0
 157.191 -1.53516 120.278 4.11523 96.9248 15.415 c 0
 70.5586 27.4688 47.582 48.1846 27.9951 77.5654 c 0
 7.65527 108.451 -2.51465 150.262 -2.51465 202.995 c 2
 -2.51465 209.775 l 2
 -2.51465 257.235 6.14844 308.085 23.4746 362.325 c 0
 43.8154 421.085 71.3115 477.961 105.965 532.955 c 1
 146.645 591.715 186.948 636.539 226.875 667.425 c 0
 256.255 691.531 290.909 712.625 330.835 730.705 c 0
 363.981 745.771 405.791 753.305 456.265 753.305 c 1
 506.738 751.045 542.898 740.121 564.745 720.535 c 0
 585.839 701.701 599.775 673.451 606.555 635.785 c 1
 640.455 739.745 l 1
 823.515 739.745 l 1
434.795 587.195 m 0
 381.309 587.195 331.965 560.075 286.765 505.835 c 0
 249.852 459.881 223.485 412.799 207.665 364.585 c 0
 197.119 332.191 191.845 296.785 191.845 258.365 c 1
 194.105 221.075 l 1
 205.405 166.835 237.799 139.715 291.285 139.715 c 0
 340.251 139.715 389.595 166.835 439.315 221.075 c 1
 475.475 264.015 501.841 311.852 518.415 364.585 c 0
 530.469 402.251 536.495 435.398 536.495 464.025 c 1
 531.975 505.835 l 1
 520.675 560.075 488.281 587.195 434.795 587.195 c 0
EndSplineSet
EndChar
StartChar: r
Encoding: 84 114
OldEncoding: 114
Width: 477
Flags: HW
Fore
-65.6602 12.335 m 1
 163.73 725.365 l 1
 349.05 725.365 l 1
 304.98 588.635 l 1
 319.294 608.975 335.49 628.185 353.57 646.265 c 0
 367.13 659.825 392.744 677.528 430.41 699.375 c 0
 469.584 724.235 516.666 736.665 571.66 736.665 c 1
 508.38 549.085 l 1
 448.49 553.605 l 1
 407.057 553.605 370.144 543.812 337.75 524.225 c 0
 300.836 501.625 270.704 465.089 247.35 414.615 c 1
 115.14 12.335 l 1
 -65.6602 12.335 l 1
EndSplineSet
EndChar
StartChar: s
Encoding: 85 115
OldEncoding: 115
Width: 690
Flags: HW
Fore
-47.665 224.259 m 1
 135.395 224.259 l 1
 135.395 198.645 140.669 179.435 151.215 166.629 c 0
 159.501 154.575 172.685 144.782 190.765 137.248 c 0
 210.352 127.455 233.329 122.559 259.695 122.559 c 0
 335.781 120.299 382.111 145.158 398.685 197.139 c 1
 403.205 219.738 l 1
 400.945 236.688 l 1
 396.425 247.988 387.385 254.769 373.825 257.028 c 1
 164.775 323.698 l 2
 111.289 341.024 78.8945 365.132 67.5947 396.019 c 1
 61.5684 408.072 58.5547 423.515 58.5547 442.349 c 0
 58.5547 461.183 61.5684 479.639 67.5947 497.719 c 0
 93.209 573.805 141.799 636.332 213.365 685.299 c 1
 269.111 720.705 338.795 738.408 422.415 738.408 c 0
 512.815 740.669 580.615 723.719 625.815 687.559 c 0
 661.975 660.438 681.185 631.059 683.445 599.419 c 1
 685.705 581.339 l 1
 685.705 554.219 680.432 526.345 669.885 497.719 c 1
 491.345 497.719 l 1
 497.371 512.032 500.385 526.723 500.385 541.788 c 1
 498.125 555.349 l 1
 489.839 569.662 474.395 580.585 451.795 588.118 c 0
 429.195 595.652 407.725 599.419 387.385 599.419 c 0
 359.512 599.419 330.131 592.639 299.245 579.078 c 0
 278.151 569.285 264.215 552.335 257.435 528.229 c 2
 252.915 511.278 l 1
 252.915 499.225 262.331 489.809 281.165 483.028 c 2
 282.295 483.028 l 1
 285.685 481.898 l 1
 526.375 409.578 l 2
 548.222 402.045 566.679 390.368 581.745 374.549 c 0
 596.059 357.975 605.099 338.013 608.865 314.658 c 1
 612.631 304.865 614.515 295.825 614.515 287.538 c 0
 614.515 267.198 611.125 250.248 604.345 236.688 c 1
 590.031 190.734 564.041 146.665 526.375 104.479 c 0
 486.448 60.0322 435.599 27.6387 373.825 7.29883 c 0
 356.499 2.02539 327.119 -3.24805 285.685 -8.52148 c 0
 253.291 -13.7949 220.898 -16.4316 188.505 -16.4316 c 0
 122.965 -14.1719 73.6211 -4.75488 40.4746 11.8184 c 0
 -24.3115 46.4717 -56.7051 95.8154 -56.7051 159.849 c 0
 -56.7051 182.448 -53.6914 203.919 -47.665 224.259 c 1
EndSplineSet
EndChar
StartChar: t
Encoding: 86 116
OldEncoding: 116
Width: 409
Flags: HW
Fore
76.2695 702.719 m 1
 166.67 702.719 l 1
 228.82 898.209 l 1
 414.14 898.209 l 1
 351.99 702.719 l 1
 453.69 702.719 l 1
 414.14 580.679 l 1
 312.44 580.679 l 1
 182.49 180.659 l 1
 176.464 165.593 173.45 151.655 173.45 138.849 c 0
 173.45 124.535 179.854 117.379 192.66 117.379 c 2
 261.59 115.119 l 1
 219.78 -9.18066 l 1
 182.866 -20.4814 151.227 -26.1309 124.86 -26.1309 c 0
 92.4658 -28.3906 65.3467 -25.001 43.5 -15.9609 c 1
 -3.95996 -0.140625 -27.6904 32.252 -27.6904 81.2188 c 1
 -25.4297 115.119 l 1
 127.12 580.679 l 1
 36.7197 580.679 l 1
 76.2695 702.719 l 1
EndSplineSet
EndChar
StartChar: u
Encoding: 87 117
OldEncoding: 117
Width: 755
Flags: HW
Fore
783.735 727.77 m 1
 552.085 14.7402 l 1
 367.895 14.7402 l 1
 395.015 102.88 l 1
 354.335 59.9404 320.435 31.3135 293.315 17 c 0
 266.195 4.19336 229.281 -6.73047 182.575 -15.7695 c 1
 132.102 -13.5098 90.291 -7.86035 57.1445 1.17969 c 0
 23.998 9.4668 -0.485352 32.4434 -16.3047 70.1104 c 0
 -24.5918 89.6963 -28.7354 109.66 -28.7354 130 c 0
 -28.7354 158.626 -23.085 192.903 -11.7852 232.83 c 1
 147.545 727.77 l 1
 332.865 727.77 l 1
 189.355 285.94 l 2
 180.315 257.313 175.795 233.206 175.795 213.62 c 0
 175.795 204.58 177.302 195.54 180.315 186.5 c 0
 187.095 161.64 219.488 149.21 277.495 149.21 c 1
 330.229 155.99 368.648 169.927 392.755 191.02 c 1
 420.629 212.866 439.085 238.104 448.125 266.73 c 2
 598.415 727.77 l 1
 783.735 727.77 l 1
EndSplineSet
EndChar
StartChar: v
Encoding: 88 118
OldEncoding: 118
Width: 676
Flags: HW
Fore
79.4805 726.015 m 1
 273.84 726.015 l 1
 252.37 202.825 l 1
 572.16 726.015 l 1
 766.52 726.015 l 1
 287.4 12.9854 l 1
 93.04 12.9854 l 1
 79.4805 726.015 l 1
EndSplineSet
EndChar
StartChar: w
Encoding: 89 119
OldEncoding: 119
Width: 952
Flags: HW
Fore
53.2949 726.015 m 1
 242.005 726.015 l 1
 191.155 225.425 l 1
 460.095 726.015 l 1
 649.935 726.015 l 1
 590.045 225.425 l 1
 862.375 726.015 l 1
 1054.47 726.015 l 1
 623.945 12.9854 l 1
 434.105 12.9854 l 1
 488.345 514.705 l 1
 210.365 12.9854 l 1
 20.5254 12.9854 l 1
 53.2949 726.015 l 1
EndSplineSet
EndChar
StartChar: x
Encoding: 90 120
OldEncoding: 120
Width: 689
Flags: HW
Fore
104.235 726.015 m 1
 324.585 726.015 l 1
 370.915 510.185 l 1
 557.365 726.015 l 1
 775.455 726.015 l 1
 428.545 368.935 l 1
 546.065 12.9854 l 1
 326.845 12.9854 l 1
 278.255 223.165 l 1
 83.8945 12.9854 l 1
 -136.455 12.9854 l 1
 212.715 368.935 l 1
 104.235 726.015 l 1
EndSplineSet
EndChar
StartChar: y
Encoding: 91 121
OldEncoding: 121
Width: 683
Flags: HW
Fore
129.025 742.655 m 1
 332.425 742.655 l 1
 318.865 223.985 l 1
 633.005 742.655 l 1
 825.105 742.655 l 1
 242.025 -118.405 l 1
 226.959 -147.031 199.085 -177.165 158.405 -208.805 c 0
 134.299 -228.392 95.8789 -241.575 43.1445 -248.355 c 0
 -15.6152 -255.889 -62.6982 -259.655 -98.1055 -259.655 c 1
 -49.5146 -109.365 l 1
 6.98535 -109.365 46.9121 -102.961 70.2646 -90.1553 c 1
 105.671 -74.335 129.025 -48.3447 140.325 -12.1846 c 1
 144.845 25.1055 l 1
 144.845 29.625 l 1
 129.025 742.655 l 1
EndSplineSet
EndChar
StartChar: z
Encoding: 92 122
OldEncoding: 122
Width: 620
Flags: HW
Fore
133.035 726.015 m 1
 685.605 726.015 l 1
 637.015 575.725 l 1
 153.375 163.275 l 1
 511.585 163.275 l 1
 462.995 12.9854 l 1
 -124.605 12.9854 l 1
 -76.0146 163.275 l 1
 409.885 575.725 l 1
 83.3154 575.725 l 1
 133.035 726.015 l 1
EndSplineSet
EndChar
StartChar: braceleft
Encoding: 93 123
OldEncoding: 123
Width: 475
Flags: HW
Fore
-5.1748 305.63 m 1
 33.2451 428.8 l 1
 106.318 428.8 149.635 449.517 163.195 490.95 c 2
 260.375 793.79 l 1
 279.961 849.536 311.602 893.606 355.295 926 c 0
 398.988 958.394 436.655 974.59 468.295 974.59 c 2
 580.165 974.59 l 1
 538.355 844.64 l 1
 489.765 844.64 l 2
 461.139 844.64 442.682 839.366 434.395 828.82 c 1
 422.341 816.767 412.925 799.063 406.145 775.71 c 1
 313.485 495.47 l 1
 290.885 423.903 236.269 380.586 149.635 365.52 c 1
 181.275 361 206.512 350.454 225.345 333.88 c 0
 235.139 324.086 240.035 310.15 240.035 292.07 c 0
 240.035 275.496 235.892 253.65 227.605 226.53 c 2
 138.335 -52.5801 l 1
 131.555 -66.8936 128.165 -79.3232 128.165 -89.8701 c 0
 128.165 -97.4033 128.919 -101.924 130.425 -103.43 c 0
 134.191 -116.236 148.881 -122.64 174.495 -122.64 c 2
 223.085 -122.64 l 1
 182.405 -252.59 l 1
 68.2754 -252.59 l 2
 39.6484 -252.59 13.6582 -236.394 -9.69531 -204 c 0
 -24.0088 -185.166 -31.165 -161.813 -31.165 -133.94 c 0
 -31.165 -117.366 -27.3984 -96.6504 -19.8652 -71.79 c 1
 77.3154 228.79 l 1
 81.835 254.78 l 1
 81.835 288.68 52.832 305.63 -5.1748 305.63 c 1
EndSplineSet
EndChar
StartChar: bar
Encoding: 94 124
OldEncoding: 124
Width: 346
Flags: HW
Fore
413.86 974.59 m 1
 16.0996 -252.59 l 1
 -87.8604 -252.59 l 1
 309.9 974.59 l 1
 413.86 974.59 l 1
EndSplineSet
EndChar
StartChar: braceright
Encoding: 95 125
OldEncoding: 125
Width: 487
Flags: HW
Fore
460.435 428.8 m 1
 420.885 305.63 l 1
 386.985 305.63 359.111 300.356 337.265 289.81 c 1
 313.911 275.496 297.715 255.156 288.675 228.79 c 1
 191.495 -71.79 l 2
 173.415 -128.29 141.775 -172.36 96.5752 -204 c 0
 50.6221 -236.394 12.2012 -252.59 -18.6846 -252.59 c 2
 -127.165 -252.59 l 1
 -83.0947 -122.64 l 1
 -34.5049 -122.64 l 2
 -8.8916 -122.64 9.56543 -116.236 20.8652 -103.43 c 0
 31.4121 -89.8701 39.6982 -72.9199 45.7246 -52.5801 c 1
 136.125 226.53 l 2
 163.999 311.656 222.005 358.74 310.145 367.78 c 1
 280.765 370.04 253.645 380.21 228.785 398.29 c 1
 219.745 407.33 215.225 422.02 215.225 442.36 c 0
 215.225 457.427 217.485 475.13 222.005 495.47 c 1
 314.665 775.71 l 1
 320.691 791.53 323.705 806.22 323.705 819.78 c 1
 321.445 828.82 l 1
 319.185 840.874 304.495 846.9 277.375 846.9 c 2
 228.785 846.9 l 1
 270.595 974.59 l 1
 381.335 974.59 l 2
 400.169 974.59 419.755 968.563 440.095 956.51 c 1
 459.682 940.69 472.488 919.597 478.515 893.23 c 1
 484.165 859.33 l 1
 484.165 844.264 480.021 822.416 471.735 793.79 c 1
 374.555 493.21 l 1
 372.295 475.13 l 1
 372.295 444.244 401.675 428.8 460.435 428.8 c 1
EndSplineSet
EndChar
StartChar: asciitilde
Encoding: 96 126
OldEncoding: 126
Width: 723
Flags: HW
Fore
101.83 248.225 m 1
 11.4297 248.225 l 1
 42.3164 315.271 81.8662 366.121 130.08 400.775 c 0
 169.254 428.648 205.414 442.585 238.56 442.585 c 0
 264.174 442.585 286.396 434.675 305.23 418.855 c 1
 414.84 343.145 l 2
 438.193 325.818 458.91 317.155 476.99 317.155 c 0
 514.656 317.155 543.284 345.028 562.87 400.775 c 1
 664.57 400.775 l 1
 654.776 372.901 643.1 347.289 629.54 323.935 c 1
 612.214 299.075 586.6 274.591 552.7 250.485 c 1
 518.046 221.105 483.394 206.415 448.74 206.415 c 0
 421.62 206.415 393.746 216.585 365.12 236.925 c 1
 245.34 314.895 l 2
 227.26 327.701 210.31 334.105 194.49 334.105 c 0
 171.137 334.105 153.434 325.441 141.38 308.115 c 1
 124.054 287.775 110.87 267.812 101.83 248.225 c 1
EndSplineSet
EndChar
StartChar: exclamdown
Encoding: 98 161
OldEncoding: 161
Width: 266
Flags: HW
Fore
325.465 745.17 m 1
 293.825 599.4 l 1
 97.2051 599.4 l 1
 127.715 745.17 l 1
 325.465 745.17 l 1
247.495 515.78 m 1
 187.605 25.3604 l 1
 143.535 -179.17 l 1
 -82.4648 -179.17 l 1
 -38.3945 25.3604 l 1
 106.245 515.78 l 1
 247.495 515.78 l 1
EndSplineSet
EndChar
StartChar: cent
Encoding: 99 162
OldEncoding: 162
Width: 632
Flags: HW
Fore
495.425 590.09 m 1
 262.645 149.39 l 1
 273.945 144.87 l 1
 369.619 144.87 437.041 196.097 476.215 298.55 c 1
 610.685 266.91 l 1
 579.799 190.07 530.079 127.544 461.525 79.3301 c 0
 392.972 30.3633 315.379 5.87988 228.745 5.87988 c 0
 218.198 5.87988 205.392 8.13965 190.325 12.6602 c 1
 190.325 12.6602 l 1
 184.675 14.9199 l 1
 43.4248 -247.24 l 1
 -89.915 -224.64 l 1
 50.2051 37.5195 l 1
 -21.3613 75.1865 -57.1445 139.597 -57.1445 230.75 c 0
 -57.1445 269.17 -51.4951 315.5 -40.1953 369.74 c 0
 -17.5947 476.714 27.6055 563.347 95.4053 629.64 c 0
 172.999 703.467 267.541 740.38 379.035 740.38 c 1
 423.105 735.86 l 1
 558.705 991.24 l 1
 690.915 969.77 l 1
 555.315 713.26 l 1
 605.035 694.426 634.415 657.89 643.455 603.65 c 0
 646.469 585.57 647.975 562.594 647.975 534.72 c 2
 647.975 518.9 l 1
 506.725 490.65 l 1
 506.725 496.3 l 1
 510.115 550.54 l 1
 510.115 567.866 505.219 581.05 495.425 590.09 c 1
348.525 610.43 m 1
 344.005 611.56 l 2
 337.225 611.56 l 0
 217.445 611.56 140.981 533.59 107.835 377.65 c 0
 94.2754 312.11 87.4951 268.04 87.4951 245.44 c 0
 87.4951 212.294 96.9111 188.187 115.745 173.12 c 1
 348.525 610.43 l 1
EndSplineSet
EndChar
StartChar: sterling
Encoding: 100 163
OldEncoding: 163
Width: 621
Flags: HW
Fore
217.255 422.85 m 1
 382.235 422.85 l 1
 360.765 323.41 l 1
 213.865 323.41 l 1
 216.125 300.81 l 1
 212.735 271.43 l 1
 200.305 209.28 l 1
 192.771 190.446 169.419 165.586 130.245 134.7 c 1
 173.185 144.87 l 1
 181.095 146 l 2
 192.395 146 208.591 140.727 229.685 130.18 c 0
 239.479 125.66 249.271 122.27 259.065 120.01 c 0
 322.345 105.696 365.661 98.54 389.015 98.54 c 0
 416.135 98.54 454.932 107.957 505.405 126.79 c 1
 509.925 22.8301 l 1
 447.398 1.73633 398.809 -8.80957 364.155 -8.80957 c 1
 315.565 -4.29004 l 1
 245.505 12.6602 l 1
 173.185 31.8701 l 1
 120.075 35.2598 l 1
 58.3018 35.2598 -2.71875 19.8164 -62.9854 -11.0703 c 1
 -86.7148 81.5898 l 1
 10.4648 126.036 68.4717 191.576 87.3047 278.21 c 1
 90.6953 323.41 l 1
 -22.3047 323.41 l 1
 -1.96484 422.85 l 1
 85.0449 422.85 l 1
 80.5254 457.504 78.2646 483.494 78.2646 500.82 c 0
 78.2646 515.887 79.7715 530.2 82.7852 543.76 c 0
 96.3447 607.794 132.505 659.02 191.265 697.44 c 0
 247.012 735.86 312.552 755.07 387.885 755.07 c 0
 531.771 755.07 603.715 695.557 603.715 576.53 c 0
 603.715 572.01 603.339 567.49 602.585 562.97 c 1
 477.155 524.55 l 1
 477.155 536.98 l 2
 477.155 590.467 461.335 623.613 429.695 636.42 c 0
 414.629 643.2 394.289 646.59 368.675 646.59 c 0
 327.995 646.59 289.951 634.16 254.545 609.3 c 0
 234.205 595.74 220.269 573.14 212.735 541.5 c 0
 214.241 546.02 213.111 539.616 209.345 522.29 c 1
 205.955 496.3 l 1
 217.255 422.85 l 1
EndSplineSet
EndChar
StartChar: currency
Encoding: 101 164
OldEncoding: 164
Width: 679
Flags: HW
Fore
117.055 468.365 m 1
 44.7354 549.725 l 1
 161.125 645.775 l 1
 233.445 561.025 l 1
 280.151 586.639 319.701 600.575 352.095 602.835 c 2
 373.565 603.965 l 2
 411.985 603.965 446.262 593.419 476.395 572.325 c 2
 493.345 561.025 l 1
 601.825 645.775 l 1
 686.575 548.595 l 1
 581.485 467.235 l 1
 592.785 442.375 598.435 419.775 598.435 399.435 c 0
 598.435 386.629 596.175 370.055 591.655 349.715 c 0
 581.861 302.255 570.185 268.355 556.625 248.015 c 1
 535.155 222.025 l 1
 606.345 138.405 l 1
 479.785 41.2246 l 1
 407.465 127.105 l 1
 370.552 105.259 328.365 93.582 280.905 92.0752 c 2
 279.775 92.0752 l 1
 278.645 92.0752 l 1
 265.085 92.0752 l 2
 214.611 92.0752 176.568 100.361 150.955 116.935 c 2
 135.135 128.235 l 1
 27.7852 42.3555 l 1
 -53.5752 140.665 l 1
 53.7754 224.285 l 1
 43.2285 245.379 37.9551 266.472 37.9551 287.565 c 0
 37.9551 302.631 40.9688 323.349 46.9951 349.715 c 0
 53.7754 382.108 71.4785 415.255 100.105 449.155 c 2
 117.055 468.365 l 1
217.625 344.065 m 0
 216.119 336.531 215.365 329.375 215.365 322.595 c 0
 215.365 305.269 220.262 290.201 230.055 277.395 c 0
 245.121 258.562 266.215 249.145 293.335 249.145 c 0
 321.209 249.145 346.068 258.562 367.915 277.395 c 0
 391.269 295.475 405.581 317.698 410.855 344.065 c 0
 412.361 351.599 413.115 358.379 413.115 364.405 c 0
 413.115 381.731 407.465 397.175 396.165 410.735 c 0
 381.099 428.815 360.005 437.855 332.885 437.855 c 0
 306.519 437.855 282.035 428.815 259.435 410.735 c 0
 236.835 392.655 222.898 370.432 217.625 344.065 c 0
EndSplineSet
EndChar
StartChar: yen
Encoding: 102 165
OldEncoding: 165
Width: 858
Flags: HW
Fore
229.3 0.464844 m 1
 266.59 176.745 l 1
 -67.8896 176.745 l 1
 -40.7695 302.175 l 1
 292.58 302.175 l 1
 305.01 359.805 l 1
 -28.3398 359.805 l 1
 -1.21973 490.885 l 1
 274.5 490.885 l 1
 46.2402 948.535 l 1
 227.04 948.535 l 1
 388.63 614.055 l 1
 413.49 536.085 l 1
 472.25 621.965 l 1
 763.79 948.535 l 1
 955.89 948.535 l 1
 533.27 490.885 l 1
 807.86 490.885 l 1
 780.74 359.805 l 1
 449.65 359.805 l 1
 437.22 302.175 l 1
 768.31 302.175 l 1
 741.19 176.745 l 1
 411.23 176.745 l 1
 373.94 0.464844 l 1
 229.3 0.464844 l 1
EndSplineSet
EndChar
StartChar: brokenbar
Encoding: 103 166
OldEncoding: 166
Width: 173
Flags: HW
Fore
265.125 758.515 m 1
 173.595 326.855 l 1
 30.085 326.855 l 1
 121.615 758.515 l 1
 265.125 758.515 l 1
132.915 138.145 m 1
 41.3848 -293.515 l 1
 -102.125 -293.515 l 1
 -10.5947 138.145 l 1
 132.915 138.145 l 1
EndSplineSet
EndChar
StartChar: section
Encoding: 104 167
OldEncoding: 167
Width: 809
Flags: HW
Fore
-53.8154 -8.22461 m 1
 123.595 7.59473 l 1
 140.169 -35.3447 155.235 -62.4648 168.795 -73.7646 c 0
 184.615 -86.5713 210.981 -95.6113 247.895 -100.885 c 2
 265.975 -103.145 l 1
 314.188 -103.145 357.881 -94.4814 397.055 -77.1553 c 0
 440.749 -58.3213 465.985 -31.9551 472.765 1.94531 c 1
 475.025 15.5049 l 1
 475.025 29.8184 463.349 44.8848 439.995 60.7051 c 1
 439.995 60.7051 l 1
 439.995 60.7051 l 1
 389.145 91.2148 l 1
 219.645 177.095 l 2
 138.285 217.021 81.7852 250.545 50.1445 277.665 c 0
 4.94531 316.085 -17.6553 356.765 -17.6553 399.705 c 0
 -17.6553 408.745 -16.5254 418.161 -14.2646 427.955 c 0
 3.81543 515.342 79.5254 572.595 212.865 599.715 c 1
 159.379 641.148 132.635 684.089 132.635 728.535 c 0
 132.635 736.068 133.765 743.979 136.025 752.265 c 0
 148.079 811.025 190.265 858.861 262.585 895.775 c 0
 332.645 931.182 386.131 952.275 423.045 959.055 c 0
 441.125 962.068 459.205 963.575 477.285 963.575 c 0
 623.432 963.575 720.235 924.778 767.695 847.185 c 0
 785.775 817.051 794.815 782.021 794.815 742.095 c 0
 794.815 739.081 794.815 736.068 794.815 733.055 c 1
 624.185 713.845 l 1
 612.131 754.525 599.701 780.892 586.895 792.945 c 0
 571.829 806.505 548.099 815.169 515.705 818.935 c 2
 501.015 821.195 l 1
 486.325 821.195 l 2
 454.685 821.195 419.278 813.285 380.105 797.465 c 0
 350.725 783.905 332.269 762.812 324.735 734.185 c 0
 323.981 731.171 323.229 727.405 322.475 722.885 c 2
 321.345 714.975 l 1
 321.345 703.675 331.892 691.999 352.985 679.945 c 2
 417.395 642.655 l 1
 536.045 563.555 l 1
 624.938 520.615 683.698 488.222 712.325 466.375 c 0
 758.278 429.461 781.255 389.158 781.255 345.465 c 0
 781.255 336.425 780.125 327.385 777.865 318.345 c 0
 761.291 239.999 685.205 181.238 549.605 142.065 c 1
 617.405 101.385 651.305 54.3018 651.305 0.81543 c 0
 651.305 -8.22461 650.175 -17.6416 647.915 -27.4346 c 0
 634.355 -91.4688 588.401 -142.318 510.055 -179.985 c 0
 440.749 -212.379 361.271 -228.575 271.625 -228.575 c 0
 56.9248 -228.575 -51.5547 -155.125 -53.8154 -8.22461 c 1
463.725 226.815 m 1
 527.759 248.661 563.165 275.028 569.945 305.915 c 0
 570.698 308.175 571.075 310.435 571.075 312.695 c 0
 571.075 345.089 523.991 383.131 429.825 426.825 c 1
 385.379 449.425 348.841 469.389 320.215 486.715 c 1
 253.921 462.608 217.762 435.111 211.735 404.225 c 0
 210.981 401.965 210.605 399.329 210.605 396.315 c 0
 210.605 364.675 253.545 328.892 339.425 288.965 c 0
 398.185 262.599 439.619 241.881 463.725 226.815 c 1
EndSplineSet
EndChar
StartChar: dieresis
Encoding: 105 168
OldEncoding: 168
Width: 531
Flags: HW
Fore
-3.12012 786.615 m 1
 27.3896 932.385 l 1
 203.67 932.385 l 1
 173.16 786.615 l 1
 -3.12012 786.615 l 1
298.59 786.615 m 1
 329.1 932.385 l 1
 503.12 932.385 l 1
 472.61 786.615 l 1
 298.59 786.615 l 1
EndSplineSet
EndChar
StartChar: copyright
Encoding: 106 169
OldEncoding: 169
Width: 798
Flags: HW
Fore
460.75 804.345 m 0
 576.01 804.345 665.28 765.171 728.56 686.825 c 0
 774.514 631.831 797.49 566.669 797.49 491.335 c 0
 797.49 462.709 794.1 432.575 787.32 400.935 c 0
 763.214 290.195 702.57 195.651 605.39 117.305 c 0
 508.964 38.2051 403.496 -1.34473 288.99 -1.34473 c 0
 174.483 -1.34473 85.9658 37.4512 23.4404 115.045 c 0
 -22.5137 171.545 -45.4902 237.085 -45.4902 311.665 c 0
 -45.4902 340.291 -42.0996 370.049 -35.3203 400.935 c 0
 -11.2129 515.441 48.2998 611.491 143.22 689.085 c 0
 238.894 765.925 344.736 804.345 460.75 804.345 c 0
438.15 700.385 m 0
 355.284 700.385 278.82 671.381 208.76 613.375 c 0
 139.454 555.369 95.7598 484.179 77.6797 399.805 c 0
 72.4062 376.451 69.7695 353.852 69.7695 332.005 c 0
 69.7695 277.012 86.3438 229.175 119.49 188.495 c 0
 164.69 131.995 228.724 103.745 311.59 103.745 c 0
 395.21 103.745 471.296 131.995 539.85 188.495 c 0
 609.156 245.749 652.85 316.185 670.93 399.805 c 0
 675.45 423.158 677.71 445.381 677.71 466.475 c 0
 677.71 520.715 661.514 568.929 629.12 611.115 c 0
 583.92 670.629 520.264 700.385 438.15 700.385 c 0
459.62 345.565 m 1
 556.8 317.315 l 1
 508.586 220.135 431.746 171.545 326.28 171.545 c 0
 258.48 171.545 210.267 193.015 181.64 235.955 c 0
 162.054 263.829 152.26 297.729 152.26 337.655 c 0
 152.26 357.241 154.896 378.335 160.17 400.935 c 0
 174.483 469.488 205.746 524.481 253.96 565.915 c 0
 301.42 608.102 360.18 629.195 430.24 629.195 c 0
 525.16 629.195 577.517 586.631 587.31 501.505 c 1
 478.83 461.955 l 1
 470.544 504.142 444.554 525.235 400.86 525.235 c 0
 364.7 525.235 334.19 511.675 309.33 484.555 c 0
 286.73 460.448 271.664 430.315 264.13 394.155 c 0
 260.363 376.075 258.48 360.255 258.48 346.695 c 0
 258.48 293.209 285.977 266.465 340.97 266.465 c 0
 394.456 266.465 434.006 292.831 459.62 345.565 c 1
EndSplineSet
EndChar
StartChar: ordfeminine
Encoding: 107 170
OldEncoding: 170
Width: 375
Flags: HW
Fore
214.72 627.425 m 1
 183.834 606.331 151.44 595.408 117.54 594.655 c 0
 112.267 594.655 105.486 594.655 97.2002 594.655 c 2
 89.29 594.655 l 2
 14.71 594.655 -22.5801 619.892 -22.5801 670.365 c 0
 -22.5801 679.405 -21.4502 688.821 -19.1904 698.615 c 0
 -10.1504 743.062 21.8662 773.571 76.8604 790.145 c 1
 133.36 800.315 l 1
 214.72 810.485 l 1
 268.96 820.655 l 1
 265.946 844.762 258.036 859.451 245.23 864.725 c 2
 244.1 864.725 l 1
 244.1 864.725 l 1
 235.813 867.738 219.616 869.621 195.51 870.375 c 2
 181.95 870.375 l 2
 149.557 870.375 123.943 860.959 105.11 842.125 c 2
 103.98 840.995 l 1
 102.85 839.865 l 1
 97.2002 834.215 l 1
 27.1396 848.905 l 1
 54.2598 915.199 115.656 948.345 211.33 948.345 c 0
 305.496 948.345 352.58 919.342 352.58 861.335 c 0
 352.58 853.049 351.45 844.009 349.19 834.215 c 2
 318.68 690.705 l 1
 314.16 671.119 311.9 654.545 311.9 640.985 c 0
 311.9 624.411 315.29 611.605 322.07 602.565 c 1
 222.63 602.565 l 1
 214.72 619.515 l 1
 214.72 620.645 l 1
 214.72 627.425 l 1
233.93 751.725 m 1
 151.44 738.165 l 2
 113.02 730.631 91.9268 718.579 88.1602 702.005 c 0
 87.4062 698.238 87.0303 695.225 87.0303 692.965 c 0
 87.0303 674.131 102.097 664.715 132.23 664.715 c 0
 187.224 664.715 221.124 693.719 233.93 751.725 c 1
EndSplineSet
EndChar
StartChar: guillemotleft
Encoding: 108 171
OldEncoding: 171
Width: 788
Flags: HW
Fore
192.495 368 m 1
 356.345 13.1797 l 1
 190.235 13.1797 l 1
 -30.1152 368 l 1
 341.655 722.82 l 1
 510.025 722.82 l 1
 192.495 368 l 1
520.195 368 m 1
 689.695 13.1797 l 1
 517.935 13.1797 l 1
 332.615 368 l 1
 668.225 722.82 l 1
 841.115 722.82 l 1
 520.195 368 l 1
EndSplineSet
EndChar
StartChar: logicalnot
Encoding: 109 172
OldEncoding: 172
Width: 576
Flags: HW
Fore
539.575 447.975 m 1
 402.845 447.975 l 1
 427.705 565.495 l 1
 -18.6445 565.495 l 1
 0.56543 657.025 l 1
 583.645 657.025 l 1
 539.575 447.975 l 1
EndSplineSet
EndChar
StartChar: uni00AD
Encoding: 110 173
OldEncoding: 173
Width: 319
Flags: HW
Fore
-7.07031 288.955 m 1
 15.5303 394.045 l 1
 307.07 394.045 l 1
 284.47 288.955 l 1
 -7.07031 288.955 l 1
EndSplineSet
EndChar
StartChar: registered
Encoding: 111 174
OldEncoding: 174
Width: 911
Flags: HW
Fore
955.94 433.195 m 0
 939.366 352.589 901.7 276.879 842.94 206.065 c 1
 781.92 135.251 709.6 79.8818 625.98 39.9551 c 0
 537.84 -2.23145 450.83 -23.3252 364.95 -23.3252 c 0
 281.33 -23.3252 203.36 -2.23145 131.04 39.9551 c 0
 63.9941 80.6348 15.4033 136.005 -14.7305 206.065 c 0
 -34.3164 254.278 -44.1104 303.245 -44.1104 352.965 c 0
 -44.1104 379.331 -41.0967 406.075 -35.0703 433.195 c 0
 -17.7432 513.802 21.4297 589.512 82.4502 660.325 c 1
 135.937 725.865 207.88 780.481 298.28 824.175 c 0
 387.174 865.608 474.184 886.325 559.31 886.325 c 0
 628.616 886.325 689.637 875.025 742.37 852.425 c 0
 798.116 829.071 844.07 796.679 880.23 755.245 c 0
 917.896 713.059 943.134 664.469 955.94 609.475 c 0
 962.72 582.355 966.11 553.729 966.11 523.595 c 0
 966.11 494.969 962.72 464.835 955.94 433.195 c 0
847.46 433.195 m 0
 852.733 459.562 855.37 484.421 855.37 507.775 c 0
 855.37 531.129 852.733 553.352 847.46 574.445 c 0
 838.42 614.371 818.456 652.791 787.57 689.705 c 0
 758.943 724.358 723.536 751.102 681.35 769.935 c 0
 639.916 788.015 591.326 797.055 535.58 797.055 c 0
 467.026 797.055 399.227 780.105 332.18 746.205 c 1
 265.134 715.318 207.88 671.249 160.42 613.995 c 0
 112.96 555.988 82.8262 494.969 70.0195 430.935 c 0
 64.7461 407.581 62.1104 384.605 62.1104 362.005 c 0
 62.1104 324.339 69.2666 287.049 83.5801 250.135 c 0
 103.92 193.635 142.34 149.565 198.84 117.925 c 1
 250.82 84.0254 311.84 67.0752 381.9 67.0752 c 0
 451.206 67.0752 519.006 84.0254 585.3 117.925 c 1
 650.84 148.059 708.094 192.129 757.06 250.135 c 1
 803.014 307.389 833.146 368.408 847.46 433.195 c 0
406.76 437.715 m 1
 375.12 288.555 l 1
 372.86 272.735 l 1
 372.86 258.421 387.174 250.889 415.8 250.135 c 1
 406.76 203.805 l 1
 176.24 203.805 l 1
 186.41 250.135 l 1
 233.87 250.135 259.86 261.435 264.38 284.035 c 1
 334.44 613.995 l 1
 337.83 634.335 l 1
 337.83 641.869 335.57 646.765 331.05 649.025 c 0
 322.01 652.039 304.684 653.545 279.07 653.545 c 1
 289.24 703.265 l 1
 529.93 703.265 l 2
 579.65 703.265 614.68 698.745 635.02 689.705 c 1
 668.92 678.405 690.39 661.455 699.43 638.855 c 0
 703.95 631.321 706.21 621.528 706.21 609.475 c 1
 702.82 581.225 l 1
 694.534 542.052 673.44 510.411 639.54 486.305 c 0
 602.626 461.445 566.466 449.015 531.06 449.015 c 1
 664.4 268.215 l 2
 673.44 256.161 689.637 250.135 712.99 250.135 c 1
 702.82 203.805 l 1
 522.02 203.805 l 1
 406.76 437.715 l 1
 406.76 437.715 l 1
444.05 626.425 m 1
 416.93 497.605 l 1
 453.844 497.605 481.34 499.865 499.42 504.385 c 0
 549.894 515.685 578.144 541.299 584.17 581.225 c 1
 585.3 593.655 l 1
 585.3 624.541 567.22 640.738 531.06 642.245 c 2
 470.04 645.635 l 2
 455.727 645.635 447.063 639.231 444.05 626.425 c 1
EndSplineSet
EndChar
StartChar: macron
Encoding: 112 175
OldEncoding: 175
Width: 341
Flags: HW
Fore
-6.1748 862.71 m 1
 9.64453 937.29 l 1
 327.175 937.29 l 1
 311.355 862.71 l 1
 -6.1748 862.71 l 1
EndSplineSet
EndChar
StartChar: degree
Encoding: 113 176
OldEncoding: 176
Width: 308
Flags: HW
Fore
-12.0703 847 m 0
 -4.53711 883.16 17.3096 914.424 53.4697 940.79 c 0
 89.6299 965.65 129.18 978.08 172.12 978.08 c 0
 216.566 978.08 251.22 965.65 276.08 940.79 c 0
 295.666 920.45 305.46 897.474 305.46 871.86 c 0
 305.46 863.574 304.33 855.286 302.07 847 c 0
 294.536 810.086 272.69 778.824 236.53 753.21 c 0
 199.616 728.35 159.313 715.92 115.62 715.92 c 0
 72.6797 715.92 38.7803 728.35 13.9199 753.21 c 0
 -5.66699 772.796 -15.46 795.773 -15.46 822.14 c 0
 -15.46 829.674 -14.3301 837.96 -12.0703 847 c 0
74.9404 845.87 m 0
 73.4336 842.104 72.6797 838.336 72.6797 834.57 c 0
 72.6797 822.517 77.2002 811.594 86.2402 801.8 c 0
 97.54 789.746 112.23 783.72 130.31 783.72 c 0
 149.896 783.72 167.977 789.746 184.55 801.8 c 0
 201.124 814.606 211.294 829.296 215.06 845.87 c 0
 215.813 850.39 216.19 854.533 216.19 858.3 c 0
 216.19 870.354 212.046 881.276 203.76 891.07 c 0
 192.46 903.876 177.017 910.28 157.43 910.28 c 0
 139.35 910.28 122.023 904.254 105.45 892.2 c 0
 88.123 878.64 77.9531 863.196 74.9404 845.87 c 0
EndSplineSet
EndChar
StartChar: plusminus
Encoding: 114 177
OldEncoding: 177
Width: 830
Flags: HW
Fore
243.09 189.465 m 1
 298.46 450.495 l 1
 -25.8496 450.495 l 1
 8.0498 612.085 l 1
 332.36 612.085 l 1
 387.73 870.855 l 1
 579.83 870.855 l 1
 524.46 612.085 l 1
 848.77 612.085 l 1
 814.87 450.495 l 1
 490.56 450.495 l 1
 434.06 189.465 l 1
 243.09 189.465 l 1
719.95 4.14453 m 1
 -120.77 4.14453 l 1
 -88 157.825 l 1
 752.72 157.825 l 1
 719.95 4.14453 l 1
EndSplineSet
EndChar
StartChar: twosuperior
Encoding: 115 178
OldEncoding: 178
Width: 228
Flags: HW
Fore
-41.5352 620.88 m 1
 -31.7412 651.767 6.67871 689.434 73.7246 733.88 c 2
 127.965 768.91 l 1
 149.059 784.73 159.605 799.796 159.605 814.11 c 2
 159.605 814.11 159.605 814.486 159.605 815.24 c 0
 159.605 826.54 153.201 833.696 140.395 836.71 c 1
 123.445 837.84 l 1
 123.445 837.84 l 1
 122.315 837.84 l 1
 111.015 837.84 l 2
 95.9482 837.84 82.7646 833.32 71.4648 824.28 c 1
 71.4648 823.15 l 1
 70.335 822.02 l 2
 68.0752 819.76 65.4385 817.5 62.4248 815.24 c 1
 9.31543 820.89 l 1
 33.4219 874.376 76.3613 901.12 138.135 901.12 c 0
 198.401 901.12 228.535 882.286 228.535 844.62 c 0
 228.535 838.594 227.781 832.19 226.275 825.41 c 0
 220.249 796.783 213.845 777.95 207.065 768.91 c 2
 205.935 767.78 l 1
 204.805 766.65 l 1
 203.675 765.52 l 1
 192.375 753.09 l 1
 180.321 743.296 155.839 726.724 118.925 703.37 c 1
 94.0654 685.29 l 1
 199.155 685.29 l 1
 185.595 620.88 l 1
 -41.5352 620.88 l 1
EndSplineSet
EndChar
StartChar: threesuperior
Encoding: 116 179
OldEncoding: 179
Width: 239
Flags: HW
Fore
-13.9746 708.11 m 1
 52.6953 713.76 l 1
 54.9551 692.666 68.5146 682.12 93.375 682.12 c 0
 126.521 682.12 145.731 694.926 151.005 720.54 c 1
 151.005 727.32 l 2
 151.005 743.894 135.562 752.18 104.675 752.18 c 2
 93.375 751.05 l 1
 86.5947 751.05 l 1
 106.935 800.77 l 1
 134.809 800.77 151.005 811.316 155.525 832.41 c 0
 156.278 834.67 156.655 836.93 156.655 839.19 c 0
 156.655 851.996 147.238 858.4 128.405 858.4 c 0
 110.325 858.4 95.2588 848.606 83.2051 829.02 c 1
 18.7949 836.93 l 1
 44.4082 881.376 84.335 903.6 138.575 903.6 c 0
 198.841 903.6 228.975 886.65 228.975 852.75 c 0
 228.975 847.477 228.599 842.204 227.845 836.93 c 0
 221.818 810.563 200.725 792.106 164.565 781.56 c 1
 199.219 772.52 216.545 754.816 216.545 728.45 c 0
 216.545 723.93 215.791 718.656 214.285 712.63 c 0
 209.012 687.017 192.062 667.054 163.435 652.74 c 0
 139.329 639.18 112.961 632.4 84.335 632.4 c 0
 18.7949 632.4 -13.9746 657.26 -13.9746 706.98 c 0
 -13.9746 707.733 -13.9746 708.11 -13.9746 708.11 c 1
EndSplineSet
EndChar
StartChar: acute
Encoding: 117 180
OldEncoding: 180
Width: 275
Flags: HW
Fore
16.5303 805.655 m 1
 123.88 933.345 l 1
 285.47 933.345 l 1
 118.23 805.655 l 1
 16.5303 805.655 l 1
EndSplineSet
EndChar
StartChar: mu
Encoding: 118 181
OldEncoding: 181
Width: 686
Flags: HW
Fore
764.895 737.705 m 1
 615.735 38.2354 l 1
 466.575 38.2354 l 1
 484.655 120.725 l 1
 436.441 67.9912 385.591 36.7285 332.105 26.9346 c 0
 314.778 23.168 295.945 21.2852 275.605 21.2852 c 0
 216.845 21.2852 170.892 40.1182 137.745 77.7852 c 0
 130.211 86.8252 122.679 96.9951 115.145 108.295 c 1
 42.8252 -230.705 l 1
 -119.895 -230.705 l 1
 85.7646 737.705 l 1
 248.485 737.705 l 1
 185.205 440.515 l 2
 172.398 380.249 165.995 335.425 165.995 306.045 c 1
 168.255 271.015 l 1
 177.295 218.281 198.765 185.135 232.665 171.575 c 2
 233.795 171.575 l 2
 250.369 164.795 271.839 161.405 298.205 161.405 c 0
 362.238 161.405 412.711 182.875 449.625 225.815 c 0
 459.419 237.869 469.589 252.182 480.135 268.755 c 0
 503.488 307.175 522.698 360.661 537.765 429.215 c 0
 538.519 429.969 538.895 431.099 538.895 432.605 c 0
 538.895 434.865 539.271 436.749 540.025 438.255 c 1
 603.305 737.705 l 1
 764.895 737.705 l 1
EndSplineSet
EndChar
StartChar: paragraph
Encoding: 119 182
OldEncoding: 182
Width: 864
Flags: HW
Fore
145.025 -154.935 m 1
 285.145 503.855 l 1
 206.799 503.855 143.519 523.441 95.3047 562.615 c 0
 93.0449 564.121 90.7852 566.005 88.5254 568.265 c 0
 50.1055 602.165 30.8945 643.222 30.8945 691.435 c 0
 30.8945 704.995 32.4014 719.309 35.415 734.375 c 0
 51.9883 813.475 99.8252 874.495 178.925 917.435 c 1
 252.751 955.102 345.411 973.935 456.905 973.935 c 2
 954.105 973.935 l 1
 919.075 810.085 l 1
 818.505 810.085 l 1
 613.975 -154.935 l 1
 436.565 -154.935 l 1
 641.095 810.085 l 1
 532.615 810.085 l 1
 326.955 -154.935 l 1
 145.025 -154.935 l 1
EndSplineSet
EndChar
StartChar: periodcentered
Encoding: 120 183
OldEncoding: 183
Width: 185
Flags: HW
Fore
-2.26953 430.265 m 1
 25.9805 564.735 l 1
 176.27 564.735 l 1
 148.02 430.265 l 1
 -2.26953 430.265 l 1
EndSplineSet
EndChar
StartChar: cedilla
Encoding: 121 184
OldEncoding: 184
Width: 349
Flags: HW
Fore
85.2002 -4.375 m 1
 147.35 95.0654 l 1
 261.48 95.0654 l 1
 223.06 40.8252 l 1
 293.12 35.5518 328.15 15.2119 328.15 -20.1953 c 1
 325.89 -34.8848 l 1
 319.11 -68.0312 288.224 -93.2686 233.23 -110.595 c 0
 191.044 -124.909 142.454 -132.065 87.46 -132.065 c 0
 46.7803 -132.065 10.2432 -129.805 -22.1504 -125.285 c 1
 2.70996 -50.7051 l 1
 72.7695 -52.9648 l 1
 122.49 -52.9648 l 2
 151.116 -52.9648 168.066 -48.4453 173.34 -39.4053 c 2
 174.47 -38.2754 l 1
 177.86 -28.1055 l 1
 177.86 -22.4551 l 2
 177.86 -12.6621 165.807 -7.01172 141.7 -5.50488 c 2
 140.57 -5.50488 l 1
 85.2002 -4.375 l 1
EndSplineSet
EndChar
StartChar: onesuperior
Encoding: 122 185
OldEncoding: 185
Width: 256
Flags: HW
Fore
94.4502 595.815 m 1
 132.87 774.355 l 1
 84.6562 751.755 45.1064 737.818 14.2197 732.545 c 1
 30.04 805.995 l 1
 68.46 815.035 110.646 835.375 156.6 867.015 c 2
 171.29 877.185 l 1
 253.78 877.185 l 1
 193.89 595.815 l 1
 94.4502 595.815 l 1
EndSplineSet
EndChar
StartChar: ordmasculine
Encoding: 123 186
OldEncoding: 186
Width: 284
Flags: HW
Fore
166.64 920.68 m 0
 212.594 920.68 245.363 905.236 264.95 874.35 c 0
 277.004 856.27 283.03 834.424 283.03 808.81 c 0
 283.03 796.004 281.523 782.066 278.51 767 c 0
 268.716 723.307 248.754 687.523 218.62 659.65 c 0
 186.98 628.764 147.807 613.32 101.1 613.32 c 0
 56.6533 613.32 24.2598 628.764 3.91992 659.65 c 0
 -7.37988 676.977 -13.0303 698.07 -13.0303 722.93 c 0
 -13.0303 735.736 -11.5234 749.674 -8.50977 764.74 c 0
 1.2832 809.187 20.4932 845.347 49.1201 873.22 c 0
 81.5137 904.86 120.687 920.68 166.64 920.68 c 0
148.56 832.54 m 0
 114.66 832.54 92.8135 809.94 83.0195 764.74 c 0
 80.7598 754.946 79.6299 746.283 79.6299 738.75 c 0
 79.6299 710.876 93.1904 696.94 120.31 696.94 c 0
 154.964 696.94 177.187 719.916 186.98 765.87 c 0
 189.24 775.664 190.37 784.326 190.37 791.86 c 0
 190.37 818.98 176.434 832.54 148.56 832.54 c 0
EndSplineSet
EndChar
StartChar: guillemotright
Encoding: 124 187
OldEncoding: 187
Width: 876
Flags: HW
Fore
596.35 367.87 m 1
 272.04 14.1797 l 1
 451.71 14.1797 l 1
 855.12 369 l 1
 602 723.82 l 1
 401.99 722.69 l 1
 596.35 367.87 l 1
243.79 369 m 1
 -103.12 14.1797 l 1
 98.0195 14.1797 l 1
 496.91 369 l 1
 249.44 723.82 l 1
 47.1699 723.82 l 1
 243.79 369 l 1
EndSplineSet
EndChar
StartChar: onequarter
Encoding: 125 188
OldEncoding: 188
Width: 1150
Flags: HW
Fore
-28.0654 -34.7803 m 1
 923.395 882.78 l 1
 1103.07 882.78 l 1
 151.605 -34.7803 l 1
 -28.0654 -34.7803 l 1
133.525 434.17 m 1
 199.065 741.53 l 1
 147.839 710.644 109.419 691.057 83.8047 682.77 c 2
 54.4248 674.86 l 1
 74.7646 770.91 l 1
 122.979 783.717 173.451 811.967 226.185 855.66 c 2
 255.565 880.52 l 1
 384.385 880.52 l 1
 289.465 434.17 l 1
 133.525 434.17 l 1
793.445 -20.0898 m 1
 807.005 40.9297 l 1
 562.925 40.9297 l 1
 588.915 164.1 l 1
 906.445 426.26 l 1
 1036.39 426.26 l 1
 978.765 153.93 l 1
 1021.71 153.93 l 1
 997.975 40.9297 l 1
 955.035 40.9297 l 1
 941.475 -20.0898 l 1
 793.445 -20.0898 l 1
830.735 153.93 m 1
 860.115 291.79 l 1
 692.875 153.93 l 1
 830.735 153.93 l 1
EndSplineSet
EndChar
StartChar: onehalf
Encoding: 126 189
OldEncoding: 189
Width: 1151
Flags: HW
Fore
-28.6748 -34.6504 m 1
 922.785 884.04 l 1
 1095.67 884.04 l 1
 144.215 -34.6504 l 1
 -28.6748 -34.6504 l 1
137.435 434.3 m 1
 202.975 741.66 l 1
 150.241 709.267 108.055 688.926 76.415 680.64 c 0
 70.3887 678.38 63.9854 676.496 57.2051 674.99 c 1
 76.415 771.04 l 1
 126.889 784.6 179.999 814.733 235.745 861.44 c 2
 259.475 880.65 l 1
 386.035 880.65 l 1
 291.115 434.3 l 1
 137.435 434.3 l 1
617.685 -38.04 m 1
 631.245 25.9932 680.211 86.2598 764.585 142.76 c 1
 893.405 224.12 l 1
 905.459 233.914 912.238 242.954 913.745 251.24 c 1
 914.875 270.45 l 1
 914.875 284.764 908.849 293.804 896.795 297.57 c 2
 868.545 303.22 l 1
 832.385 300.206 810.539 290.79 803.005 274.97 c 0
 803.005 274.216 802.629 273.086 801.875 271.58 c 1
 695.655 278.36 l 1
 734.829 364.24 800.369 407.18 892.275 407.18 c 0
 987.195 407.18 1034.66 377.046 1034.66 316.78 c 0
 1034.66 306.986 1033.15 296.816 1030.13 286.27 c 0
 1021.85 247.097 997.365 208.677 956.685 171.01 c 1
 842.555 90.7803 l 1
 808.655 67.0498 l 1
 986.065 67.0498 l 1
 963.465 -38.04 l 1
 617.685 -38.04 l 1
EndSplineSet
EndChar
StartChar: threequarters
Encoding: 127 190
OldEncoding: 190
Width: 1151
Flags: HW
Fore
-3.55469 552.495 m 1
 112.835 559.275 l 1
 114.341 521.608 134.305 502.775 172.725 502.775 c 0
 222.445 502.775 252.201 524.999 261.995 569.445 c 1
 264.255 586.395 l 1
 264.255 616.528 247.682 633.479 214.535 637.245 c 0
 210.769 637.999 206.625 638.375 202.105 638.375 c 2
 177.245 637.245 l 1
 164.815 637.245 l 1
 199.845 716.345 l 1
 245.799 716.345 271.789 732.165 277.815 763.805 c 0
 279.321 767.571 280.075 770.961 280.075 773.975 c 0
 280.075 794.315 265.009 804.485 234.875 804.485 c 0
 205.495 804.485 181.765 789.419 163.685 759.285 c 1
 52.9453 773.975 l 1
 95.8848 850.062 162.555 888.105 252.955 888.105 c 0
 353.901 888.105 404.375 858.725 404.375 799.965 c 0
 404.375 791.679 403.245 783.015 400.985 773.975 c 0
 391.191 728.021 356.161 696.005 295.895 677.925 c 1
 352.395 662.858 380.645 632.725 380.645 587.525 c 0
 380.645 579.238 379.515 570.198 377.255 560.405 c 0
 368.215 515.959 339.965 481.305 292.505 456.445 c 0
 251.825 433.092 207.755 421.415 160.295 421.415 c 0
 51.0615 421.415 -3.55469 463.602 -3.55469 547.975 c 0
 -3.55469 552.495 l 1
-30.6748 -35.1055 m 1
 920.785 882.455 l 1
 1093.67 882.455 l 1
 142.215 -35.1055 l 1
 -30.6748 -35.1055 l 1
804.395 -20.415 m 1
 816.825 40.6055 l 1
 563.705 40.6055 l 1
 586.305 146.825 l 1
 916.265 425.935 l 1
 1042.83 425.935 l 1
 980.675 136.655 l 1
 1017.96 136.655 l 1
 998.755 40.6055 l 1
 961.465 40.6055 l 1
 947.905 -20.415 l 1
 804.395 -20.415 l 1
837.165 136.655 m 1
 869.935 291.465 l 1
 689.135 136.655 l 1
 837.165 136.655 l 1
EndSplineSet
EndChar
StartChar: questiondown
Encoding: 128 191
OldEncoding: 191
Width: 685
Flags: HW
Fore
508.52 688.885 m 1
 476.88 540.855 l 1
 308.51 540.855 l 1
 340.15 688.885 l 1
 508.52 688.885 l 1
457.67 461.755 m 1
 450.89 430.115 l 2
 435.823 360.055 414.354 308.829 386.48 276.435 c 1
 351.826 223.701 297.964 171.345 224.89 119.365 c 1
 166.13 80.1914 133.36 43.6553 126.58 9.75488 c 0
 124.32 2.22168 123.19 -5.31152 123.19 -12.8447 c 0
 123.19 -36.9512 132.606 -58.0449 151.44 -76.125 c 0
 174.794 -99.4785 205.68 -111.155 244.1 -111.155 c 0
 328.474 -111.155 390.624 -84.7891 430.55 -32.0547 c 0
 444.11 -13.9746 455.786 7.11816 465.58 31.2246 c 1
 622.65 17.665 l 1
 556.356 -159.369 423.394 -247.885 223.76 -247.885 c 0
 131.854 -247.885 58.4033 -226.415 3.41016 -183.475 c 0
 -43.2969 -147.315 -66.6504 -100.985 -66.6504 -44.4854 c 0
 -66.6504 -29.418 -65.1436 -13.2217 -62.1299 4.10547 c 0
 -46.3096 77.9316 23.373 156.278 146.92 239.145 c 0
 187.6 266.265 222.63 297.905 252.01 334.065 c 0
 273.856 361.938 290.807 404.501 302.86 461.755 c 1
 457.67 461.755 l 1
EndSplineSet
EndChar
StartChar: caron
Encoding: 129 711
OldEncoding: 711
Width: 1307
Flags: HW
Fore
611.805 1228.33 m 1
 845.715 1383.13 l 1
 872.835 1399.71 892.799 1408 905.605 1408 c 0
 927.451 1408 946.285 1400.46 962.105 1385.39 c 1
 975.665 1368.07 982.445 1350.37 982.445 1332.29 c 0
 982.445 1303.66 965.495 1278.04 931.595 1255.45 c 2
 611.805 1043 l 1
 297.665 1255.45 l 2
 262.259 1279.55 244.555 1304.41 244.555 1330.03 c 0
 244.555 1351.12 252.089 1369.58 267.155 1385.39 c 0
 282.975 1400.46 301.432 1408 322.525 1408 c 0
 336.085 1408 356.425 1399.71 383.545 1383.13 c 1
 611.805 1228.33 l 1
EndSplineSet
EndChar
StartChar: ring
Encoding: 130 730
OldEncoding: 730
Width: 1307
Flags: HW
Fore
834.415 1262.58 m 0
 834.415 1199.3 812.945 1146.2 770.005 1103.25 c 0
 727.065 1060.32 675.085 1038.84 614.065 1038.84 c 0
 552.291 1038.84 499.935 1060.32 456.995 1103.25 c 0
 414.055 1146.2 392.585 1199.3 392.585 1262.58 c 0
 392.585 1320.59 414.055 1370.69 456.995 1412.88 c 0
 501.441 1455.06 553.799 1476.16 614.065 1476.16 c 0
 677.345 1476.16 730.079 1455.06 772.265 1412.88 c 0
 813.698 1372.2 834.415 1322.1 834.415 1262.58 c 0
730.455 1262.58 m 0
 730.455 1291.96 719.531 1317.58 697.685 1339.42 c 0
 673.579 1361.27 645.705 1372.2 614.065 1372.2 c 0
 580.919 1372.2 553.421 1361.27 531.575 1339.42 c 0
 508.222 1318.33 496.545 1292.72 496.545 1262.58 c 0
 496.545 1230.19 508.222 1202.7 531.575 1180.09 c 0
 554.175 1156.74 581.671 1145.06 614.065 1145.06 c 0
 647.211 1145.06 675.085 1156.74 697.685 1180.09 c 0
 719.531 1203.45 730.455 1230.95 730.455 1262.58 c 0
EndSplineSet
EndChar
StartChar: uni0E01
Encoding: 131 3585
OldEncoding: 3585
Width: 807
Flags: HW
Fore
203.645 551.225 m 1
 196.111 557.251 179.915 563.655 155.055 570.435 c 0
 125.675 579.475 97.8018 584.749 71.4346 586.255 c 1
 88.3848 630.325 l 1
 127.935 665.355 l 1
 143.001 680.421 170.499 699.631 210.425 722.985 c 1
 262.405 749.352 307.229 768.562 344.895 780.615 c 0
 394.615 796.435 450.361 804.345 512.135 804.345 c 0
 575.415 804.345 626.265 794.929 664.685 776.095 c 0
 704.611 755.755 732.108 726.375 747.175 687.955 c 0
 753.955 674.395 757.345 655.938 757.345 632.585 c 0
 757.345 603.959 751.695 574.579 740.395 544.445 c 1
 565.245 -1.34473 l 1
 430.775 -1.34473 l 1
 603.665 533.145 l 1
 611.951 555.745 616.095 574.955 616.095 590.775 c 0
 616.095 617.895 607.432 641.249 590.105 660.835 c 0
 564.491 688.709 523.812 702.645 468.065 702.645 c 0
 403.278 702.645 331.335 682.305 252.235 641.625 c 1
 259.015 639.365 269.185 637.105 282.745 634.845 c 1
 333.595 619.025 l 1
 355.441 609.231 373.898 596.801 388.965 581.735 c 1
 368.625 517.325 l 1
 343.012 517.325 315.892 509.415 287.265 493.595 c 0
 255.625 477.021 231.519 442.369 214.945 389.635 c 1
 88.3848 -1.34473 l 1
 -48.3447 -1.34473 l 1
 77.085 380.595 l 1
 91.3984 427.302 108.349 461.955 127.935 484.555 c 1
 146.015 510.169 171.251 532.392 203.645 551.225 c 1
EndSplineSet
EndChar
StartChar: uni0E02
Encoding: 132 3586
OldEncoding: 3586
Width: 781
Flags: HW
Fore
410 588.385 m 1
 416.026 605.711 419.04 621.908 419.04 636.975 c 0
 419.04 653.549 416.026 665.979 410 674.265 c 1
 394.18 690.839 375.347 700.255 353.5 702.515 c 1
 361.41 667.485 l 1
 363.67 656.185 l 1
 363.67 641.871 359.526 624.169 351.24 603.075 c 0
 336.174 559.381 309.43 521.339 271.01 488.945 c 1
 231.084 459.565 187.767 444.875 141.06 444.875 c 0
 93.5996 444.875 60.4541 460.318 41.6201 491.205 c 0
 31.0732 509.285 25.7998 529.249 25.7998 551.095 c 0
 25.7998 570.682 28.8135 588.009 34.8398 603.075 c 0
 48.4004 645.262 71.376 682.175 103.77 713.815 c 1
 140.684 745.455 178.727 768.432 217.9 782.745 c 0
 259.334 798.565 300.014 806.475 339.94 806.475 c 0
 416.026 806.475 471.773 785.381 507.18 743.195 c 0
 526.767 719.089 536.56 690.085 536.56 656.185 c 0
 536.56 635.845 533.546 616.259 527.52 597.425 c 0
 516.974 564.278 505.296 540.549 492.49 526.235 c 1
 478.177 502.881 462.733 484.425 446.16 470.865 c 1
 399.83 420.015 l 1
 391.544 407.961 382.504 387.621 372.71 358.995 c 2
 293.61 118.305 l 1
 379.49 118.305 l 2
 406.61 118.305 425.82 122.448 437.12 130.735 c 1
 447.666 141.281 457.084 159.738 465.37 186.105 c 2
 657.47 785.005 l 1
 794.2 785.005 l 1
 587.41 148.815 l 1
 567.07 87.7949 539.573 47.8682 504.92 29.0352 c 1
 471.773 8.69531 416.78 -1.47461 339.94 -1.47461 c 2
 25.7998 -1.47461 l 1
 64.2197 118.305 l 1
 156.88 118.305 l 1
 233.72 354.475 l 2
 242.006 380.089 252.93 403.441 266.49 424.535 c 1
 288.336 450.148 307.546 469.358 324.12 482.165 c 1
 374.97 530.755 l 1
 410 588.385 l 1
173.83 539.795 m 0
 192.664 539.795 209.613 546.198 224.68 559.005 c 0
 236.733 569.551 246.526 583.111 254.06 599.685 c 1
 256.32 623.415 l 1
 258.58 629.441 257.073 636.222 251.8 643.755 c 0
 245.773 655.055 232.966 660.705 213.38 660.705 c 0
 196.054 660.705 178.727 654.301 161.4 641.495 c 0
 147.84 630.195 138.8 616.259 134.28 599.685 c 1
 132.02 579.345 l 1
 136.54 559.005 l 1
 143.32 546.198 155.75 539.795 173.83 539.795 c 0
EndSplineSet
EndChar
StartChar: uni0E03
Encoding: 133 3587
OldEncoding: 3587
Width: 866
Flags: HW
Fore
132.64 340.785 m 0
 70.8662 340.785 32.4463 359.995 17.3799 398.415 c 1
 7.58691 417.249 2.69043 438.342 2.69043 461.695 c 0
 2.69043 490.321 8.33984 517.818 19.6396 544.185 c 1
 42.2402 607.465 l 1
 59.5664 645.131 88.1934 681.291 128.12 715.945 c 0
 161.267 745.325 196.674 768.301 234.34 784.875 c 0
 268.994 800.695 297.62 808.605 320.22 808.605 c 1
 391.41 760.015 l 1
 507.8 808.605 l 1
 545.466 801.825 577.86 783.369 604.98 753.235 c 1
 621.554 730.635 629.84 707.281 629.84 683.175 c 1
 625.32 648.145 l 1
 615.526 620.271 602.344 598.801 585.77 583.735 c 2
 530.4 537.405 l 1
 515.334 522.339 502.15 500.869 490.85 472.995 c 1
 377.85 118.175 l 1
 465.99 118.175 l 2
 494.616 118.175 513.073 122.318 521.36 130.605 c 0
 530.4 138.892 539.816 157.349 549.61 185.975 c 1
 743.97 784.875 l 1
 877.31 784.875 l 1
 682.95 185.975 l 1
 663.363 119.682 637.374 71.8447 604.98 42.4648 c 1
 575.6 13.085 525.504 -1.60547 454.69 -1.60547 c 2
 108.91 -1.60547 l 1
 146.2 118.175 l 1
 241.12 118.175 l 1
 362.03 484.295 l 1
 382.37 549.835 420.79 595.411 477.29 621.025 c 1
 498.384 632.325 510.06 643.249 512.32 653.795 c 2
 514.58 662.835 l 1
 514.58 676.395 502.903 690.331 479.55 704.645 c 1
 357.51 653.795 l 1
 264.85 704.645 l 1
 241.496 700.879 218.896 689.955 197.05 671.875 c 0
 181.23 658.315 169.177 644.379 160.89 630.065 c 1
 164.656 633.831 172.19 636.845 183.49 639.105 c 1
 192.53 643.625 208.727 645.885 232.08 645.885 c 0
 262.214 645.885 287.073 639.105 306.66 625.545 c 0
 323.986 614.245 335.286 597.295 340.56 574.695 c 1
 342.82 548.705 l 1
 342.82 532.885 340.56 516.688 336.04 500.115 c 0
 322.48 454.915 297.244 416.495 260.33 384.855 c 1
 221.91 355.475 179.347 340.785 132.64 340.785 c 0
160.89 433.445 m 0
 176.71 433.445 193.66 439.472 211.74 451.525 c 1
 225.3 464.331 234.34 478.269 238.86 493.335 c 1
 243.38 517.065 l 1
 238.86 537.405 l 1
 232.08 548.705 218.896 554.355 199.31 554.355 c 0
 183.49 554.355 167.294 547.951 150.72 535.145 c 0
 137.16 525.352 126.613 511.415 119.08 493.335 c 1
 116.82 477.515 l 1
 116.82 468.475 119.08 459.812 123.6 451.525 c 0
 131.134 439.472 143.563 433.445 160.89 433.445 c 0
EndSplineSet
EndChar
StartChar: uni0E04
Encoding: 134 3588
OldEncoding: 3588
Width: 797
Flags: HW
Fore
298.485 294.325 m 1
 263.455 298.845 l 1
 248.389 303.365 240.855 306.379 240.855 307.885 c 1
 240.855 307.885 l 1
 139.155 -1.73535 l 1
 2.4248 -1.73535 l 1
 46.4951 134.995 l 2
 55.5352 162.115 60.0547 188.105 60.0547 212.965 c 2
 60.0547 229.915 l 1
 58.5488 244.981 53.2754 276.621 44.2354 324.835 c 1
 35.1953 358.735 30.6748 391.129 30.6748 422.015 c 2
 30.6748 433.315 l 2
 30.6748 461.188 35.9482 491.321 46.4951 523.715 c 0
 65.3291 582.475 99.2285 634.831 148.195 680.785 c 0
 197.161 725.231 250.271 757.625 307.525 777.965 c 0
 369.299 799.812 428.812 810.735 486.065 810.735 c 0
 546.331 810.735 597.182 800.565 638.615 780.225 c 0
 684.568 759.131 715.455 727.491 731.275 685.305 c 0
 738.809 662.705 742.575 641.235 742.575 620.895 c 0
 742.575 597.541 737.302 568.161 726.755 532.755 c 1
 556.125 -1.73535 l 1
 419.395 -1.73535 l 1
 590.025 525.975 l 2
 597.559 548.575 601.325 568.539 601.325 585.865 c 0
 601.325 613.738 593.039 637.845 576.465 658.185 c 1
 544.071 689.071 500.001 704.515 444.255 704.515 c 0
 384.741 704.515 327.865 688.318 273.625 655.925 c 0
 216.371 622.025 178.329 576.449 159.495 519.195 c 0
 150.455 488.309 145.935 459.682 145.935 433.315 c 2
 145.935 426.535 l 2
 145.935 401.675 146.688 389.245 148.195 389.245 c 2
 150.455 391.505 l 1
 164.015 432.185 191.135 477.762 231.815 528.235 c 0
 273.249 578.709 329.371 605.075 400.185 607.335 c 0
 448.398 607.335 481.545 592.645 499.625 563.265 c 0
 509.419 546.691 514.315 528.235 514.315 507.895 c 0
 514.315 486.802 510.925 467.969 504.145 451.395 c 0
 491.339 410.715 466.855 374.555 430.695 342.915 c 1
 390.015 312.781 345.945 296.585 298.485 294.325 c 1
331.255 389.245 m 0
 348.581 389.245 365.531 395.271 382.105 407.325 c 1
 393.405 420.131 402.821 434.821 410.355 451.395 c 1
 414.875 475.125 l 1
 410.355 495.465 l 1
 402.821 506.765 389.639 512.415 370.805 512.415 c 0
 352.725 512.415 336.528 506.012 322.215 493.205 c 1
 307.901 483.411 296.979 469.475 289.445 451.395 c 1
 287.185 431.055 l 1
 291.705 407.325 l 1
 299.238 395.271 312.421 389.245 331.255 389.245 c 0
EndSplineSet
EndChar
StartChar: uni0E05
Encoding: 135 3589
OldEncoding: 3589
Width: 797
Flags: HW
Fore
372.805 800.085 m 1
 479.025 749.235 l 1
 622.535 800.085 l 1
 661.709 788.785 692.595 766.938 715.195 734.545 c 1
 732.521 706.671 742.315 673.525 744.575 635.105 c 0
 744.575 602.711 739.302 568.812 728.755 533.405 c 1
 558.125 -1.08496 l 1
 421.395 -1.08496 l 1
 592.025 528.885 l 1
 606.339 567.305 613.495 598.191 613.495 621.545 c 0
 613.495 643.392 601.065 663.355 576.205 681.435 c 1
 441.735 637.365 l 1
 340.035 688.215 l 1
 292.575 670.889 255.661 648.665 229.295 621.545 c 1
 196.148 590.658 173.549 556.759 161.495 519.845 c 0
 152.455 488.959 147.935 460.331 147.935 433.965 c 2
 147.935 427.185 l 2
 147.935 402.325 148.688 389.895 150.195 389.895 c 2
 152.455 392.155 l 1
 166.015 432.835 193.135 478.411 233.815 528.885 c 0
 275.249 579.358 331.371 605.725 402.185 607.985 c 0
 450.398 607.985 483.545 593.295 501.625 563.915 c 0
 511.419 547.342 516.315 528.885 516.315 508.545 c 0
 516.315 488.205 513.302 469.371 507.275 452.045 c 0
 493.715 411.365 468.855 375.205 432.695 343.565 c 1
 392.015 313.432 347.945 297.235 300.485 294.975 c 1
 266.585 299.495 l 1
 249.259 304.015 240.595 307.028 240.595 308.535 c 1
 240.595 308.535 l 1
 141.155 -1.08496 l 1
 4.4248 -1.08496 l 1
 48.4951 135.645 l 2
 57.5352 162.765 62.0547 188.755 62.0547 213.615 c 2
 62.0547 230.565 l 1
 60.5488 245.631 55.2754 277.271 46.2354 325.485 c 1
 37.1953 359.385 32.6748 391.778 32.6748 422.665 c 2
 32.6748 433.965 l 2
 32.6748 461.839 37.9482 491.972 48.4951 524.365 c 0
 96.709 659.965 204.812 751.871 372.805 800.085 c 1
333.255 389.895 m 0
 350.581 389.895 367.531 395.921 384.105 407.975 c 1
 395.405 420.781 404.821 435.472 412.355 452.045 c 1
 416.875 475.775 l 1
 412.355 496.115 l 1
 404.821 507.415 391.639 513.065 372.805 513.065 c 0
 354.725 513.065 338.528 506.661 324.215 493.855 c 1
 309.901 484.062 298.979 470.125 291.445 452.045 c 1
 289.185 431.705 l 1
 293.705 407.975 l 1
 301.238 395.921 314.421 389.895 333.255 389.895 c 0
EndSplineSet
EndChar
StartChar: uni0E06
Encoding: 136 3590
OldEncoding: 3590
Width: 992
Flags: HW
Fore
492.375 465.385 m 2
 459.605 363.685 l 1
 493.505 358.411 526.651 348.995 559.045 335.435 c 0
 580.139 324.889 608.765 305.679 644.925 277.805 c 1
 670.539 255.959 686.735 236.749 693.515 220.175 c 1
 876.575 786.305 l 1
 1009.92 786.305 l 1
 755.665 -0.174805 l 1
 618.935 -0.174805 l 1
 621.195 15.6445 l 1
 621.195 34.4785 618.182 55.5713 612.155 78.9248 c 0
 603.115 117.345 583.151 155.012 552.265 191.925 c 0
 523.639 225.071 480.321 245.035 422.315 251.815 c 1
 378.245 119.605 l 1
 363.932 78.9248 340.955 46.5312 309.315 22.4248 c 0
 273.155 -3.18848 233.605 -15.9951 190.665 -15.9951 c 0
 136.425 -15.9951 100.265 1.70801 82.1846 37.1152 c 0
 71.6387 55.9482 66.3652 78.1719 66.3652 103.785 c 0
 66.3652 119.605 70.1309 138.815 77.665 161.415 c 0
 93.4854 211.889 124.371 256.711 170.325 295.885 c 0
 214.019 335.059 265.621 357.658 325.135 363.685 c 1
 362.425 478.945 l 1
 382.765 544.485 421.185 590.062 477.685 615.675 c 1
 498.778 622.455 510.455 632.249 512.715 645.055 c 1
 512.715 655.225 l 2
 512.715 670.291 501.791 684.605 479.945 698.165 c 1
 357.905 647.315 l 1
 265.245 698.165 l 1
 238.125 693.645 214.019 682.345 192.925 664.265 c 1
 146.595 615.675 l 1
 156.389 620.948 167.312 625.469 179.365 629.235 c 0
 189.159 632.249 206.861 635.262 232.475 638.275 c 1
 277.675 638.275 309.315 624.339 327.395 596.465 c 0
 337.941 581.398 343.215 562.188 343.215 538.835 c 0
 343.215 524.521 340.955 509.079 336.435 492.505 c 0
 323.629 451.071 296.885 414.158 256.205 381.765 c 0
 216.278 350.879 175.222 335.435 133.035 335.435 c 0
 72.0146 337.695 33.5947 356.151 17.7754 390.805 c 0
 7.98145 410.392 3.08496 431.108 3.08496 452.955 c 0
 3.08496 474.049 7.98145 501.169 17.7754 534.315 c 1
 42.6348 598.725 l 1
 71.2617 657.485 115.331 706.075 174.845 744.495 c 0
 235.111 782.161 282.948 800.995 318.355 800.995 c 1
 392.935 754.665 l 1
 505.935 800.995 l 1
 542.095 797.229 575.241 779.525 605.375 747.885 c 1
 621.948 725.285 630.235 701.932 630.235 677.825 c 1
 625.715 642.795 l 1
 617.429 621.701 609.142 605.505 600.855 594.205 c 1
 559.045 555.785 l 2
 531.925 530.171 517.988 516.988 517.235 516.235 c 0
 507.441 502.675 499.155 485.725 492.375 465.385 c 2
179.365 108.305 m 1
 181.625 94.7451 191.041 87.9648 207.615 87.9648 c 0
 224.941 87.9648 236.995 98.5117 243.775 119.605 c 2
 290.105 256.335 l 1
 266.751 254.075 244.528 243.528 223.435 224.695 c 1
 201.589 201.341 187.651 179.495 181.625 159.155 c 1
 177.105 127.515 l 1
 179.365 108.305 l 1
156.765 425.835 m 0
 174.091 425.835 191.795 431.861 209.875 443.915 c 1
 223.435 455.215 232.475 469.905 236.995 487.985 c 1
 241.515 511.715 l 1
 236.995 529.795 l 1
 229.461 541.849 216.278 547.875 197.445 547.875 c 0
 181.625 547.875 164.675 541.849 146.595 529.795 c 0
 134.541 520.001 124.749 506.065 117.215 487.985 c 1
 114.955 469.905 l 1
 114.955 459.358 117.215 450.695 121.735 443.915 c 1
 126.255 431.861 137.932 425.835 156.765 425.835 c 0
EndSplineSet
EndChar
StartChar: uni0E07
Encoding: 137 3591
OldEncoding: 3591
Width: 634
Flags: HW
Fore
495.735 801.385 m 0
 542.441 801.385 576.341 787.448 597.435 759.575 c 1
 610.241 737.729 616.645 717.389 616.645 698.555 c 0
 616.645 683.488 614.009 668.421 608.735 653.355 c 1
 433.585 113.215 l 1
 420.778 71.7812 395.919 38.6348 359.005 13.7754 c 0
 325.858 -10.332 288.945 -22.3848 248.265 -22.3848 c 0
 183.479 -22.3848 144.305 2.85156 130.745 53.3252 c 2
 14.3555 492.895 l 1
 144.305 562.955 l 1
 181.595 430.745 l 1
 232.445 236.385 l 1
 257.305 125.645 l 1
 264.085 103.799 271.241 92.875 278.775 92.875 c 0
 287.815 92.875 296.855 107.565 305.895 136.945 c 1
 422.285 492.895 l 1
 414.375 492.895 l 1
 394.035 490.635 l 1
 345.821 490.635 313.429 506.079 296.855 536.965 c 0
 286.309 555.045 281.035 575.009 281.035 596.855 c 0
 281.035 614.935 284.049 631.131 290.075 645.445 c 1
 301.375 687.631 326.611 724.169 365.785 755.055 c 0
 404.959 785.941 448.275 801.385 495.735 801.385 c 0
426.805 583.295 m 0
 442.625 583.295 459.575 589.321 477.655 601.375 c 1
 490.461 613.429 500.255 628.119 507.035 645.445 c 1
 509.295 666.915 l 1
 504.775 689.515 l 1
 498.749 700.815 485.941 706.465 466.355 706.465 c 0
 449.028 706.465 432.831 700.062 417.765 687.255 c 1
 401.945 676.709 391.775 662.771 387.255 645.445 c 1
 382.735 625.105 l 1
 382.735 616.818 384.995 608.908 389.515 601.375 c 0
 397.049 589.321 409.479 583.295 426.805 583.295 c 0
EndSplineSet
EndChar
StartChar: uni0E08
Encoding: 138 3592
OldEncoding: 3592
Width: 748
Flags: HW
Fore
560.06 166.101 m 2
 537.46 96.7939 509.586 51.9697 476.44 31.6299 c 0
 440.28 10.5371 400.73 -0.00976562 357.79 -0.00976562 c 0
 322.384 -0.00976562 295.64 9.03027 277.56 27.1104 c 0
 258.727 43.6836 249.31 68.5439 249.31 101.69 c 2
 249.31 110.73 l 1
 256.09 210.17 l 1
 258.35 261.021 l 1
 258.35 270.061 l 1
 255.336 267.047 246.296 261.773 231.23 254.24 c 0
 216.164 248.214 196.2 245.2 171.34 245.2 c 0
 120.113 247.46 86.5898 262.904 70.7695 291.53 c 1
 60.2236 306.597 54.9502 325.807 54.9502 349.16 c 0
 54.9502 367.24 57.9629 384.19 63.9902 400.01 c 0
 79.8096 442.95 106.177 479.11 143.09 508.49 c 0
 180.756 539.377 224.073 554.82 273.04 554.82 c 0
 351.387 554.82 392.066 520.544 395.08 451.99 c 1
 395.08 439.561 l 1
 387.546 -245.974 383.78 -350.31 383.78 126.55 c 1
 381.52 108.47 l 1
 381.52 100.937 383.78 97.1699 388.3 97.1699 c 0
 397.34 97.1699 406.756 111.106 416.55 138.98 c 1
 547.63 545.78 l 2
 555.916 570.641 560.06 590.604 560.06 605.67 c 0
 560.06 629.776 552.15 650.116 536.33 666.69 c 1
 509.21 689.29 470.79 700.59 421.07 700.59 c 0
 326.15 700.59 230.477 657.65 134.05 571.771 c 1
 66.25 633.92 l 1
 176.236 751.44 307.693 810.2 460.62 810.2 c 0
 549.514 810.2 616.56 787.601 661.76 742.4 c 1
 686.62 715.28 699.05 679.874 699.05 636.18 c 0
 699.05 612.074 694.153 583.446 684.36 550.3 c 1
 560.06 166.101 l 2
200.72 340.12 m 0
 221.813 340.12 238.764 345.394 251.57 355.94 c 0
 265.13 366.486 274.546 381.177 279.82 400.01 c 1
 284.34 423.74 l 1
 282.08 444.08 l 1
 276.054 454.627 262.116 459.9 240.27 459.9 c 0
 222.943 459.9 205.994 453.874 189.42 441.82 c 0
 176.613 431.273 166.443 417.337 158.91 400.01 c 1
 156.65 381.93 l 1
 156.65 372.891 158.91 364.98 163.43 358.2 c 0
 171.716 346.146 184.146 340.12 200.72 340.12 c 0
EndSplineSet
EndChar
StartChar: uni0E09
Encoding: 139 3593
OldEncoding: 3593
Width: 872
Flags: HW
Fore
189.615 534.055 m 0
 234.062 534.055 266.455 520.871 286.795 494.505 c 0
 298.849 477.932 304.875 458.722 304.875 436.875 c 0
 304.875 425.575 302.615 411.639 298.095 395.065 c 1
 238.205 207.485 l 1
 275.119 244.398 322.955 276.039 381.715 302.405 c 0
 432.941 327.265 487.559 345.722 545.565 357.775 c 1
 604.325 538.575 l 2
 611.858 562.682 615.625 581.892 615.625 596.205 c 0
 615.625 619.559 609.222 639.898 596.415 657.225 c 1
 570.802 685.099 528.615 697.905 469.855 695.645 c 0
 429.929 695.645 385.105 682.839 335.385 657.225 c 0
 287.925 631.611 243.102 600.725 200.915 564.565 c 1
 129.725 626.715 l 1
 179.445 676.435 239.335 719.751 309.395 756.665 c 1
 378.701 789.059 447.631 805.255 516.185 805.255 c 0
 611.105 805.255 679.659 781.901 721.845 735.195 c 1
 743.691 703.555 754.615 668.901 754.615 631.235 c 0
 754.615 601.102 748.965 570.969 737.665 540.835 c 1
 677.775 357.775 l 1
 724.481 348.735 754.615 325.759 768.175 288.845 c 0
 774.201 274.531 777.215 256.829 777.215 235.735 c 0
 777.215 212.381 772.695 185.262 763.655 154.375 c 0
 747.835 103.901 719.209 63.2217 677.775 32.335 c 1
 638.602 -0.0585938 596.039 -16.2549 550.085 -16.2549 c 0
 514.679 -16.2549 489.441 -6.46191 474.375 13.125 c 0
 461.568 27.4385 455.165 42.1279 455.165 57.1953 c 0
 455.165 72.2617 458.555 89.9648 465.335 110.305 c 2
 513.925 258.335 l 1
 437.839 241.009 365.895 207.108 298.095 156.635 c 1
 236.321 108.422 192.251 56.0654 165.885 -0.43457 c 1
 34.8047 -0.43457 l 1
 108.255 226.695 l 1
 99.2148 224.435 l 1
 87.915 222.175 l 1
 38.9482 224.435 6.55469 240.631 -9.26465 270.765 c 1
 -20.5654 286.585 -26.2148 305.041 -26.2148 326.135 c 0
 -26.2148 340.448 -22.8252 357.398 -16.0449 376.985 c 0
 -5.49805 416.158 19.7383 452.318 59.665 485.465 c 0
 99.5908 517.858 142.909 534.055 189.615 534.055 c 0
675.515 165.675 m 0
 680.035 179.988 682.295 193.171 682.295 205.225 c 1
 677.775 228.955 l 1
 673.255 244.021 663.085 253.815 647.265 258.335 c 1
 598.675 112.565 l 1
 596.415 99.0049 l 1
 596.415 88.458 601.312 83.1846 611.105 83.1846 c 1
 620.145 86.1982 627.679 90.7188 633.705 96.7451 c 0
 645.759 108.799 654.421 120.475 659.695 131.775 c 0
 668.735 146.841 674.009 158.142 675.515 165.675 c 0
120.685 317.095 m 0
 138.765 317.095 155.715 323.121 171.535 335.175 c 0
 185.095 346.475 194.135 361.165 198.655 379.245 c 1
 203.175 401.845 l 1
 200.915 423.315 l 1
 194.889 433.861 180.951 439.135 159.105 439.135 c 0
 142.531 439.135 126.335 433.108 110.515 421.055 c 0
 97.709 409.755 87.915 395.818 81.1348 379.245 c 1
 76.6152 357.775 l 1
 76.6152 350.995 78.875 344.215 83.3945 337.435 c 0
 90.1748 323.875 102.605 317.095 120.685 317.095 c 0
EndSplineSet
EndChar
StartChar: uni0E0A
Encoding: 140 3594
OldEncoding: 3594
Width: 790
Flags: HW
Fore
416.67 587.98 m 0
 422.696 605.307 425.71 621.504 425.71 636.57 c 0
 425.71 650.884 423.45 662.56 418.93 671.6 c 0
 406.124 691.187 389.174 702.11 368.08 704.37 c 1
 377.12 667.08 l 1
 377.12 653.52 l 2
 377.12 635.44 374.106 618.49 368.08 602.67 c 0
 353.767 555.21 327.4 516.414 288.98 486.28 c 0
 247.546 455.394 202.724 439.95 154.51 439.95 c 0
 108.557 439.95 75.4102 455.394 55.0703 486.28 c 0
 44.5234 504.36 39.25 524.323 39.25 546.17 c 0
 39.25 566.51 42.2637 585.344 48.29 602.67 c 0
 59.5898 639.584 82.9434 673.483 118.35 704.37 c 0
 150.744 734.504 187.656 757.48 229.09 773.3 c 0
 275.044 790.626 312.71 799.29 342.09 799.29 c 0
 401.604 799.29 449.44 786.86 485.6 762 c 0
 522.514 736.387 540.97 705.5 540.97 669.34 c 1
 560.557 669.34 594.08 681.017 641.54 704.37 c 1
 687.494 723.956 746.63 772.546 818.95 850.14 c 1
 893.53 786.86 l 1
 853.604 733.374 811.794 694.2 768.1 669.34 c 0
 724.406 643.727 692.014 627.53 670.92 620.75 c 1
 681.466 616.23 692.39 602.294 703.69 578.94 c 0
 708.21 572.16 710.47 561.99 710.47 548.43 c 0
 710.47 526.584 704.443 497.58 692.39 461.42 c 2
 589.56 146.15 l 1
 576.754 105.47 561.687 73.0762 544.36 48.9697 c 1
 526.28 27.123 505.94 13.1865 483.34 7.16016 c 0
 455.466 -0.373047 418.554 -4.13965 372.6 -4.13965 c 2
 32.4697 -4.13965 l 1
 72.0195 115.64 l 1
 169.2 115.64 l 1
 247.17 356.33 l 1
 258.47 384.956 268.64 406.05 277.68 419.61 c 1
 328.53 474.98 l 1
 351.884 492.307 369.586 508.504 381.64 523.57 c 0
 394.446 538.637 406.124 560.106 416.67 587.98 c 0
189.54 537.13 m 0
 209.126 537.13 226.076 543.533 240.39 556.34 c 0
 253.196 566.134 263.366 579.693 270.9 597.02 c 1
 273.16 620.75 l 1
 268.64 641.09 l 1
 262.613 652.39 249.43 658.04 229.09 658.04 c 0
 211.01 658.04 194.813 651.637 180.5 638.83 c 1
 165.434 628.283 154.51 614.347 147.73 597.02 c 1
 145.47 578.94 l 1
 145.47 570.653 147.73 563.12 152.25 556.34 c 0
 160.536 543.533 172.966 537.13 189.54 537.13 c 0
522.89 572.16 m 1
 510.084 537.506 499.16 515.283 490.12 505.49 c 0
 479.573 491.93 466.014 477.994 449.44 463.68 c 0
 438.14 452.38 424.956 436.184 409.89 415.09 c 0
 396.33 394.75 385.406 370.644 377.12 342.77 c 1
 303.67 115.64 l 1
 379.38 115.64 l 2
 407.254 115.64 427.97 119.784 441.53 128.07 c 1
 451.323 137.11 460.74 155.566 469.78 183.44 c 2
 553.4 448.99 l 2
 562.44 476.863 566.96 499.464 566.96 516.79 c 0
 566.96 529.597 564.7 539.39 560.18 546.17 c 0
 546.62 563.496 534.19 572.16 522.89 572.16 c 1
EndSplineSet
EndChar
StartChar: uni0E0B
Encoding: 141 3595
OldEncoding: 3595
Width: 839
Flags: HW
Fore
485.47 806.07 m 1
 514.85 803.81 542.724 788.366 569.09 759.74 c 0
 592.443 734.126 604.12 709.267 604.12 685.16 c 1
 601.86 669.34 l 1
 622.954 672.354 655.347 685.536 699.04 708.89 c 0
 744.994 731.49 801.116 778.573 867.41 850.14 c 1
 946.51 786.86 l 1
 906.584 733.374 864.773 694.2 821.08 669.34 c 0
 777.387 643.727 744.994 627.53 723.9 620.75 c 1
 734.446 616.983 745.37 603.046 756.67 578.94 c 1
 758.93 548.43 l 1
 758.93 517.544 754.41 488.54 745.37 461.42 c 2
 641.41 146.15 l 1
 618.81 80.6104 593.95 39.9297 566.83 24.1104 c 1
 538.956 5.27637 491.12 -4.13965 423.32 -4.13965 c 2
 83.1904 -4.13965 l 1
 120.48 115.64 l 1
 217.66 115.64 l 1
 300.15 368.76 l 1
 312.204 398.894 322.374 419.61 330.66 430.91 c 1
 383.77 479.5 l 1
 407.124 496.826 424.826 513.023 436.88 528.09 c 0
 451.193 543.91 462.87 563.874 471.91 587.98 c 0
 480.95 613.594 485.47 634.687 485.47 651.26 c 2
 485.47 658.04 l 1
 483.21 673.106 473.416 687.796 456.09 702.11 c 1
 335.18 651.26 l 1
 242.52 702.11 l 1
 215.4 697.59 193.177 686.666 175.85 669.34 c 1
 158.523 654.273 146.094 640.336 138.56 627.53 c 1
 148.354 632.804 156.264 635.816 162.29 636.57 c 1
 171.33 641.09 187.526 643.35 210.88 643.35 c 0
 239.506 643.35 263.99 636.57 284.33 623.01 c 0
 300.903 613.217 313.334 596.267 321.62 572.16 c 1
 323.88 546.17 l 1
 323.88 530.35 321.62 514.153 317.1 497.58 c 1
 298.267 450.12 271.9 412.454 238 384.58 c 0
 198.073 353.693 155.887 338.25 111.44 338.25 c 0
 53.4336 338.25 13.8838 357.46 -7.20996 395.88 c 1
 -14.7432 419.986 -18.5098 441.834 -18.5098 461.42 c 0
 -18.5098 485.526 -13.9902 512.27 -4.9502 541.65 c 1
 21.04 604.93 l 2
 37.6133 644.104 64.3564 679.51 101.27 711.15 c 1
 144.964 745.05 182.254 768.78 213.14 782.34 c 0
 247.04 798.16 274.536 806.07 295.63 806.07 c 1
 370.21 757.48 l 1
 441.4 786.86 l 1
 485.47 806.07 l 1
571.35 572.16 m 1
 559.296 545.04 547.62 525.076 536.32 512.27 c 1
 525.02 494.943 512.214 480.254 497.9 468.2 c 0
 484.34 454.64 471.156 437.69 458.35 417.35 c 0
 444.036 393.244 433.113 368.384 425.58 342.77 c 1
 352.13 115.64 l 1
 430.1 115.64 l 2
 458.727 115.64 478.69 119.784 489.99 128.07 c 0
 499.784 137.11 509.2 155.566 518.24 183.44 c 2
 604.12 448.99 l 2
 613.16 476.863 617.68 499.464 617.68 516.79 c 0
 617.68 530.35 614.666 540.144 608.64 546.17 c 0
 595.08 563.496 582.65 572.16 571.35 572.16 c 1
136.3 430.91 m 0
 155.887 430.91 172.836 436.937 187.15 448.99 c 0
 200.71 461.796 210.88 475.733 217.66 490.8 c 1
 222.18 514.53 l 1
 222.18 521.31 219.92 528.09 215.4 534.87 c 0
 208.62 546.17 195.437 551.82 175.85 551.82 c 0
 158.523 551.82 142.326 545.416 127.26 532.61 c 0
 111.44 521.31 101.27 507.374 96.75 490.8 c 1
 94.4902 474.98 l 1
 99.0098 448.99 l 1
 106.544 436.937 118.974 430.91 136.3 430.91 c 0
EndSplineSet
EndChar
StartChar: uni0E0C
Encoding: 142 3596
OldEncoding: 3596
Width: 1038
Flags: HW
Fore
527.95 92.0947 m 1
 519.664 64.9746 501.206 39.3613 472.58 15.2549 c 1
 446.214 -4.33203 413.066 -14.125 373.14 -14.125 c 0
 333.966 -14.125 308.73 -0.188477 297.43 27.6846 c 0
 292.156 40.4912 289.52 54.8047 289.52 70.625 c 0
 289.52 87.1982 293.664 109.045 301.95 136.165 c 0
 312.496 173.831 331.706 207.731 359.58 237.865 c 0
 385.946 264.231 419.094 282.688 459.02 293.235 c 1
 556.2 591.555 l 1
 560.72 626.585 l 1
 560.72 649.185 553.94 666.135 540.38 677.435 c 0
 515.52 697.021 478.23 707.945 428.51 710.205 c 0
 404.403 710.205 373.517 704.555 335.85 693.255 c 0
 294.416 682.709 260.517 666.512 234.15 644.665 c 1
 253.736 641.651 274.83 635.625 297.43 626.585 c 0
 326.81 616.039 351.294 601.349 370.88 582.515 c 1
 350.54 518.105 l 1
 324.927 518.105 297.807 510.195 269.18 494.375 c 0
 237.54 477.802 213.434 443.148 196.86 390.415 c 2
 162.96 279.675 l 1
 167.48 281.935 l 1
 174.26 281.935 l 2
 206.653 281.935 230.384 274.778 245.45 260.465 c 1
 265.036 246.905 275.96 228.448 278.22 205.095 c 2
 280.48 182.495 l 1
 280.48 165.921 278.22 149.725 273.7 133.905 c 0
 267.674 109.799 253.736 85.6914 231.89 61.585 c 1
 213.81 38.9854 191.586 20.5283 165.22 6.21484 c 0
 137.347 -7.34473 107.966 -14.125 77.0801 -14.125 c 0
 28.8662 -14.125 -2.77344 0.56543 -17.8398 29.9453 c 0
 -26.8799 45.7646 -31.4004 63.4688 -31.4004 83.0547 c 0
 -31.4004 99.6279 -28.3867 117.331 -22.3604 136.165 c 2
 59 381.375 l 1
 73.3135 428.081 90.2637 462.735 109.85 485.335 c 1
 127.93 510.948 153.166 533.171 185.56 552.005 c 1
 178.026 558.031 161.83 564.435 136.97 571.215 c 0
 111.356 579.501 83.4834 584.775 53.3496 587.035 c 1
 70.2998 631.105 l 1
 90.6396 656.719 140.736 692.879 220.59 739.585 c 0
 293.664 783.278 384.816 805.125 494.05 805.125 c 0
 545.276 805.125 585.204 797.215 613.83 781.395 c 0
 644.716 765.575 665.434 746.365 675.98 723.765 c 0
 688.786 700.411 695.19 676.682 695.19 652.575 c 2
 695.19 646.925 l 1
 692.93 619.051 688.41 593.815 681.63 571.215 c 1
 591.23 286.455 l 1
 615.336 279.675 637.56 267.999 657.9 251.425 c 0
 685.02 230.331 700.464 217.148 704.23 211.875 c 0
 715.53 200.575 722.31 191.535 724.57 184.755 c 1
 918.93 785.915 l 1
 1053.4 785.915 l 1
 799.15 -0.56543 l 1
 664.68 -0.56543 l 1
 662.42 22.0352 654.134 55.9346 639.82 101.135 c 1
 621.74 144.829 594.62 171.948 558.46 182.495 c 1
 527.95 92.0947 l 1
107.59 70.625 m 0
 120.396 70.625 132.45 74.0146 143.75 80.7949 c 0
 155.05 86.8213 165.22 94.3555 174.26 103.395 c 0
 179.534 110.175 184.807 120.345 190.08 133.905 c 1
 192.34 156.505 l 1
 187.82 180.235 l 1
 181.794 190.781 168.61 196.055 148.27 196.055 c 0
 129.437 196.055 110.98 190.028 92.9004 177.975 c 0
 78.5859 166.675 68.7939 151.985 63.5195 133.905 c 1
 59 114.695 l 1
 59 106.408 61.2598 98.875 65.7803 92.0947 c 0
 72.5596 77.7812 86.4961 70.625 107.59 70.625 c 0
410.43 78.5352 m 1
 452.24 205.095 l 1
 432.653 202.835 416.456 195.302 403.65 182.495 c 0
 389.336 168.182 379.166 149.725 373.14 127.125 c 1
 368.62 105.655 l 1
 373.14 85.3154 l 1
 375.4 72.5088 381.804 66.1055 392.35 66.1055 c 0
 399.884 66.1055 405.91 70.248 410.43 78.5352 c 1
EndSplineSet
EndChar
StartChar: uni0E0D
Encoding: 143 3597
OldEncoding: 3597
Width: 1031
Flags: HW
Fore
1109.46 807.105 m 1
 900.415 170.915 l 1
 886.102 124.208 869.905 91.8154 851.825 73.7354 c 0
 830.731 52.6416 807.001 38.7051 780.635 31.9248 c 0
 746.735 24.3916 707.185 20.625 661.985 20.625 c 2
 343.325 20.625 l 1
 379.485 140.405 l 1
 456.325 140.405 l 1
 611.135 612.745 l 1
 615.655 647.775 l 1
 615.655 671.129 608.121 688.079 593.055 698.625 c 0
 568.195 718.211 532.035 729.135 484.575 731.395 c 0
 461.222 731.395 429.581 725.745 389.655 714.445 c 0
 345.209 703.145 312.062 686.948 290.215 665.855 c 1
 309.802 662.842 330.519 656.815 352.365 647.775 c 0
 381.745 637.229 406.229 622.539 425.815 603.705 c 1
 405.475 539.295 l 1
 378.355 539.295 350.481 531.385 321.855 515.565 c 0
 294.735 500.499 271.759 465.845 252.925 411.605 c 2
 215.635 300.865 l 1
 220.155 303.125 l 1
 226.935 303.125 l 2
 257.821 303.125 282.682 295.969 301.515 281.655 c 0
 318.089 267.341 328.635 248.885 333.155 226.285 c 1
 335.415 203.685 l 1
 335.415 187.111 333.155 170.915 328.635 155.095 c 0
 320.349 130.988 306.411 106.882 286.825 82.7754 c 0
 267.238 58.668 244.262 40.2119 217.895 27.4053 c 0
 189.269 13.8447 159.889 7.06543 129.755 7.06543 c 0
 85.3086 7.06543 53.6689 21.7549 34.835 51.1348 c 1
 27.3018 68.4619 23.5352 86.165 23.5352 104.245 c 0
 23.5352 120.818 26.5488 138.521 32.5752 157.355 c 2
 113.935 402.565 l 1
 127.495 447.012 144.445 481.665 164.785 506.525 c 1
 182.865 532.892 208.479 555.115 241.625 573.195 c 1
 229.571 579.975 213.375 586.379 193.035 592.405 c 0
 162.148 601.445 134.275 606.719 109.415 608.225 c 1
 122.975 652.295 l 1
 145.575 676.401 195.671 712.562 273.265 760.775 c 0
 347.091 804.469 438.999 826.315 548.985 826.315 c 0
 601.719 826.315 641.645 818.405 668.765 802.585 c 0
 698.145 787.519 719.991 768.309 734.305 744.955 c 1
 744.852 723.861 750.125 700.131 750.125 673.765 c 2
 750.125 668.115 l 1
 747.111 632.709 743.345 607.472 738.825 592.405 c 1
 590.795 140.405 l 1
 701.535 140.405 l 2
 725.642 140.405 743.345 144.549 754.645 152.835 c 1
 763.685 161.875 772.349 180.331 780.635 208.205 c 1
 974.995 807.105 l 1
 1109.46 807.105 l 1
498.135 -246.055 m 1
 529.775 -246.055 564.429 -232.119 602.095 -204.245 c 0
 636.749 -177.879 669.895 -117.611 701.535 -23.4453 c 1
 836.005 -23.4453 l 1
 808.131 -108.571 771.219 -176.371 725.265 -226.845 c 1
 676.299 -278.071 627.709 -312.725 579.495 -330.805 c 0
 530.528 -351.145 480.055 -361.315 428.075 -361.315 c 0
 391.161 -361.315 358.769 -356.041 330.895 -345.495 c 1
 283.435 -323.648 255.938 -299.541 248.405 -273.175 c 0
 243.885 -261.875 241.625 -247.185 241.625 -229.105 c 0
 241.625 -212.531 245.392 -190.309 252.925 -162.435 c 0
 265.731 -124.015 290.969 -89.3613 328.635 -58.4746 c 0
 364.795 -29.0947 405.852 -14.4053 451.805 -14.4053 c 0
 502.278 -14.4053 533.919 -29.0947 546.725 -58.4746 c 0
 554.259 -75.8018 558.025 -92.751 558.025 -109.325 c 0
 558.025 -127.405 555.012 -145.861 548.985 -164.695 c 0
 537.685 -199.349 520.735 -226.469 498.135 -246.055 c 1
381.745 -224.585 m 0
 399.825 -224.585 417.905 -218.559 435.985 -206.505 c 0
 448.791 -196.711 459.339 -182.021 467.625 -162.435 c 1
 472.145 -140.965 l 1
 472.145 -131.925 469.131 -124.392 463.105 -118.365 c 1
 455.571 -105.559 442.389 -99.1553 423.555 -99.1553 c 0
 406.981 -99.1553 389.278 -105.559 370.445 -118.365 c 0
 356.131 -128.911 346.339 -143.602 341.065 -162.435 c 2
 335.415 -180.515 l 1
 335.415 -189.555 338.052 -198.219 343.325 -206.505 c 0
 350.858 -218.559 363.665 -224.585 381.745 -224.585 c 0
160.265 91.8154 m 0
 173.071 91.8154 185.501 95.2051 197.555 101.985 c 0
 212.621 111.025 222.415 118.559 226.935 124.585 c 0
 236.729 138.145 243.131 148.315 246.145 155.095 c 1
 248.405 177.695 l 1
 243.885 201.425 l 1
 236.352 211.972 222.415 217.245 202.075 217.245 c 0
 183.241 217.245 165.539 211.219 148.965 199.165 c 0
 130.885 185.605 120.715 170.915 118.455 155.095 c 1
 113.935 135.885 l 1
 118.455 113.285 l 1
 125.988 98.9717 139.925 91.8154 160.265 91.8154 c 0
EndSplineSet
EndChar
StartChar: uni0E0E
Encoding: 144 3598
OldEncoding: 3598
Width: 876
Flags: HW
Fore
399.96 -88.1025 m 1
 429.34 -107.688 451.187 -123.133 465.5 -134.433 c 1
 499.4 -173.982 l 1
 735.57 554.867 l 1
 743.856 577.468 748 596.678 748 612.497 c 0
 748 638.111 739.336 661.464 722.01 682.558 c 1
 696.396 710.432 655.716 724.367 599.97 724.367 c 0
 569.836 724.367 534.807 718.718 494.88 707.417 c 0
 452.693 697.624 415.78 682.934 384.14 663.348 c 1
 403.727 660.334 424.443 655.062 446.29 647.527 c 0
 470.396 641.501 495.256 626.812 520.87 603.457 c 1
 499.4 539.048 l 1
 473.034 539.048 446.29 531.138 419.17 515.317 c 0
 387.53 498.744 363.424 464.091 346.85 411.357 c 2
 266.62 161.628 l 1
 249.294 114.167 223.68 77.2539 189.78 50.8877 c 1
 156.634 22.2607 114.07 6.81738 62.0898 4.55762 c 1
 13.877 6.81738 -19.2695 22.2607 -37.3496 50.8877 c 0
 -47.8965 65.9541 -53.1699 84.4111 -53.1699 106.258 c 0
 -53.1699 122.831 -50.1562 139.781 -44.1299 157.107 c 0
 -26.0498 203.062 0.316406 239.974 34.9697 267.848 c 1
 70.376 298.733 112.563 314.178 161.53 314.178 c 2
 173.96 314.178 l 1
 178.48 311.917 l 1
 207.86 402.317 l 1
 223.68 449.023 240.63 483.678 258.71 506.277 c 0
 282.063 534.151 308.43 556.374 337.81 572.947 c 1
 327.264 579.728 310.313 586.131 286.96 592.157 c 0
 257.58 601.197 229.706 606.471 203.34 607.978 c 1
 218.03 652.048 l 1
 258.71 687.077 l 2
 287.336 711.184 315.21 730.394 342.33 744.707 c 1
 378.49 766.554 423.313 785.764 476.8 802.338 c 0
 526.52 818.157 581.89 826.067 642.91 826.067 c 0
 700.916 826.067 752.144 815.897 796.59 795.558 c 0
 838.776 774.464 866.273 745.084 879.08 707.417 c 0
 885.86 691.598 889.25 673.142 889.25 652.048 c 0
 889.25 627.941 884.354 599.313 874.56 566.167 c 1
 573.98 -357.043 l 1
 439.51 -357.043 l 1
 422.184 -311.089 402.974 -277.188 381.88 -255.343 c 1
 326.51 -202.232 l 1
 294.116 -245.173 254.566 -281.333 207.86 -310.713 c 1
 150.606 -343.858 96.7441 -359.303 46.2695 -357.043 c 0
 1.82324 -357.043 -31.3232 -340.093 -53.1699 -306.192 c 0
 -65.2236 -285.853 -71.25 -264.759 -71.25 -242.912 c 0
 -71.25 -228.599 -67.4834 -209.389 -59.9502 -185.282 c 0
 -44.8838 -134.809 -13.2432 -94.1289 34.9697 -63.2422 c 0
 78.6641 -33.1094 129.514 -16.9121 187.52 -14.6523 c 0
 222.174 -14.6523 262.1 -22.9395 307.3 -39.5127 c 1
 328.77 -2.22266 l 1
 366.06 64.4473 l 1
 470.02 38.457 l 1
 457.966 10.584 445.536 -13.1455 432.73 -32.7324 c 1
 399.96 -86.9727 l 1
 399.96 -88.1025 l 1
90.3398 91.5674 m 0
 110.68 91.5674 129.137 98.7236 145.71 113.037 c 0
 161.53 126.598 173.206 142.041 180.74 159.367 c 1
 185.26 181.968 l 1
 185.26 192.514 183 201.178 178.48 207.957 c 0
 170.946 220.011 156.256 226.037 134.41 226.037 c 0
 113.316 226.037 95.6133 220.011 81.2998 207.957 c 0
 65.4805 195.151 53.8037 178.954 46.2695 159.367 c 1
 44.0098 137.897 l 1
 48.5303 113.037 l 1
 56.0635 98.7236 70 91.5674 90.3398 91.5674 c 0
138.93 -233.873 m 1
 169.063 -221.818 191.286 -207.129 205.6 -189.803 c 1
 222.927 -173.229 233.85 -159.669 238.37 -149.122 c 1
 214.264 -134.809 184.884 -127.652 150.23 -127.652 c 0
 122.356 -127.652 100.134 -133.679 83.5596 -145.732 c 0
 64.7266 -157.032 51.543 -172.477 44.0098 -192.062 c 1
 44.0098 -213.532 l 2
 44.0098 -233.119 60.2061 -242.912 92.5996 -242.912 c 0
 113.693 -242.912 129.137 -239.898 138.93 -233.873 c 1
EndSplineSet
EndChar
StartChar: uni0E0F
Encoding: 145 3599
OldEncoding: 3599
Width: 877
Flags: HW
Fore
445.005 -97.0254 m 1
 498.115 -178.385 l 1
 736.545 554.985 l 1
 744.831 577.585 748.975 596.795 748.975 612.615 c 0
 748.975 638.229 740.312 661.581 722.985 682.675 c 1
 697.371 710.549 656.691 724.485 600.945 724.485 c 0
 570.812 724.485 535.781 718.835 495.855 707.535 c 0
 453.669 697.741 416.755 683.051 385.115 663.465 c 1
 404.701 660.451 425.419 655.179 447.265 647.645 c 0
 471.371 641.619 496.231 626.929 521.845 603.575 c 1
 500.375 539.165 l 1
 474.009 539.165 447.265 531.255 420.145 515.435 c 0
 388.505 498.861 364.398 464.209 347.825 411.475 c 2
 267.595 161.745 l 1
 250.269 114.285 224.655 77.3721 190.755 51.0049 c 1
 157.608 22.3779 115.045 6.93457 63.0654 4.6748 c 1
 14.8516 6.93457 -18.2949 22.3779 -36.375 51.0049 c 0
 -46.9219 66.0713 -52.1953 84.5283 -52.1953 106.375 c 0
 -52.1953 122.948 -49.1816 139.898 -43.1553 157.225 c 0
 -25.0752 203.179 1.29199 240.091 35.9453 267.965 c 1
 71.3516 298.852 113.539 314.295 162.505 314.295 c 2
 174.935 314.295 l 1
 179.455 312.035 l 1
 208.835 402.435 l 1
 224.655 449.142 241.605 483.795 259.685 506.395 c 0
 283.039 534.269 309.405 556.491 338.785 573.065 c 1
 328.238 579.845 311.289 586.249 287.935 592.275 c 0
 258.555 601.315 230.682 606.589 204.315 608.095 c 1
 219.005 652.165 l 1
 259.685 687.195 l 2
 288.312 711.301 316.185 730.512 343.305 744.825 c 1
 379.465 766.671 424.289 785.881 477.775 802.455 c 0
 527.495 818.275 582.865 826.185 643.885 826.185 c 0
 701.892 826.185 753.119 816.015 797.565 795.675 c 0
 839.751 774.581 867.249 745.201 880.055 707.535 c 0
 886.835 691.715 890.225 673.259 890.225 652.165 c 0
 890.225 628.059 885.329 599.432 875.535 566.285 c 1
 574.955 -356.925 l 1
 447.265 -356.925 l 1
 389.635 -242.795 l 1
 246.125 -356.925 l 1
 244.619 -337.339 238.591 -315.491 228.045 -291.385 c 0
 222.771 -279.331 215.615 -266.525 206.575 -252.965 c 1
 193.769 -271.045 171.545 -292.515 139.905 -317.375 c 0
 105.251 -345.249 62.6885 -359.185 12.2148 -359.185 c 0
 -29.2188 -359.185 -57.4688 -344.495 -72.5352 -315.115 c 1
 -82.3281 -300.049 -87.2246 -281.592 -87.2246 -259.745 c 0
 -87.2246 -241.665 -83.082 -219.065 -74.7949 -191.945 c 1
 -58.9746 -150.512 -31.4785 -118.119 7.69531 -94.7646 c 0
 44.6084 -72.165 83.4053 -60.8652 124.085 -60.8652 c 0
 163.259 -60.8652 196.405 -71.4121 223.525 -92.5049 c 1
 259.685 -30.3555 l 2
 278.519 1.28516 293.961 31.418 306.015 60.0449 c 1
 398.675 43.0947 l 1
 348.201 -60.1113 310.535 -127.159 285.675 -158.045 c 1
 296.975 -173.865 l 2
 302.249 -182.151 306.015 -190.815 308.275 -199.855 c 1
 394.155 -136.575 l 2
 428.055 -112.469 445.005 -99.2852 445.005 -97.0254 c 1
91.3154 91.6846 m 1
 114.669 95.4512 132.371 103.361 144.425 115.415 c 0
 158.738 127.469 168.909 142.159 174.935 159.485 c 1
 179.455 184.345 l 1
 179.455 193.385 177.195 201.295 172.675 208.075 c 0
 165.142 220.129 148.945 226.155 124.085 226.155 c 1
 104.499 223.895 86.7949 217.115 70.9746 205.815 c 0
 55.1553 193.762 44.9854 179.071 40.4648 161.745 c 1
 35.9453 138.015 l 1
 35.9453 127.469 38.958 119.182 44.9854 113.155 c 1
 52.5186 98.8418 67.9609 91.6846 91.3154 91.6846 c 1
82.2754 -252.965 m 0
 95.0811 -247.691 110.525 -235.262 128.605 -215.675 c 1
 148.945 -189.685 l 1
 148.945 -189.685 l 1
 132.371 -168.591 112.409 -158.045 89.0547 -158.045 c 0
 59.6748 -158.045 37.4512 -170.099 22.3848 -194.205 c 1
 17.1113 -207.765 14.4746 -218.688 14.4746 -226.975 c 0
 14.4746 -248.821 25.3984 -259.745 47.2451 -259.745 c 0
 59.2988 -259.745 70.9746 -257.485 82.2754 -252.965 c 0
EndSplineSet
EndChar
StartChar: uni0E10
Encoding: 146 3600
OldEncoding: 3600
Width: 665
Flags: HW
Fore
341.85 24.0791 m 1
 346.37 98.6592 l 1
 341.85 174.369 l 1
 339.59 234.635 336.576 264.769 332.81 264.769 c 1
 327.536 259.495 312.094 248.572 286.48 231.999 c 1
 260.866 219.945 231.486 213.919 198.34 213.919 c 0
 147.866 213.919 114.72 229.362 98.9004 260.249 c 0
 89.8604 276.068 85.3398 294.525 85.3398 315.619 c 0
 85.3398 335.205 88.3535 352.909 94.3799 368.729 c 1
 105.68 410.915 130.916 447.075 170.09 477.209 c 0
 207.004 507.343 250.32 523.539 300.04 525.799 c 0
 343.733 525.799 376.126 517.513 397.22 500.938 c 1
 415.3 482.858 425.47 452.725 427.73 410.539 c 1
 436.77 341.608 l 1
 441.29 297.539 l 1
 474.06 406.019 l 1
 487.62 456.492 494.4 486.625 494.4 496.419 c 0
 494.4 514.499 488.374 527.683 476.32 535.969 c 0
 469.54 539.735 446.187 548.022 406.26 560.829 c 0
 340.72 580.415 291.376 592.845 258.23 598.119 c 2
 140.71 616.199 l 1
 156.53 667.049 l 1
 186.664 697.183 219.81 725.055 255.97 750.669 c 0
 295.144 777.789 331.304 796.999 364.45 808.299 c 0
 400.61 822.612 438.653 829.769 478.58 829.769 c 0
 526.794 829.769 573.876 821.105 619.83 803.778 c 1
 675.576 785.699 710.23 776.659 723.79 776.659 c 0
 747.896 776.659 778.784 783.438 816.45 796.999 c 1
 816.45 794.738 l 1
 814.19 757.449 l 1
 807.41 690.778 l 1
 756.184 676.465 716.634 669.309 688.76 669.309 c 1
 635.65 673.829 l 1
 568.98 699.818 l 1
 498.92 722.419 l 2
 483.854 727.692 466.15 730.329 445.81 730.329 c 0
 424.716 730.329 403.246 725.433 381.4 715.639 c 0
 358.8 707.353 344.863 699.065 339.59 690.778 c 1
 423.21 677.219 l 1
 466.903 668.179 495.906 661.022 510.22 655.749 c 1
 587.06 635.409 628.87 607.535 635.65 572.129 c 1
 637.91 545.009 l 1
 637.91 509.603 628.494 464.778 609.66 410.539 c 1
 485.36 24.0791 l 1
 341.85 24.0791 l 1
231.11 -322.831 m 1
 277.44 -297.972 l 1
 286.48 -269.722 l 1
 284.974 -271.228 279.323 -271.981 269.53 -271.981 c 0
 228.85 -271.981 200.6 -258.798 184.78 -232.432 c 0
 176.494 -215.857 172.35 -199.661 172.35 -183.841 c 0
 172.35 -170.281 174.986 -155.591 180.26 -139.771 c 0
 192.313 -103.611 214.536 -72.7246 246.93 -47.1113 c 0
 280.83 -21.498 316.99 -8.69141 355.41 -8.69141 c 0
 394.584 -8.69141 421.704 -20.7451 436.77 -44.8516 c 0
 445.81 -59.165 450.33 -75.3613 450.33 -93.4414 c 0
 450.33 -106.248 448.07 -119.432 443.55 -132.991 c 2
 399.48 -271.981 l 1
 392.7 -296.088 380.27 -314.545 362.19 -327.352 c 1
 344.863 -343.925 323.394 -357.861 297.78 -369.161 c 2
 205.12 -413.231 l 1
 133.93 -362.381 l 1
 39.0098 -410.972 l 1
 -2.7998 -348.821 l 1
 -41.2197 -397.035 -90.5635 -420.012 -150.83 -417.751 c 0
 -181.716 -417.751 -205.823 -404.567 -223.15 -378.201 c 0
 -230.684 -365.395 -234.45 -349.951 -234.45 -331.871 c 0
 -234.45 -317.558 -232.19 -302.115 -227.67 -285.541 c 0
 -215.616 -252.395 -192.264 -225.651 -157.61 -205.312 c 1
 -125.217 -183.465 -92.0703 -172.541 -58.1699 -172.541 c 0
 -26.5303 -172.541 -0.540039 -183.465 19.7998 -205.312 c 1
 52.5703 -145.421 l 1
 92.1201 -40.3311 l 1
 180.26 -40.3311 l 1
 162.934 -91.5576 145.606 -133.367 128.28 -165.762 c 0
 102.666 -214.728 80.4434 -250.135 61.6104 -271.981 c 1
 87.5996 -309.271 l 1
 126.02 -291.191 l 1
 163.31 -269.722 l 1
 231.11 -322.831 l 1
-86.4199 -251.642 m 0
 -99.9805 -251.642 -112.41 -256.161 -123.71 -265.201 c 0
 -133.503 -273.487 -141.037 -284.411 -146.31 -297.972 c 1
 -148.57 -313.791 l 1
 -148.57 -328.857 -137.27 -336.392 -114.67 -336.392 c 0
 -95.8369 -336.392 -79.6396 -329.611 -66.0801 -316.051 c 1
 -54.0264 -307.012 -43.8564 -296.088 -35.5703 -283.281 c 1
 -37.8301 -276.501 -42.3496 -269.722 -49.1299 -262.941 c 0
 -56.6631 -255.407 -69.0938 -251.642 -86.4199 -251.642 c 0
297.78 -194.012 m 0
 312.094 -194.012 326.03 -188.361 339.59 -177.062 c 0
 352.396 -166.515 359.93 -154.838 362.19 -142.031 c 1
 366.71 -123.951 l 1
 362.19 -105.871 l 1
 358.424 -94.5713 348.63 -88.9209 332.81 -88.9209 c 0
 313.977 -88.9209 299.286 -94.5713 288.74 -105.871 c 0
 274.427 -120.185 265.764 -132.237 262.75 -142.031 c 2
 258.23 -158.981 l 1
 258.23 -164.255 260.49 -170.281 265.01 -177.062 c 1
 269.53 -188.361 280.454 -194.012 297.78 -194.012 c 0
231.11 308.839 m 0
 249.19 308.839 266.14 314.865 281.96 326.919 c 1
 295.52 339.725 304.56 353.662 309.08 368.729 c 1
 313.6 392.459 l 1
 309.08 410.539 l 1
 301.546 422.593 288.363 428.619 269.53 428.619 c 0
 251.45 428.619 234.5 422.593 218.68 410.539 c 0
 205.12 399.238 196.08 385.303 191.56 368.729 c 2
 187.04 350.648 l 1
 187.04 341.608 189.3 333.699 193.82 326.919 c 0
 201.354 314.865 213.784 308.839 231.11 308.839 c 0
EndSplineSet
EndChar
StartChar: uni0E11
Encoding: 147 3601
OldEncoding: 3601
Width: 1021
Flags: HW
Fore
470.985 477.515 m 1
 420.135 322.705 l 1
 665.345 656.055 l 2
 695.479 698.241 726.365 732.895 758.005 760.015 c 0
 782.865 779.602 820.531 789.395 871.005 789.395 c 0
 944.079 789.395 985.135 773.198 994.175 740.805 c 1
 996.435 711.425 l 1
 996.435 682.045 989.655 645.885 976.095 602.945 c 1
 778.345 -1.60547 l 1
 645.005 -1.60547 l 1
 837.105 592.775 l 1
 849.159 632.701 855.185 656.809 855.185 665.095 c 2
 855.185 667.355 l 2
 855.185 675.642 849.911 680.915 839.365 683.175 c 1
 826.559 683.175 816.389 679.408 808.855 671.875 c 0
 799.815 662.835 794.541 656.055 793.035 651.535 c 1
 309.395 -1.60547 l 1
 181.705 -1.60547 l 1
 338.775 484.295 l 2
 358.361 546.068 397.159 591.645 455.165 621.025 c 0
 477.012 630.818 489.441 641.741 492.455 653.795 c 1
 492.455 660.575 l 2
 492.455 672.629 480.778 687.318 457.425 704.645 c 1
 334.255 653.795 l 1
 241.595 704.645 l 1
 216.735 700.125 194.512 689.201 174.925 671.875 c 0
 157.599 656.809 145.169 642.871 137.635 630.065 c 1
 141.401 633.831 149.312 636.845 161.365 639.105 c 1
 172.665 643.625 188.861 645.885 209.955 645.885 c 0
 240.841 645.885 265.325 639.105 283.405 625.545 c 1
 301.485 614.999 313.161 598.049 318.435 574.695 c 1
 322.955 546.445 l 1
 322.955 530.625 319.941 515.182 313.915 500.115 c 0
 299.602 454.915 273.988 417.249 237.075 387.115 c 0
 197.148 356.229 154.961 340.785 110.515 340.785 c 0
 51.7549 340.785 12.958 359.241 -5.875 396.155 c 0
 -14.915 415.741 -19.4346 437.589 -19.4346 461.695 c 0
 -19.4346 485.802 -14.915 512.545 -5.875 541.925 c 0
 -0.601562 559.251 8.06152 581.099 20.1152 607.465 c 0
 38.1953 646.639 65.6914 682.799 102.605 715.945 c 0
 135.751 745.325 172.289 768.301 212.215 784.875 c 0
 246.115 800.695 274.365 808.605 296.965 808.605 c 1
 369.285 760.015 l 1
 484.545 808.605 l 1
 522.211 801.825 553.852 783.369 579.465 753.235 c 0
 596.791 731.389 605.455 708.789 605.455 685.435 c 0
 605.455 673.381 603.195 660.951 598.675 648.145 c 0
 592.648 631.571 584.738 617.259 574.945 605.205 c 0
 569.671 597.671 557.241 585.995 537.655 570.175 c 0
 523.341 558.121 510.535 544.938 499.235 530.625 c 1
 487.935 520.079 478.519 502.375 470.985 477.515 c 1
137.635 433.445 m 0
 157.222 433.445 174.171 439.472 188.485 451.525 c 0
 202.799 463.579 212.215 477.515 216.735 493.335 c 1
 221.255 517.065 l 1
 216.735 537.405 l 1
 209.955 548.705 196.771 554.355 177.185 554.355 c 0
 159.858 554.355 143.661 547.951 128.595 535.145 c 1
 113.528 524.599 102.605 510.661 95.8252 493.335 c 1
 93.5654 477.515 l 1
 93.5654 468.475 95.8252 459.812 100.345 451.525 c 0
 108.631 439.472 121.062 433.445 137.635 433.445 c 0
EndSplineSet
EndChar
StartChar: uni0E12
Encoding: 148 3602
OldEncoding: 3602
Width: 1075
Flags: HW
Fore
122.615 163.415 m 1
 153.501 192.795 176.479 216.148 191.545 233.475 c 1
 259.345 300.145 l 1
 226.198 302.405 202.091 318.602 187.025 348.735 c 1
 179.491 367.568 175.725 385.271 175.725 401.845 c 0
 175.725 421.432 178.738 439.135 184.765 454.955 c 0
 199.079 498.648 225.445 535.185 263.865 564.565 c 0
 303.791 593.945 346.355 608.635 391.555 608.635 c 0
 438.262 608.635 471.409 594.699 490.995 566.825 c 1
 500.035 550.251 504.555 531.041 504.555 509.195 c 0
 504.555 490.361 501.541 471.528 495.515 452.695 c 0
 478.188 401.469 449.562 356.269 409.635 317.095 c 2
 94.3652 -0.43457 l 1
 -23.1553 -0.43457 l 1
 2.45801 83.9385 16.3945 144.959 18.6553 182.625 c 1
 5.09473 253.815 l 1
 -3.19141 299.769 -7.33496 343.085 -7.33496 383.765 c 0
 -7.33496 431.979 0.575195 476.049 16.3945 515.975 c 1
 38.2412 579.255 84.5713 638.392 155.385 693.385 c 1
 223.185 748.379 287.972 784.161 349.745 800.735 c 1
 458.225 747.625 l 1
 603.995 802.995 l 1
 669.535 763.068 708.709 725.025 721.515 688.865 c 1
 728.295 679.071 731.685 662.875 731.685 640.275 c 0
 731.685 613.908 724.528 578.501 710.215 534.055 c 2
 628.855 286.585 l 1
 664.262 277.545 693.642 261.349 716.995 237.995 c 0
 741.102 211.629 755.791 193.925 761.065 184.885 c 1
 955.425 786.045 l 1
 1092.16 786.045 l 1
 837.905 -0.43457 l 1
 701.175 -0.43457 l 1
 698.161 31.2051 689.499 65.1055 675.185 101.265 c 1
 660.871 144.959 634.881 172.079 597.215 182.625 c 1
 566.705 92.2246 l 1
 558.419 63.5986 539.209 37.9854 509.075 15.3848 c 0
 481.955 -4.20117 449.562 -13.9951 411.895 -13.9951 c 0
 372.722 -13.9951 347.108 -0.0585938 335.055 27.8154 c 0
 329.028 39.8682 326.015 54.1816 326.015 70.7549 c 0
 326.015 85.8213 329.781 107.668 337.315 136.295 c 1
 356.148 180.741 376.488 214.642 398.335 237.995 c 0
 424.701 264.361 457.849 282.818 497.775 293.365 c 1
 580.265 552.135 l 1
 591.565 582.269 597.215 607.881 597.215 628.975 c 1
 594.955 647.055 l 1
 590.435 665.889 578.759 681.331 559.925 693.385 c 1
 425.455 647.055 l 1
 314.715 693.385 l 1
 217.535 649.691 155.762 589.049 129.395 511.455 c 0
 120.355 480.568 115.835 444.785 115.835 404.105 c 0
 115.835 384.519 118.849 348.358 124.875 295.625 c 1
 131.655 231.215 l 1
 129.395 209.745 l 1
 122.615 163.415 l 1
446.925 78.665 m 1
 488.735 205.225 l 1
 452.575 200.705 426.961 174.715 411.895 127.255 c 1
 407.375 103.525 l 1
 411.895 85.4453 l 1
 414.155 72.6387 419.429 66.2354 427.715 66.2354 c 0
 436.001 66.2354 442.405 70.3779 446.925 78.665 c 1
319.235 390.545 m 0
 338.068 390.545 355.771 396.571 372.345 408.625 c 1
 385.905 422.938 395.321 437.629 400.595 452.695 c 1
 405.115 476.425 l 1
 400.595 496.765 l 1
 394.568 508.065 381.385 513.715 361.045 513.715 c 0
 342.965 513.715 326.769 507.312 312.455 494.505 c 1
 297.389 483.959 286.465 470.021 279.685 452.695 c 1
 277.425 432.355 l 1
 281.945 408.625 l 1
 289.479 396.571 301.909 390.545 319.235 390.545 c 0
EndSplineSet
EndChar
StartChar: uni0E13
Encoding: 149 3603
OldEncoding: 3603
Width: 1075
Flags: HW
Fore
366.1 -0.43457 m 1
 558.2 591.685 l 1
 562.72 626.715 l 1
 562.72 649.315 555.94 666.265 542.38 677.565 c 0
 517.52 697.151 480.23 708.075 430.51 710.335 c 0
 406.403 710.335 375.517 704.685 337.85 693.385 c 0
 293.403 682.085 259.504 665.889 236.15 644.795 c 1
 255.736 641.781 276.83 635.755 299.43 626.715 c 0
 328.81 616.169 353.294 601.479 372.88 582.645 c 1
 352.54 518.235 l 1
 326.927 518.235 299.807 510.325 271.18 494.505 c 0
 239.54 477.932 215.81 443.278 199.99 390.545 c 1
 164.96 279.805 l 1
 169.48 282.065 l 1
 174 282.065 l 2
 207.146 282.065 232.006 274.909 248.58 260.595 c 0
 267.414 246.281 277.96 227.825 280.22 205.225 c 2
 282.48 182.625 l 1
 282.48 166.052 280.22 149.855 275.7 134.035 c 0
 269.674 109.929 255.736 85.8213 233.89 61.7148 c 1
 215.81 39.1152 193.586 20.6582 167.22 6.34473 c 0
 139.347 -7.21484 109.966 -13.9951 79.0801 -13.9951 c 0
 30.8662 -13.9951 -0.773438 0.695312 -15.8398 30.0752 c 0
 -24.8799 45.8945 -29.4004 63.5986 -29.4004 83.1846 c 0
 -29.4004 99.7588 -26.3867 117.461 -20.3604 136.295 c 2
 61 381.505 l 1
 75.3135 428.211 92.2637 462.865 111.85 485.465 c 1
 129.93 511.079 155.166 533.302 187.56 552.135 c 1
 177.014 558.915 160.816 565.318 138.97 571.345 c 0
 113.356 579.631 85.8604 584.905 56.4805 587.165 c 1
 72.2998 631.235 l 1
 92.6396 656.849 142.736 693.009 222.59 739.715 c 0
 296.416 783.408 387.57 805.255 496.05 805.255 c 0
 548.784 805.255 588.71 797.345 615.83 781.525 c 0
 646.716 765.705 667.434 746.495 677.98 723.895 c 0
 690.786 700.541 697.19 676.812 697.19 652.705 c 2
 697.19 647.055 l 1
 694.93 619.182 690.41 593.945 683.63 571.345 c 1
 578.54 244.775 l 1
 601.14 267.375 636.17 291.481 683.63 317.095 c 0
 724.31 339.695 757.456 353.255 783.07 357.775 c 1
 920.93 786.045 l 1
 1055.4 786.045 l 1
 916.41 357.775 l 1
 961.61 348.735 990.99 325.759 1004.55 288.845 c 0
 1010.58 274.531 1013.59 256.829 1013.59 235.735 c 0
 1013.59 212.381 1009.07 185.262 1000.03 154.375 c 0
 983.456 101.642 954.83 60.9619 914.15 32.335 c 1
 872.716 -0.0585938 830.53 -16.2549 787.59 -16.2549 c 0
 752.184 -16.2549 725.816 -6.46191 708.49 13.125 c 0
 697.943 24.4248 692.67 39.1152 692.67 57.1953 c 0
 692.67 74.5215 695.684 92.2246 701.71 110.305 c 2
 750.3 258.335 l 1
 698.32 241.009 649.73 207.108 604.53 156.635 c 1
 554.81 104.655 518.65 52.2988 496.05 -0.43457 c 1
 366.1 -0.43457 l 1
109.59 70.7549 m 0
 122.396 70.7549 134.45 74.1445 145.75 80.9248 c 0
 158.557 87.7051 167.974 95.2383 174 103.525 c 0
 182.286 114.825 188.313 124.995 192.08 134.035 c 1
 194.34 156.635 l 1
 189.82 180.365 l 1
 183.794 190.911 170.986 196.185 151.4 196.185 c 0
 131.813 196.185 112.98 190.159 94.9004 178.105 c 0
 80.5859 166.805 70.7939 152.115 65.5195 134.035 c 1
 61 114.825 l 1
 61 106.538 63.2598 99.0049 67.7803 92.2246 c 0
 74.5596 77.9121 88.4961 70.7549 109.59 70.7549 c 0
911.89 165.675 m 1
 916.41 200.705 l 1
 911.89 226.695 l 1
 904.356 243.269 895.316 253.815 884.77 258.335 c 1
 836.18 112.565 l 1
 833.92 96.7451 l 1
 833.92 87.7051 837.687 83.1846 845.22 83.1846 c 0
 857.273 85.4453 870.456 94.4854 884.77 110.305 c 1
 896.07 127.631 905.11 146.089 911.89 165.675 c 1
EndSplineSet
EndChar
StartChar: uni0E14
Encoding: 150 3604
OldEncoding: 3604
Width: 796
Flags: HW
Fore
479.675 804.345 m 0
 594.182 802.085 670.645 774.965 709.065 722.985 c 0
 731.665 690.592 742.965 654.432 742.965 614.505 c 0
 742.965 591.151 738.445 564.031 729.405 533.145 c 1
 556.515 -1.34473 l 1
 422.045 -1.34473 l 1
 597.195 544.445 l 1
 603.975 558.759 607.365 573.449 607.365 588.515 c 0
 607.365 615.635 597.195 637.481 576.855 654.055 c 0
 545.969 676.655 501.898 687.955 444.645 687.955 c 0
 380.611 687.955 320.345 671.005 263.845 637.105 c 1
 205.085 604.711 166.665 558.381 148.585 498.115 c 0
 141.052 477.021 137.285 445.381 137.285 403.195 c 0
 137.285 370.049 139.545 333.889 144.065 294.715 c 0
 146.325 269.855 148.585 248.385 150.845 230.305 c 1
 148.585 208.835 l 1
 141.805 162.505 l 1
 210.735 230.305 l 1
 278.535 296.975 l 1
 247.648 299.235 223.541 315.432 206.215 345.565 c 0
 197.175 362.892 192.655 380.595 192.655 398.675 c 0
 192.655 418.262 195.669 435.965 201.695 451.785 c 0
 219.021 496.231 246.142 532.769 283.055 561.395 c 0
 319.969 590.775 362.531 605.465 410.745 605.465 c 0
 458.205 605.465 490.599 591.528 507.925 563.655 c 0
 518.472 545.575 523.745 525.235 523.745 502.635 c 0
 523.745 486.062 520.731 468.358 514.705 449.525 c 0
 498.885 399.052 470.259 353.852 428.825 313.925 c 1
 113.555 -1.34473 l 1
 -3.96484 -1.34473 l 1
 21.6484 83.0283 35.585 144.049 37.8447 181.715 c 1
 26.5449 252.905 l 1
 18.2588 294.339 14.1152 333.889 14.1152 371.555 c 2
 14.1152 382.855 l 2
 14.1152 428.055 22.0254 472.125 37.8447 515.065 c 0
 55.1719 561.771 86.0586 607.349 130.505 651.795 c 0
 177.211 696.995 229.568 733.908 287.575 762.535 c 1
 349.349 790.408 413.381 804.345 479.675 804.345 c 0
338.425 389.635 m 0
 357.259 389.635 374.961 395.661 391.535 407.715 c 1
 404.341 422.028 413.759 435.965 419.785 449.525 c 1
 424.305 473.255 l 1
 419.785 493.595 l 1
 413.759 504.895 400.575 510.545 380.235 510.545 c 0
 361.401 510.545 344.451 504.142 329.385 491.335 c 1
 313.565 480.789 303.395 466.852 298.875 449.525 c 1
 296.615 431.445 l 1
 301.135 407.715 l 1
 308.669 395.661 321.099 389.635 338.425 389.635 c 0
EndSplineSet
EndChar
StartChar: uni0E15
Encoding: 151 3605
OldEncoding: 3605
Width: 795
Flags: HW
Fore
556.19 -1.21484 m 1
 419.46 -1.21484 l 1
 599.13 551.355 l 1
 610.43 581.488 616.08 607.102 616.08 628.195 c 1
 613.82 646.275 l 1
 609.3 665.108 597.624 680.551 578.79 692.605 c 1
 444.32 646.275 l 1
 333.58 692.605 l 1
 236.4 648.911 174.626 588.269 148.26 510.675 c 0
 139.22 479.789 134.7 444.005 134.7 403.325 c 0
 134.7 383.738 137.714 347.579 143.74 294.845 c 1
 150.52 230.435 l 1
 148.26 208.965 l 1
 141.48 162.635 l 1
 172.366 192.015 195.344 215.369 210.41 232.695 c 1
 278.21 299.365 l 1
 245.063 301.625 220.956 317.821 205.89 347.955 c 1
 198.356 366.789 194.59 384.491 194.59 401.065 c 0
 194.59 420.651 197.604 438.355 203.63 454.175 c 0
 217.943 497.869 244.31 534.405 282.73 563.785 c 0
 322.656 593.165 365.22 607.855 410.42 607.855 c 0
 457.126 607.855 490.273 593.919 509.86 566.045 c 1
 517.394 547.211 521.16 528.001 521.16 508.415 c 0
 521.16 492.595 518.9 473.762 514.38 451.915 c 1
 497.054 400.688 468.427 355.488 428.5 316.315 c 2
 113.23 -1.21484 l 1
 -4.29004 -1.21484 l 1
 21.3232 83.1582 35.2598 144.179 37.5195 181.845 c 1
 22.8301 253.035 l 1
 15.2969 302.001 11.5303 345.318 11.5303 382.985 c 0
 11.5303 431.198 19.4404 475.269 35.2598 515.195 c 1
 57.1064 578.475 103.437 637.611 174.25 692.605 c 1
 242.05 747.599 306.836 783.381 368.61 799.955 c 1
 477.09 746.845 l 1
 622.86 802.215 l 1
 688.4 762.289 727.573 724.245 740.38 688.085 c 0
 745.653 674.525 748.29 658.329 748.29 639.495 c 0
 748.29 613.129 741.134 577.722 726.82 533.275 c 2
 556.19 -1.21484 l 1
338.1 389.765 m 0
 356.934 389.765 374.637 395.791 391.21 407.845 c 1
 404.77 422.158 414.187 436.849 419.46 451.915 c 1
 423.98 475.645 l 1
 419.46 495.985 l 1
 413.434 507.285 400.25 512.935 379.91 512.935 c 0
 361.83 512.935 345.634 506.531 331.32 493.725 c 1
 316.254 483.179 305.33 469.241 298.55 451.915 c 1
 296.29 431.575 l 1
 300.81 407.845 l 1
 308.344 395.791 320.773 389.765 338.1 389.765 c 0
EndSplineSet
EndChar
StartChar: uni0E16
Encoding: 152 3606
OldEncoding: 3606
Width: 804
Flags: HW
Fore
185.42 295.495 m 1
 201.24 295.495 l 2
 253.22 295.495 287.12 280.052 302.94 249.165 c 0
 312.733 229.579 317.63 210.369 317.63 191.535 c 0
 317.63 174.209 314.994 157.259 309.72 140.685 c 0
 295.406 96.2383 269.416 60.0781 231.75 32.2051 c 1
 194.084 1.31836 150.767 -14.125 101.8 -14.125 c 0
 55.0938 -14.125 22.7002 1.31836 4.62012 32.2051 c 1
 -5.92676 47.2715 -11.2002 65.7285 -11.2002 87.5752 c 0
 -11.2002 107.162 -8.18652 124.865 -2.16016 140.685 c 1
 76.9404 381.375 l 1
 91.2539 428.081 108.204 462.735 127.79 485.335 c 1
 145.87 510.948 171.106 533.171 203.5 552.005 c 1
 195.966 558.031 179.77 564.435 154.91 571.215 c 0
 125.53 580.255 97.6562 585.528 71.29 587.035 c 1
 88.2402 631.105 l 1
 127.79 666.135 l 1
 142.856 681.201 170.354 700.411 210.28 723.765 c 1
 262.26 750.131 307.084 769.342 344.75 781.395 c 0
 394.47 797.215 450.216 805.125 511.99 805.125 c 0
 575.27 805.125 626.12 795.709 664.54 776.875 c 0
 703.714 756.535 731.586 727.155 748.16 688.735 c 0
 754.187 674.421 757.2 655.965 757.2 633.365 c 0
 757.2 604.738 751.55 575.358 740.25 545.225 c 1
 565.1 -0.56543 l 1
 430.63 -0.56543 l 1
 604.65 533.925 l 2
 612.184 558.031 615.95 577.241 615.95 591.555 c 0
 615.95 618.675 607.286 642.028 589.96 661.615 c 0
 564.347 689.488 523.666 703.425 467.92 703.425 c 0
 403.134 703.425 331.19 683.085 252.09 642.405 c 1
 258.87 640.145 269.04 637.885 282.6 635.625 c 1
 333.45 619.805 l 1
 355.296 610.012 373.754 597.581 388.82 582.515 c 1
 368.48 518.105 l 1
 342.866 518.105 315.746 510.195 287.12 494.375 c 0
 255.48 477.802 231.374 443.148 214.8 390.415 c 2
 185.42 295.495 l 1
141.35 74.0146 m 1
 161.69 76.2754 178.64 83.0547 192.2 94.3555 c 0
 205.76 104.148 216.684 118.839 224.97 138.425 c 1
 229.49 163.285 l 1
 229.49 173.831 227.23 182.495 222.71 189.275 c 0
 214.424 201.329 198.227 207.355 174.12 207.355 c 1
 153.78 205.095 136.83 198.315 123.27 187.015 c 1
 108.204 177.222 98.0342 161.778 92.7598 140.685 c 1
 88.2402 119.215 l 1
 88.2402 109.422 90.5 101.135 95.0195 94.3555 c 0
 101.8 80.7949 117.244 74.0146 141.35 74.0146 c 1
EndSplineSet
EndChar
StartChar: uni0E17
Encoding: 153 3607
OldEncoding: 3607
Width: 867
Flags: HW
Fore
35.1348 -1.08496 m 1
 194.465 491.595 l 1
 188.438 490.089 171.488 489.335 143.615 489.335 c 1
 105.948 493.855 79.959 511.559 65.6445 542.445 c 0
 58.8652 556.759 55.4746 573.709 55.4746 593.295 c 0
 55.4746 612.881 58.8652 630.585 65.6445 646.405 c 1
 79.2051 688.592 103.688 725.129 139.095 756.015 c 1
 176.762 785.395 220.079 800.085 269.045 800.085 c 0
 319.519 800.085 354.171 784.642 373.005 753.755 c 0
 382.045 737.182 386.565 718.349 386.565 697.255 c 0
 386.565 677.669 383.552 658.459 377.525 639.625 c 2
 273.565 323.225 l 1
 518.775 656.575 l 2
 555.688 707.049 586.575 742.455 611.435 762.795 c 1
 636.295 780.875 673.961 789.915 724.435 789.915 c 0
 797.509 789.915 838.565 773.719 847.605 741.325 c 1
 849.865 711.945 l 1
 849.865 681.812 842.709 645.651 828.395 603.465 c 1
 631.775 -1.08496 l 1
 498.435 -1.08496 l 1
 690.535 593.295 l 1
 710.875 665.615 l 1
 710.875 667.875 l 2
 710.875 676.161 704.849 681.435 692.795 683.695 c 0
 681.495 683.695 672.079 679.929 664.545 672.395 c 0
 654.751 664.861 648.725 658.081 646.465 652.055 c 1
 162.825 -1.08496 l 1
 35.1348 -1.08496 l 1
198.985 581.995 m 0
 218.571 581.995 235.521 588.021 249.835 600.075 c 0
 263.395 611.375 273.565 626.065 280.345 644.145 c 1
 282.605 667.875 l 1
 278.085 688.215 l 1
 272.059 699.515 258.875 705.165 238.535 705.165 c 0
 222.715 705.165 205.765 698.762 187.685 685.955 c 0
 174.125 674.655 165.085 660.719 160.565 644.145 c 1
 156.799 636.611 154.915 629.831 154.915 623.805 c 0
 154.915 617.025 156.799 609.115 160.565 600.075 c 0
 168.099 588.021 180.905 581.995 198.985 581.995 c 0
EndSplineSet
EndChar
StartChar: uni0E18
Encoding: 154 3608
OldEncoding: 3608
Width: 690
Flags: HW
Fore
214.065 632.715 m 1
 237.795 634.975 l 1
 293.165 634.975 l 2
 430.271 634.975 522.932 609.738 571.145 559.265 c 0
 586.211 543.445 593.745 519.339 593.745 486.945 c 0
 593.745 459.825 586.965 425.171 573.405 382.985 c 2
 498.825 149.075 l 1
 477.731 85.7949 454.001 45.1152 427.635 27.0352 c 0
 399.762 8.20215 351.171 -1.21484 281.865 -1.21484 c 2
 -97.8154 -1.21484 l 1
 -58.2646 118.565 l 1
 38.915 118.565 l 1
 156.435 486.945 l 1
 290.905 486.945 l 1
 169.995 118.565 l 1
 293.165 118.565 l 2
 321.791 118.565 340.249 122.709 348.535 130.995 c 0
 357.575 139.281 366.991 157.738 376.785 186.365 c 1
 438.935 385.245 l 1
 446.469 407.092 451.741 428.562 454.755 449.655 c 1
 454.755 466.981 447.222 483.179 432.155 498.245 c 0
 419.349 511.805 383.941 521.975 325.935 528.755 c 0
 260.395 536.289 196.361 540.055 133.835 540.055 c 2
 38.915 537.795 l 1
 63.7754 619.155 l 1
 107.469 667.369 159.071 709.932 218.585 746.845 c 1
 283.371 783.759 348.159 802.215 412.945 802.215 c 0
 456.639 802.215 505.229 793.551 558.715 776.225 c 1
 606.929 758.145 640.451 749.105 659.285 749.105 c 0
 687.911 749.105 718.421 756.639 750.815 771.705 c 1
 750.815 672.265 l 1
 704.108 654.938 664.935 646.275 633.295 646.275 c 0
 606.929 646.275 564.365 655.691 505.605 674.525 c 0
 450.611 693.358 403.528 702.775 364.355 702.775 c 0
 329.701 702.775 298.062 694.111 269.435 676.785 c 0
 254.369 666.991 235.911 652.301 214.065 632.715 c 1
EndSplineSet
EndChar
StartChar: uni0E19
Encoding: 155 3609
OldEncoding: 3609
Width: 858
Flags: HW
Fore
678.51 786.045 m 1
 812.98 786.045 l 1
 673.99 357.775 l 1
 718.437 348.735 748.57 325.759 764.39 288.845 c 1
 768.91 273.025 771.17 255.321 771.17 235.735 c 0
 771.17 215.395 767.403 188.275 759.87 154.375 c 1
 741.79 103.148 712.41 62.4688 671.73 32.335 c 1
 632.557 -0.0585938 589.994 -16.2549 544.04 -16.2549 c 0
 508.634 -16.2549 483.396 -6.46191 468.33 13.125 c 0
 455.523 27.4385 449.12 42.1279 449.12 57.1953 c 0
 449.12 67.7412 453.264 85.4453 461.55 110.305 c 1
 507.88 258.335 l 1
 443.094 241.009 375.67 204.849 305.61 149.855 c 0
 237.81 97.1221 189.22 47.0254 159.84 -0.43457 c 1
 31.0195 -0.43457 l 1
 192.61 496.765 l 1
 185.83 496.765 l 1
 170.01 494.505 l 1
 124.057 494.505 91.6641 510.701 72.8301 543.095 c 0
 63.0361 561.929 58.1396 581.139 58.1396 600.725 c 0
 58.1396 619.559 61.5303 635.755 68.3096 649.315 c 1
 79.6104 691.501 104.094 728.039 141.76 758.925 c 1
 183.193 789.812 226.51 805.255 271.71 805.255 c 0
 314.65 805.255 347.044 792.825 368.89 767.965 c 0
 382.45 752.145 389.23 732.935 389.23 710.335 c 0
 389.23 696.775 386.97 682.085 382.45 666.265 c 1
 232.16 200.705 l 1
 278.113 243.645 326.704 276.791 377.93 300.145 c 0
 432.924 327.265 487.54 346.475 541.78 357.775 c 1
 678.51 786.045 l 1
201.65 587.165 m 0
 221.236 587.165 238.187 593.568 252.5 606.375 c 0
 266.06 616.921 276.23 631.235 283.01 649.315 c 1
 287.53 673.045 l 1
 283.01 693.385 l 1
 276.983 704.685 263.046 710.335 241.2 710.335 c 0
 223.12 710.335 206.924 703.932 192.61 691.125 c 0
 179.05 679.825 170.01 665.889 165.49 649.315 c 2
 159.84 626.715 l 1
 165.49 606.375 l 1
 172.27 593.568 184.323 587.165 201.65 587.165 c 0
669.47 165.675 m 0
 673.99 179.988 676.25 193.171 676.25 205.225 c 1
 673.99 228.955 l 1
 667.21 244.775 656.286 254.568 641.22 258.335 c 1
 592.63 112.565 l 1
 592.63 99.0049 l 2
 592.63 88.458 596.773 83.1846 605.06 83.1846 c 1
 614.1 86.1982 621.634 90.7188 627.66 96.7451 c 0
 639.714 108.799 648.376 120.475 653.65 131.775 c 1
 661.937 141.568 667.21 152.869 669.47 165.675 c 0
EndSplineSet
EndChar
StartChar: uni0E1A
Encoding: 156 3610
OldEncoding: 3610
Width: 827
Flags: HW
Fore
56.8848 118.695 m 1
 180.055 491.595 l 1
 129.205 489.335 l 1
 88.5254 493.855 62.1582 511.559 50.1055 542.445 c 0
 44.0781 557.512 41.0654 574.461 41.0654 593.295 c 0
 41.0654 610.621 43.3252 628.325 47.8447 646.405 c 0
 56.8848 673.525 71.5752 699.139 91.915 723.245 c 0
 109.241 745.845 132.219 764.301 160.845 778.615 c 0
 190.979 792.929 221.865 800.085 253.505 800.085 c 0
 303.979 800.085 338.631 784.642 357.465 753.755 c 0
 367.259 737.182 372.155 718.349 372.155 697.255 c 0
 372.155 677.669 369.142 658.459 363.115 639.625 c 2
 191.355 118.695 l 1
 418.485 118.695 l 2
 447.865 118.695 468.581 123.591 480.635 133.385 c 0
 490.429 139.411 500.599 157.115 511.145 186.495 c 1
 705.505 785.395 l 1
 841.105 785.395 l 1
 635.445 151.465 l 1
 617.365 92.7051 587.985 52.7783 547.305 31.6846 c 0
 508.131 9.83789 452.009 -1.08496 378.935 -1.08496 c 2
 -82.1055 -1.08496 l 1
 -44.8154 118.695 l 1
 56.8848 118.695 l 1
184.575 581.995 m 0
 201.901 581.995 218.852 588.021 235.425 600.075 c 0
 248.231 611.375 258.401 626.065 265.935 644.145 c 1
 268.195 665.615 l 1
 268.195 673.148 266.312 680.682 262.545 688.215 c 0
 256.519 699.515 243.711 705.165 224.125 705.165 c 0
 206.799 705.165 190.602 698.762 175.535 685.955 c 1
 158.209 673.901 147.285 659.965 142.765 644.145 c 1
 140.505 623.805 l 1
 145.025 600.075 l 1
 152.559 588.021 165.741 581.995 184.575 581.995 c 0
EndSplineSet
EndChar
StartChar: uni0E1B
Encoding: 157 3611
OldEncoding: 3611
Width: 827
Flags: HW
Fore
7.96973 101.795 m 1
 131.14 474.695 l 1
 80.29 472.435 l 1
 39.6104 476.955 13.2432 494.658 1.19043 525.545 c 0
 -4.83691 540.611 -7.84961 557.562 -7.84961 576.395 c 0
 -7.84961 593.722 -5.58984 611.425 -1.07031 629.505 c 0
 7.96973 656.625 22.6602 682.238 43 706.345 c 0
 60.3262 728.945 83.3037 747.401 111.93 761.715 c 0
 142.063 776.028 172.95 783.185 204.59 783.185 c 0
 255.063 783.185 289.716 767.741 308.55 736.855 c 0
 318.344 720.281 323.24 701.449 323.24 680.355 c 0
 323.24 660.769 320.227 641.559 314.2 622.725 c 2
 142.44 101.795 l 1
 369.57 101.795 l 2
 398.95 101.795 419.666 106.691 431.72 116.485 c 0
 441.514 122.512 451.684 140.215 462.23 169.595 c 1
 758.29 1076.99 l 1
 895.02 1076.99 l 1
 586.53 134.565 l 1
 568.45 75.8047 539.07 35.8779 498.39 14.7852 c 0
 459.216 -7.06152 403.094 -17.9854 330.02 -17.9854 c 2
 -131.02 -17.9854 l 1
 -93.7305 101.795 l 1
 7.96973 101.795 l 1
135.66 565.095 m 0
 152.986 565.095 169.937 571.121 186.51 583.175 c 0
 199.316 594.475 209.486 609.165 217.02 627.245 c 1
 219.28 648.715 l 1
 219.28 656.249 217.396 663.781 213.63 671.315 c 0
 207.604 682.615 194.796 688.265 175.21 688.265 c 0
 157.884 688.265 141.687 681.861 126.62 669.055 c 1
 108.54 657.001 98.3701 643.065 96.1104 627.245 c 1
 91.5898 606.905 l 1
 96.1104 583.175 l 1
 103.644 571.121 116.826 565.095 135.66 565.095 c 0
EndSplineSet
EndChar
StartChar: uni0E1C
Encoding: 158 3612
OldEncoding: 3612
Width: 814
Flags: HW
Fore
58.9502 -1.08496 m 1
 -67.6104 -1.08496 l 1
 140.31 639.625 l 1
 154.624 686.331 180.99 724.375 219.41 753.755 c 0
 257.076 784.642 300.77 800.085 350.49 800.085 c 0
 385.896 800.085 413.017 792.929 431.85 778.615 c 0
 451.437 763.549 462.36 745.092 464.62 723.245 c 2
 466.88 700.645 l 1
 466.88 681.812 463.866 663.731 457.84 646.405 c 0
 445.034 606.479 421.68 571.825 387.78 542.445 c 0
 353.126 511.559 316.214 493.855 277.04 489.335 c 1
 249.166 489.335 232.216 490.089 226.19 491.595 c 1
 153.87 265.595 l 1
 401.34 457.695 l 1
 529.03 265.595 l 1
 695.14 785.395 l 1
 829.61 785.395 l 1
 575.36 -1.08496 l 1
 443.15 -1.08496 l 1
 454.45 32.0615 460.1 60.6885 460.1 84.7949 c 0
 460.1 108.901 454.45 128.865 443.15 144.685 c 1
 350.49 308.535 l 1
 149.35 144.685 l 2
 110.93 113.045 80.7959 64.4551 58.9502 -1.08496 c 1
321.11 705.165 m 0
 303.784 705.165 287.586 698.762 272.52 685.955 c 1
 255.193 673.901 244.27 659.965 239.75 644.145 c 1
 237.49 623.805 l 1
 242.01 600.075 l 1
 249.544 588.021 262.727 581.995 281.56 581.995 c 0
 298.887 581.995 315.836 588.021 332.41 600.075 c 0
 345.216 611.375 355.387 626.065 362.92 644.145 c 1
 365.18 665.615 l 1
 365.18 673.148 363.296 680.682 359.53 688.215 c 0
 353.504 699.515 340.696 705.165 321.11 705.165 c 0
EndSplineSet
EndChar
StartChar: uni0E1D
Encoding: 159 3613
OldEncoding: 3613
Width: 814
Flags: HW
Fore
10.0996 -17.9854 m 1
 -116.46 -17.9854 l 1
 91.46 622.725 l 1
 105.773 669.432 132.14 707.475 170.56 736.855 c 0
 208.227 767.741 251.92 783.185 301.64 783.185 c 0
 337.046 783.185 364.166 776.028 383 761.715 c 0
 402.586 746.648 413.51 728.191 415.77 706.345 c 2
 418.03 683.745 l 1
 418.03 664.911 415.017 646.831 408.99 629.505 c 0
 396.184 589.579 372.83 554.925 338.93 525.545 c 0
 304.276 494.658 267.363 476.955 228.19 472.435 c 1
 200.316 472.435 183.366 473.188 177.34 474.695 c 1
 105.02 248.695 l 1
 352.49 440.795 l 1
 480.18 248.695 l 1
 749.12 1076.99 l 1
 882.46 1076.99 l 1
 526.51 -17.9854 l 1
 394.3 -17.9854 l 1
 405.6 15.1621 411.25 43.7881 411.25 67.8945 c 0
 411.25 92.002 405.6 111.965 394.3 127.785 c 1
 301.64 291.635 l 1
 100.5 127.785 l 2
 62.0801 96.1445 31.9463 47.5547 10.0996 -17.9854 c 1
272.26 688.265 m 0
 254.934 688.265 238.736 681.861 223.67 669.055 c 1
 205.59 657.001 195.42 643.065 193.16 627.245 c 1
 188.64 606.905 l 1
 193.16 583.175 l 1
 200.693 571.121 213.876 565.095 232.71 565.095 c 0
 250.036 565.095 266.986 571.121 283.56 583.175 c 0
 296.366 594.475 306.536 609.165 314.07 627.245 c 1
 318.59 648.715 l 1
 318.59 657.755 315.954 665.289 310.68 671.315 c 1
 304.653 682.615 291.847 688.265 272.26 688.265 c 0
EndSplineSet
EndChar
StartChar: uni0E1E
Encoding: 160 3614
OldEncoding: 3614
Width: 922
Flags: HW
Fore
256.56 359.385 m 1
 592.17 767.315 l 1
 663.36 359.385 l 1
 802.35 785.395 l 1
 936.82 785.395 l 1
 681.44 -1.08496 l 1
 548.1 -1.08496 l 1
 550.36 10.2148 554.88 27.165 561.66 49.7646 c 1
 566.18 91.5752 l 1
 563.92 105.135 l 1
 504.03 500.635 l 1
 186.5 105.135 l 1
 175.2 89.3154 164.276 70.8584 153.73 49.7646 c 1
 133.39 -1.08496 l 1
 1.17969 -1.08496 l 1
 161.64 491.595 l 1
 156.366 490.089 140.17 489.335 113.05 489.335 c 1
 72.3701 493.855 46.0029 511.559 33.9502 542.445 c 0
 27.9238 557.512 24.9102 574.461 24.9102 593.295 c 0
 24.9102 612.881 27.9238 630.585 33.9502 646.405 c 1
 40.7305 672.019 54.666 697.631 75.7598 723.245 c 0
 93.0859 745.845 116.063 764.301 144.69 778.615 c 0
 174.823 792.929 205.71 800.085 237.35 800.085 c 0
 287.823 800.085 322.477 784.642 341.31 753.755 c 0
 351.104 737.182 356 718.349 356 697.255 c 0
 356 676.915 352.61 657.705 345.83 639.625 c 1
 256.56 359.385 l 1
168.42 581.995 m 0
 184.24 581.995 201.19 588.021 219.27 600.075 c 1
 232.076 612.129 241.87 626.818 248.65 644.145 c 1
 250.91 665.615 l 1
 246.39 688.215 l 1
 240.363 699.515 227.557 705.165 207.97 705.165 c 0
 190.644 705.165 174.446 698.762 159.38 685.955 c 1
 141.3 673.901 131.13 659.965 128.87 644.145 c 1
 124.35 623.805 l 1
 124.35 615.519 126.61 607.608 131.13 600.075 c 0
 138.664 588.021 151.094 581.995 168.42 581.995 c 0
EndSplineSet
EndChar
StartChar: uni0E1F
Encoding: 161 3615
OldEncoding: 3615
Width: 921
Flags: HW
Fore
207.71 342.485 m 1
 543.32 750.415 l 1
 614.51 342.485 l 1
 855.2 1076.99 l 1
 989.67 1076.99 l 1
 632.59 -17.9854 l 1
 499.25 -17.9854 l 1
 503.77 -6.68457 508.29 10.2646 512.81 32.8652 c 1
 517.33 74.6748 l 1
 517.33 88.2354 l 1
 455.18 483.735 l 1
 137.65 88.2354 l 1
 126.35 72.415 115.427 53.958 104.88 32.8652 c 1
 84.54 -17.9854 l 1
 -47.6699 -17.9854 l 1
 112.79 474.695 l 1
 107.517 473.188 91.3203 472.435 64.2002 472.435 c 1
 23.5195 476.955 -2.84668 494.658 -14.9004 525.545 c 0
 -20.9268 540.611 -23.9404 557.562 -23.9404 576.395 c 0
 -23.9404 595.981 -20.9268 613.685 -14.9004 629.505 c 1
 -8.12012 655.119 5.81641 680.731 26.9102 706.345 c 0
 44.2363 728.945 67.2139 747.401 95.8398 761.715 c 0
 125.974 776.028 156.86 783.185 188.5 783.185 c 0
 238.974 783.185 273.626 767.741 292.46 736.855 c 0
 302.254 720.281 307.15 701.449 307.15 680.355 c 0
 307.15 660.015 303.76 640.805 296.98 622.725 c 1
 207.71 342.485 l 1
119.57 565.095 m 0
 135.39 565.095 152.34 571.121 170.42 583.175 c 1
 183.227 595.229 193.02 609.919 199.8 627.245 c 1
 202.06 648.715 l 1
 197.54 671.315 l 1
 191.514 682.615 178.706 688.265 159.12 688.265 c 0
 141.794 688.265 125.597 681.861 110.53 669.055 c 1
 92.4502 657.001 82.2803 643.065 80.0195 627.245 c 1
 75.5 606.905 l 1
 75.5 598.619 77.7598 590.709 82.2803 583.175 c 0
 89.8135 571.121 102.244 565.095 119.57 565.095 c 0
EndSplineSet
EndChar
StartChar: uni0E20
Encoding: 162 3616
OldEncoding: 3616
Width: 878
Flags: HW
Fore
105.425 293.365 m 2
 116.725 293.365 l 1
 122.375 291.105 l 1
 149.495 381.505 l 2
 162.302 422.938 180.005 457.592 202.605 485.465 c 0
 225.205 514.845 250.818 537.068 279.445 552.135 c 1
 269.651 558.161 253.455 564.565 230.855 571.345 c 0
 196.201 580.385 168.329 585.658 147.235 587.165 c 1
 160.795 631.235 l 1
 202.605 666.265 l 2
 231.231 690.371 259.105 709.581 286.225 723.895 c 1
 322.385 745.741 367.209 764.951 420.695 781.525 c 0
 468.155 797.345 523.525 805.255 586.805 805.255 c 0
 648.579 805.255 699.429 795.085 739.355 774.745 c 1
 780.789 756.665 808.661 727.285 822.975 686.605 c 0
 829.001 672.291 832.015 653.835 832.015 631.235 c 0
 832.015 604.869 827.495 576.241 818.455 545.355 c 1
 639.915 -0.43457 l 1
 505.445 -0.43457 l 1
 679.465 534.055 l 2
 685.491 552.889 688.505 572.099 688.505 591.685 c 0
 688.505 620.312 680.972 643.665 665.905 661.745 c 1
 639.539 689.619 597.729 703.555 540.475 703.555 c 0
 510.341 703.555 476.441 697.905 438.775 686.605 c 1
 398.095 676.812 361.935 662.121 330.295 642.535 c 1
 390.185 626.715 l 2
 417.305 619.935 442.165 605.245 464.765 582.645 c 1
 443.295 518.235 l 1
 417.682 518.235 390.562 510.325 361.935 494.505 c 0
 330.295 477.179 306.565 442.525 290.745 390.545 c 1
 209.385 140.815 l 1
 193.565 94.8613 168.329 57.9482 133.675 30.0752 c 0
 100.528 1.44824 57.2119 -13.9951 3.72461 -16.2549 c 1
 -45.9951 -13.9951 -78.3887 1.44824 -93.4551 30.0752 c 0
 -102.495 45.8945 -107.015 64.3516 -107.015 85.4453 c 0
 -107.015 102.019 -104.002 118.969 -97.9746 136.295 c 0
 -85.168 179.235 -60.6846 216.148 -24.5254 247.035 c 0
 13.1416 277.921 56.458 293.365 105.425 293.365 c 2
34.2354 70.7549 m 0
 53.0684 70.7549 71.5254 77.9121 89.6055 92.2246 c 0
 104.671 102.771 116.349 118.215 124.635 138.555 c 1
 129.155 165.675 l 1
 129.155 192.041 112.205 205.225 78.3047 205.225 c 0
 58.7188 205.225 39.8848 199.198 21.8047 187.145 c 1
 8.99805 175.845 -1.54883 159.648 -9.83496 138.555 c 1
 -12.0947 119.345 l 1
 -12.0947 108.045 -9.83496 99.0049 -5.31543 92.2246 c 0
 1.46484 77.9121 14.6484 70.7549 34.2354 70.7549 c 0
EndSplineSet
EndChar
StartChar: uni0E21
Encoding: 163 3617
OldEncoding: 3617
Width: 839
Flags: HW
Fore
722.22 786.309 m 1
 856.69 786.309 l 1
 602.44 -0.170898 l 1
 472.49 -0.170898 l 1
 472.49 11.1289 l 2
 472.49 34.4824 466.086 63.1094 453.28 97.0088 c 0
 440.474 131.663 418.25 164.809 386.61 196.449 c 0
 354.216 226.583 315.044 245.039 269.09 251.819 c 1
 227.28 119.609 l 1
 212.214 75.916 188.106 42.7686 154.96 20.1689 c 0
 117.294 -3.9375 84.1465 -15.9912 55.5195 -15.9912 c 0
 3.54004 -18.251 -33.373 -2.05469 -55.2197 32.5986 c 1
 -69.5332 49.1729 -76.6904 69.8887 -76.6904 94.749 c 0
 -76.6904 114.335 -73.2998 134.299 -66.5195 154.639 c 0
 -49.1934 211.139 -17.5537 259.729 28.4004 300.409 c 0
 71.3398 338.829 119.177 359.923 171.91 363.689 c 1
 212.59 492.509 l 1
 205.81 492.509 l 1
 192.25 490.249 l 1
 144.036 490.249 111.644 505.692 95.0703 536.579 c 0
 84.5234 554.659 79.25 573.869 79.25 594.209 c 0
 79.25 612.289 82.2637 629.239 88.29 645.059 c 0
 101.85 687.999 127.086 725.289 164 756.929 c 1
 201.666 786.309 244.983 800.999 293.95 800.999 c 0
 335.384 800.999 367.023 787.815 388.87 761.449 c 0
 403.184 743.369 410.34 724.913 410.34 706.079 c 0
 410.34 691.766 407.704 677.075 402.43 662.009 c 2
 302.99 360.299 l 1
 380.584 348.999 437.084 326.775 472.49 293.629 c 0
 507.896 258.223 528.613 231.103 534.64 212.269 c 1
 722.22 786.309 l 1
225.02 582.909 m 0
 240.84 582.909 257.79 588.936 275.87 600.989 c 1
 289.43 613.795 298.47 628.485 302.99 645.059 c 1
 307.51 666.529 l 1
 302.99 689.129 l 1
 296.964 700.429 284.156 706.079 264.57 706.079 c 0
 247.244 706.079 231.046 699.676 215.98 686.869 c 1
 198.653 674.815 187.73 660.879 183.21 645.059 c 1
 178.69 624.719 l 1
 178.69 615.679 181.704 607.769 187.73 600.989 c 1
 195.264 588.936 207.693 582.909 225.02 582.909 c 0
136.88 258.599 m 1
 114.28 256.339 95.0703 247.299 79.25 231.479 c 0
 59.6631 214.152 46.4805 192.306 39.7002 165.939 c 1
 33.6738 151.625 30.6602 137.312 30.6602 122.999 c 0
 30.6602 100.399 41.207 87.9688 62.2998 85.709 c 0
 74.3535 85.709 83.7695 94.749 90.5498 112.829 c 1
 136.88 258.599 l 1
EndSplineSet
EndChar
StartChar: uni0E22
Encoding: 164 3618
OldEncoding: 3618
Width: 778
Flags: HW
Fore
167.445 376.205 m 1
 135.052 386.751 112.829 411.235 100.775 449.655 c 0
 96.2549 466.981 93.9951 484.685 93.9951 502.765 c 0
 93.9951 520.845 97.7617 544.198 105.295 572.825 c 1
 115.841 602.959 129.778 632.339 147.105 660.965 c 1
 179.499 706.165 217.165 741.571 260.105 767.185 c 1
 303.045 790.539 346.361 802.215 390.055 802.215 c 0
 434.501 802.215 466.142 788.278 484.975 760.405 c 1
 494.015 743.831 498.535 725.375 498.535 705.035 c 0
 498.535 686.955 495.521 670.005 489.495 654.185 c 1
 478.948 615.765 455.219 579.981 418.305 546.835 c 1
 380.639 517.455 338.829 502.765 292.875 502.765 c 0
 269.521 502.765 248.805 508.415 230.725 519.715 c 1
 214.905 525.741 206.995 530.262 206.995 533.275 c 1
 209.255 533.275 l 1
 204.735 512.935 l 1
 204.735 491.089 218.671 471.501 246.545 454.175 c 0
 278.938 435.342 316.605 424.795 359.545 422.535 c 1
 327.905 323.095 l 1
 271.405 323.095 227.335 311.419 195.695 288.065 c 0
 167.068 268.479 145.599 236.085 131.285 190.885 c 2
 107.555 118.565 l 1
 369.715 118.565 l 2
 400.602 118.565 422.071 123.461 434.125 133.255 c 0
 443.919 139.281 454.089 156.985 464.635 186.365 c 1
 656.735 785.265 l 1
 792.335 785.265 l 1
 586.675 149.075 l 1
 565.581 85.7949 541.852 45.1152 515.485 27.0352 c 0
 485.352 8.20215 436.762 -1.21484 369.715 -1.21484 c 2
 -65.335 -1.21484 l 1
 -3.18457 190.885 l 1
 9.62207 235.331 29.585 272.245 56.7051 301.625 c 0
 81.5654 328.745 104.919 347.955 126.765 359.255 c 0
 141.079 367.541 154.639 373.191 167.445 376.205 c 1
327.905 595.425 m 0
 345.231 595.425 360.675 601.075 374.235 612.375 c 0
 387.041 625.182 396.081 638.365 401.355 651.925 c 1
 403.615 670.005 l 1
 399.095 690.345 l 1
 393.068 701.645 380.639 707.295 361.805 707.295 c 0
 343.725 707.295 328.659 701.645 316.605 690.345 c 1
 300.031 679.799 290.615 666.991 288.355 651.925 c 2
 286.095 634.975 l 1
 290.615 614.635 l 1
 298.148 601.829 310.579 595.425 327.905 595.425 c 0
EndSplineSet
EndChar
StartChar: uni0E23
Encoding: 165 3619
OldEncoding: 3619
Width: 668
Flags: HW
Fore
558.695 387.635 m 1
 479.595 149.205 l 1
 463.775 103.252 435.148 65.585 393.715 36.2051 c 0
 351.528 5.31836 307.459 -10.125 261.505 -10.125 c 0
 214.045 -10.125 181.651 5.31836 164.325 36.2051 c 0
 155.285 52.0254 150.765 70.4814 150.765 91.5752 c 0
 150.765 111.162 153.778 128.865 159.805 144.685 c 0
 172.611 188.379 198.225 224.539 236.645 253.165 c 1
 273.559 283.299 316.121 299.495 364.335 301.755 c 0
 379.401 301.755 388.441 301.001 391.455 299.495 c 1
 421.965 387.635 l 2
 429.499 409.481 433.265 430.198 433.265 449.785 c 0
 433.265 468.619 425.731 485.568 410.665 500.635 c 1
 399.365 514.195 376.765 524.365 342.865 531.145 c 0
 323.278 535.665 274.688 542.445 197.095 551.485 c 0
 143.608 556.759 87.4854 559.395 28.7246 559.395 c 1
 51.3252 630.585 l 1
 91.251 680.305 140.595 722.115 199.355 756.015 c 0
 259.621 791.421 323.655 809.125 391.455 809.125 c 0
 437.409 809.125 487.505 800.461 541.745 783.135 c 0
 594.479 765.055 631.015 756.015 651.355 756.015 c 0
 681.488 756.015 713.129 763.549 746.275 778.615 c 1
 746.275 679.175 l 1
 700.321 662.602 658.512 654.315 620.845 654.315 c 0
 586.191 654.315 541.369 663.355 486.375 681.435 c 0
 432.135 700.269 385.052 709.685 345.125 709.685 c 0
 308.211 709.685 278.831 701.775 256.985 685.955 c 0
 231.371 669.381 214.421 656.198 206.135 646.405 c 1
 383.921 646.405 498.805 618.155 550.785 561.655 c 0
 568.111 542.068 576.775 516.455 576.775 484.815 c 0
 576.775 459.955 570.749 427.562 558.695 387.635 c 1
296.535 84.7949 m 0
 315.369 84.7949 332.318 90.0684 347.385 100.615 c 0
 358.685 109.655 368.855 124.345 377.895 144.685 c 1
 382.415 168.415 l 1
 382.415 175.195 380.155 181.975 375.635 188.755 c 0
 369.608 199.302 356.425 204.575 336.085 204.575 c 0
 314.991 204.575 297.289 198.549 282.975 186.495 c 0
 268.661 174.441 259.245 160.505 254.725 144.685 c 1
 250.205 126.605 l 1
 250.205 117.565 252.465 109.655 256.985 102.875 c 0
 265.271 90.8213 278.455 84.7949 296.535 84.7949 c 0
EndSplineSet
EndChar
StartChar: uni0E24
Encoding: 166 3620
OldEncoding: 3620
Width: 797
Flags: HW
Fore
240.16 318.245 m 1
 259.37 318.245 l 2
 307.584 318.245 341.483 302.801 361.07 271.915 c 1
 370.11 253.835 374.63 234.625 374.63 214.285 c 0
 374.63 198.465 372.37 181.515 367.85 163.435 c 1
 352.03 118.235 325.664 82.0752 288.75 54.9551 c 1
 251.084 24.0684 207.767 8.625 158.8 8.625 c 0
 113.6 8.625 81.2061 24.0684 61.6201 54.9551 c 0
 51.0732 70.0215 45.7998 88.4785 45.7998 110.325 c 0
 45.7998 129.912 48.8135 147.615 54.8398 163.435 c 1
 133.94 404.125 l 1
 147.5 448.571 164.45 483.225 184.79 508.085 c 1
 202.87 534.451 228.483 556.675 261.63 574.755 c 1
 249.576 581.535 233.38 587.938 213.04 593.965 c 0
 182.153 603.005 154.28 608.278 129.42 609.785 c 1
 142.98 653.855 l 1
 184.79 688.885 l 1
 198.35 702.445 226.977 721.655 270.67 746.515 c 1
 323.403 773.635 368.227 792.845 405.14 804.145 c 0
 452.6 819.965 507.97 827.875 571.25 827.875 c 0
 633.023 827.875 683.12 818.459 721.54 799.625 c 0
 762.22 778.531 790.094 749.151 805.16 711.485 c 0
 811.187 697.171 814.2 678.715 814.2 656.115 c 0
 814.2 628.241 808.927 598.861 798.38 567.975 c 1
 487.63 -386.875 l 1
 353.16 -386.875 l 1
 661.65 556.675 l 2
 667.677 575.509 670.69 594.719 670.69 614.305 c 0
 670.69 641.425 663.91 664.778 650.35 684.365 c 1
 620.97 712.238 579.16 726.175 524.92 726.175 c 0
 459.38 726.175 387.813 705.835 310.22 665.155 c 1
 317 662.895 326.04 660.635 337.34 658.375 c 2
 388.19 642.555 l 1
 411.544 632.762 430.754 620.331 445.82 605.265 c 1
 425.48 540.855 l 1
 398.36 540.855 370.486 532.945 341.86 517.125 c 0
 314.74 502.059 291.764 467.405 272.93 413.165 c 2
 240.16 318.245 l 1
187.05 96.7646 m 0
 209.65 96.7646 228.86 103.545 244.68 117.105 c 1
 258.24 126.145 269.164 141.589 277.45 163.435 c 1
 281.97 191.685 l 1
 281.97 217.299 265.773 230.105 233.38 230.105 c 0
 213.04 230.105 194.584 224.079 178.01 212.025 c 0
 163.696 199.972 152.773 183.775 145.24 163.435 c 1
 140.72 139.705 l 1
 140.72 131.418 142.98 123.885 147.5 117.105 c 0
 154.28 103.545 167.464 96.7646 187.05 96.7646 c 0
EndSplineSet
EndChar
StartChar: uni0E25
Encoding: 167 3621
OldEncoding: 3621
Width: 772
Flags: HW
Fore
99.8154 -16.125 m 0
 53.1084 -16.125 20.7148 -2.18848 2.63477 25.6846 c 1
 -12.4316 45.2715 -19.9648 68.248 -19.9648 94.6152 c 1
 -15.4453 125.125 l 1
 4.89453 203.472 25.6113 271.271 46.7051 328.525 c 0
 70.0586 391.052 106.972 446.421 157.445 494.635 c 1
 207.165 539.835 259.521 562.435 314.515 562.435 c 0
 372.521 564.695 417.345 550.005 448.985 518.365 c 1
 477.611 486.725 495.315 452.825 502.095 416.665 c 2
 514.525 348.865 l 1
 576.675 538.705 l 2
 582.701 557.539 585.715 576.749 585.715 596.335 c 0
 585.715 621.949 578.935 643.041 565.375 659.615 c 1
 539.009 687.488 494.938 701.425 433.165 701.425 c 0
 380.432 701.425 331.089 688.995 285.135 664.135 c 0
 242.948 641.535 201.892 612.908 161.965 578.255 c 1
 108.855 644.925 l 1
 151.041 689.371 201.139 725.908 259.145 754.535 c 0
 323.932 786.929 392.861 803.125 465.935 803.125 c 0
 558.595 803.125 629.409 779.771 678.375 733.065 c 0
 710.769 703.685 726.965 666.019 726.965 620.065 c 0
 726.965 595.205 722.445 568.839 713.405 540.965 c 2
 537.125 -0.304688 l 1
 400.395 -0.304688 l 1
 404.161 29.0752 408.305 88.5879 412.825 178.235 c 1
 412.825 187.275 l 2
 412.825 249.049 404.161 311.575 386.835 374.855 c 1
 368.001 434.369 335.608 462.995 289.655 460.735 c 0
 230.142 458.475 182.305 400.469 146.145 286.715 c 1
 168.745 291.235 l 1
 201.515 293.495 l 1
 251.988 291.235 285.135 277.299 300.955 251.685 c 0
 312.255 235.865 317.905 217.409 317.905 196.315 c 0
 317.905 181.249 314.515 163.545 307.735 143.205 c 0
 292.669 98.0049 267.432 60.3379 232.025 30.2051 c 0
 197.371 1.57812 153.302 -13.8652 99.8154 -16.125 c 0
132.585 76.5352 m 0
 148.405 76.5352 165.355 82.5615 183.435 94.6152 c 1
 197.749 108.929 207.541 123.619 212.815 138.685 c 1
 215.075 161.285 l 1
 210.555 182.755 l 1
 204.528 193.302 191.722 198.575 172.135 198.575 c 0
 153.302 198.575 135.975 192.549 120.155 180.495 c 0
 106.595 169.195 97.5547 155.259 93.0352 138.685 c 1
 90.7754 117.215 l 1
 95.2949 96.875 l 1
 99.8154 83.3154 112.245 76.5352 132.585 76.5352 c 0
EndSplineSet
EndChar
